<svg preserveAspectRatio="none" width="100%" height="100%" overflow="visible" style="display: block;" viewBox="0 0 71 70" fill="none" xmlns="http://www.w3.org/2000/svg">
<g id="Frame 2095586316" filter="url(#filter0_dddd_0_7)">
<path d="M17 15.896C17 11.0319 17 8.59991 17.9466 6.74209C18.7793 5.1079 20.1079 3.77927 21.7421 2.94661C23.5999 2 26.0319 2 30.896 2H55.214C60.0781 2 62.5101 2 64.3679 2.94661C66.0021 3.77927 67.3307 5.1079 68.1634 6.74209C69.11 8.59991 69.11 11.0319 69.11 15.896V40.214C69.11 45.0781 69.11 47.5101 68.1634 49.3679C67.3307 51.0021 66.0021 52.3307 64.3679 53.1634C62.5101 54.11 60.0781 54.11 55.214 54.11H30.896C26.0319 54.11 23.5999 54.11 21.7421 53.1634C20.1079 52.3307 18.7793 51.0021 17.9466 49.3679C17 47.5101 17 45.0781 17 40.214V15.896Z" fill="var(--fill-0, white)"/>
<path d="M30.8965 2.43457H55.2139C57.653 2.43457 59.4564 2.43425 60.8828 2.55078C62.3042 2.66691 63.3134 2.89707 64.1709 3.33398C65.7232 4.12502 66.9854 5.38707 67.7764 6.93945C68.2132 7.79692 68.4425 8.80622 68.5586 10.2275C68.6751 11.6539 68.6758 13.4575 68.6758 15.8965V40.2139C68.6758 42.653 68.6751 44.4564 68.5586 45.8828C68.4425 47.3042 68.2133 48.3134 67.7764 49.1709C66.9854 50.7233 65.7233 51.9854 64.1709 52.7764C63.3134 53.2133 62.3042 53.4425 60.8828 53.5586C59.4564 53.6751 57.653 53.6758 55.2139 53.6758H30.8965C28.4575 53.6758 26.6539 53.6751 25.2275 53.5586C23.8062 53.4425 22.7969 53.2132 21.9395 52.7764C20.3871 51.9854 19.125 50.7232 18.334 49.1709C17.8971 48.3134 17.6669 47.3042 17.5508 45.8828C17.4342 44.4564 17.4346 42.653 17.4346 40.2139V15.8965C17.4346 13.4576 17.4343 11.6539 17.5508 10.2275C17.6669 8.80615 17.8971 7.79694 18.334 6.93945C19.125 5.38699 20.387 4.12501 21.9395 3.33398C22.7969 2.89707 23.8062 2.66691 25.2275 2.55078C26.6539 2.43428 28.4576 2.43457 30.8965 2.43457Z" stroke="var(--stroke-0, #3C3F2E)" stroke-opacity="0.1" stroke-width="0.8685"/>
<g id="Vector">
<mask id="path-3-outside-1_0_7" maskUnits="userSpaceOnUse" x="24.0996" y="9.67118" width="38" height="36" fill="black">
<rect fill="white" x="24.0996" y="9.67118" width="38" height="36"/>
<path fill-rule="evenodd" clip-rule="evenodd" d="M29.4609 36.6041C29.58 36.5443 29.6868 36.4638 29.7768 36.3673L29.4609 36.5001V36.6041Z"/>
<path fill-rule="evenodd" clip-rule="evenodd" d="M29.4609 39.3238L29.3823 39.2754L29.4609 39.3102V39.3238Z"/>
<path d="M34.4344 32.1447C34.6671 31.9403 34.814 31.6406 34.814 31.3066C34.814 31.2815 34.8131 31.2565 34.8115 31.2318C34.7846 30.8252 34.5397 30.4781 34.1926 30.3065C34.0438 30.2328 33.8761 30.1914 33.6988 30.1914C33.5215 30.1914 33.3539 30.2328 33.205 30.3065C33.1069 30.355 33.0169 30.4175 32.9378 30.4915L29.4609 29.1177V19.561L30.4062 18.8613C30.5496 18.9284 30.7095 18.9659 30.8783 18.9659C31.4941 18.9659 31.9934 18.4666 31.9934 17.8507C31.9934 17.7977 31.9897 17.7456 31.9826 17.6946C31.9334 17.3439 31.7212 17.0455 31.425 16.8786C31.2634 16.7875 31.0769 16.7356 30.8783 16.7356C30.2624 16.7356 29.7631 17.2348 29.7631 17.8507C29.7631 17.9327 29.772 18.0126 29.7888 18.0896L28.4733 19.0633V29.7894L32.5889 31.4155C32.6269 31.8074 32.8677 32.1399 33.205 32.3067C33.3539 32.3804 33.5215 32.4217 33.6988 32.4217C33.8761 32.4217 34.0438 32.3804 34.1926 32.3067C34.2804 32.2633 34.3616 32.2087 34.4344 32.1447Z"/>
<path d="M37.506 10.6712L33.205 13.4281V16.9628C32.8368 17.1449 32.5837 17.5243 32.5837 17.9629C32.5837 18.4015 32.8368 18.7809 33.205 18.963C33.3539 19.0367 33.5215 19.078 33.6988 19.078C33.8761 19.078 34.0438 19.0367 34.1926 18.963C34.5608 18.7809 34.814 18.4015 34.814 17.9629C34.814 17.5243 34.5608 17.1449 34.1926 16.9628V13.9681L37.506 11.8443L40.8474 13.9861V17.2923C40.489 17.4778 40.244 17.852 40.244 18.2834C40.244 18.7148 40.489 19.089 40.8474 19.2745C41.0007 19.3538 41.1747 19.3985 41.3591 19.3985C41.5294 19.3985 41.6907 19.3604 41.835 19.2922C42.2129 19.1136 42.4743 18.729 42.4743 18.2834C42.4743 17.8378 42.2129 17.4532 41.835 17.2746V13.4461L37.506 10.6712Z"/>
<path fill-rule="evenodd" clip-rule="evenodd" d="M41.835 31.2998V25.0935C42.2129 24.915 42.4743 24.5304 42.4743 24.0847C42.4743 23.6391 42.2129 23.2545 41.835 23.0759C41.6907 23.0077 41.5294 22.9696 41.3591 22.9696C41.1747 22.9696 41.0007 23.0144 40.8474 23.0937C40.489 23.2791 40.244 23.6533 40.244 24.0847C40.244 24.5162 40.489 24.8904 40.8474 25.0758V30.6436L38.2297 31.7437V16.1335C38.605 15.954 38.8642 15.5707 38.8642 15.127C38.8642 14.6833 38.605 14.3 38.2297 14.1205C38.0842 14.0509 37.9212 14.0119 37.749 14.0119C37.5665 14.0119 37.3942 14.0557 37.2421 14.1335C36.8811 14.318 36.6339 14.6937 36.6339 15.127C36.6339 15.5604 36.8811 15.936 37.2421 16.1206V28.5222L34.1926 27.3173V23.6265C34.5608 23.4444 34.814 23.065 34.814 22.6264C34.814 22.1878 34.5608 21.8084 34.1926 21.6263C34.0438 21.5526 33.8761 21.5112 33.6988 21.5112C33.5215 21.5112 33.3539 21.5526 33.205 21.6263C32.8368 21.8084 32.5837 22.1878 32.5837 22.6264C32.5837 23.065 32.8368 23.4444 33.205 23.6265V27.989L37.2421 29.5841V32.1587V32.1922V33.23V33.2541V34.7562L38.2297 35.1928V32.815L41.835 31.2998Z"/>
<path fill-rule="evenodd" clip-rule="evenodd" d="M56.6491 19.5044C56.5301 19.5642 56.4232 19.6447 56.3333 19.7412L56.6491 19.6084V19.5044Z"/>
<path fill-rule="evenodd" clip-rule="evenodd" d="M45.154 12.7949L45.2626 12.728V12.843L45.154 12.7949Z"/>
<path fill-rule="evenodd" clip-rule="evenodd" d="M47.9393 14.0266L47.8803 14.0005V14.0528C47.8997 14.0435 47.9194 14.0348 47.9393 14.0266Z"/>
<path fill-rule="evenodd" clip-rule="evenodd" d="M56.6491 16.7847L56.7277 16.8331L56.6491 16.7983V16.7847Z"/>
<path fill-rule="evenodd" clip-rule="evenodd" d="M45.154 12.7949L45.2626 12.843V12.728L45.154 12.7949Z"/>
<path fill-rule="evenodd" clip-rule="evenodd" d="M45.2626 12.843L45.154 12.7949L45.2626 12.728V12.843Z"/>
<path d="M51.6756 23.9638C51.4429 24.1682 51.2961 24.4679 51.2961 24.8019C51.2961 24.827 51.2969 24.852 51.2986 24.8767C51.3255 25.2833 51.5704 25.6304 51.9174 25.8021C52.0663 25.8757 52.2339 25.9171 52.4112 25.9171C52.5885 25.9171 52.7562 25.8757 52.905 25.802C53.0031 25.7535 53.0931 25.691 53.1723 25.617L56.6491 26.9908V36.5475L55.7038 37.2472C55.5605 37.1801 55.4005 37.1427 55.2318 37.1427C54.6159 37.1427 54.1166 37.6419 54.1166 38.2578C54.1166 38.3108 54.1203 38.3629 54.1275 38.4139C54.1766 38.7646 54.3889 39.063 54.685 39.2299C54.8466 39.321 55.0331 39.3729 55.2318 39.3729C55.8477 39.3729 56.3469 38.8737 56.3469 38.2578C56.3469 38.1758 56.3381 38.0959 56.3213 38.0189L57.6367 37.0452V26.3191L53.5211 24.693C53.4831 24.3011 53.2423 23.9686 52.905 23.8018C52.7562 23.7282 52.5885 23.6868 52.4112 23.6868C52.2339 23.6868 52.0663 23.7282 51.9174 23.8018C51.8297 23.8452 51.7484 23.8998 51.6756 23.9638Z"/>
<path fill-rule="evenodd" clip-rule="evenodd" d="M56.6491 19.6084L56.3333 19.7412C56.1475 19.9404 56.0339 20.2077 56.0339 20.5015C56.0339 20.6443 56.0607 20.7809 56.1096 20.9064C56.2101 21.1642 56.4037 21.3753 56.6491 21.4986C56.7995 21.5741 56.9693 21.6166 57.149 21.6166C57.3239 21.6166 57.4894 21.5764 57.6367 21.5046C58.0082 21.3237 58.2641 20.9425 58.2641 20.5015C58.2641 20.3378 58.2289 20.1824 58.1656 20.0424C58.0582 19.8052 57.8703 19.6122 57.6367 19.4984V17.235L56.7277 16.8331L56.6491 16.7983L52.905 15.1426V13.3197L48.6033 10.6712L45.2626 12.728V12.843L45.154 12.7949L44.275 13.3361V23.7699L45.2626 23.3326V13.8878L48.6033 11.831L51.9174 13.8714V17.5823C51.5493 17.7644 51.2961 18.1438 51.2961 18.5824C51.2961 19.021 51.5493 19.4004 51.9174 19.5825C52.0663 19.6562 52.2339 19.6975 52.4112 19.6975C52.5885 19.6975 52.7562 19.6562 52.905 19.5825C53.2732 19.4004 53.5264 19.021 53.5264 18.5824C53.5264 18.1438 53.2732 17.7644 52.905 17.5823V16.2225L56.6491 17.8782V19.5044V19.6084Z"/>
<path d="M48.6041 45.4373L52.905 42.6804V39.1457C53.2732 38.9636 53.5264 38.5842 53.5264 38.1456C53.5264 37.707 53.2732 37.3276 52.905 37.1455C52.7562 37.0719 52.5885 37.0305 52.4112 37.0305C52.2339 37.0305 52.0663 37.0719 51.9174 37.1455C51.5493 37.3276 51.2961 37.707 51.2961 38.1456C51.2961 38.5842 51.5493 38.9636 51.9174 39.1458V42.1404L48.6041 44.2642L45.2626 42.1224V38.8162C45.6211 38.6307 45.8661 38.2565 45.8661 37.8251C45.8661 37.3937 45.6211 37.0195 45.2626 36.834C45.1094 36.7547 44.9354 36.71 44.7509 36.71C44.5807 36.71 44.4194 36.7481 44.275 36.8163C43.8972 36.9949 43.6358 37.3795 43.6358 37.8251C43.6358 38.2707 43.8972 38.6553 44.275 38.8339V42.6624L48.6041 45.4373Z"/>
<path fill-rule="evenodd" clip-rule="evenodd" d="M44.275 24.8087V31.015C43.8972 31.1935 43.6358 31.5781 43.6358 32.0238C43.6358 32.4694 43.8972 32.854 44.275 33.0326C44.4194 33.1008 44.5807 33.1389 44.7509 33.1389C44.9354 33.1389 45.1094 33.0941 45.2626 33.0148C45.6211 32.8294 45.8661 32.4552 45.8661 32.0238C45.8661 31.5923 45.6211 31.2181 45.2626 31.0327V25.4649L47.8803 24.3648V39.975C47.5051 40.1545 47.2459 40.5378 47.2459 40.9815C47.2459 41.4252 47.5051 41.8085 47.8803 41.988C48.0259 42.0576 48.1889 42.0966 48.361 42.0966C48.5435 42.0966 48.7158 42.0528 48.8679 41.9751C49.229 41.7905 49.4762 41.4149 49.4762 40.9815C49.4762 40.5482 49.229 40.1725 48.8679 39.988V27.5863L51.9174 28.7912V32.482C51.5493 32.6641 51.2961 33.0435 51.2961 33.4821C51.2961 33.9207 51.5493 34.3001 51.9174 34.4822C52.0663 34.5559 52.2339 34.5973 52.4112 34.5973C52.5885 34.5973 52.7562 34.5559 52.905 34.4822C53.2732 34.3001 53.5264 33.9207 53.5264 33.4821C53.5264 33.0435 53.2732 32.6641 52.905 32.482V28.1195L48.8679 26.5244V23.9498V23.9163V22.8785V22.8545V21.3523L47.8803 20.9157V23.2935L44.275 24.8087Z"/>
<path fill-rule="evenodd" clip-rule="evenodd" d="M29.4609 36.5001L29.7768 36.3673C29.9625 36.1682 30.0762 35.9008 30.0762 35.607C30.0762 35.4642 30.0493 35.3276 30.0004 35.2021C29.8999 34.9443 29.7063 34.7332 29.4609 34.6099C29.3106 34.5344 29.1408 34.4919 28.961 34.4919C28.7861 34.4919 28.6206 34.5321 28.4733 34.6039C28.1019 34.7848 27.8459 35.166 27.8459 35.607C27.8459 35.7707 27.8811 35.9261 27.9445 36.0661C28.0518 36.3034 28.2397 36.4963 28.4733 36.6101V38.8735L29.3823 39.2754L29.4609 39.3102L33.205 40.9659V42.7888L37.5067 45.4373L40.8474 43.3805L40.9561 43.3136L41.835 42.7724V32.3386L40.8474 32.776V42.2207L37.5067 44.2775L34.1926 42.2371V38.5262C34.5608 38.3441 34.814 37.9647 34.814 37.5261C34.814 37.0875 34.5608 36.7081 34.1926 36.526C34.0438 36.4523 33.8761 36.411 33.6988 36.411C33.5215 36.411 33.3539 36.4523 33.205 36.526C32.8368 36.7081 32.5837 37.0875 32.5837 37.5261C32.5837 37.9647 32.8368 38.3441 33.205 38.5262V39.886L29.4609 38.2303V36.6041V36.5001Z"/>
<path fill-rule="evenodd" clip-rule="evenodd" d="M58.9175 34.8686C59.0273 34.6689 59.1966 34.5064 59.4015 34.4051V24.9502L51.9174 21.6407L51.8667 21.6182L47.8803 19.8554V16.0658C47.5051 15.8862 47.2459 15.503 47.2459 15.0593C47.2459 14.6155 47.5051 14.2323 47.8803 14.0528C47.8997 14.0435 47.9194 14.0348 47.9393 14.0266C48.0694 13.9735 48.2118 13.9441 48.361 13.9441C48.5435 13.9441 48.7158 13.988 48.8679 14.0657C49.1169 14.193 49.3117 14.4111 49.4087 14.6764C49.4523 14.7958 49.4762 14.9248 49.4762 15.0593C49.4762 15.4926 49.229 15.8683 48.8679 16.0528V19.2123L52.905 20.9975L53.1188 21.0921L60.3891 24.307V34.4051C60.541 34.4802 60.6733 34.5889 60.7763 34.7215C60.923 34.9103 61.0104 35.1475 61.0104 35.4052C61.0104 35.8438 60.7572 36.2232 60.3891 36.4053C60.2402 36.479 60.0726 36.5204 59.8953 36.5204C59.718 36.5204 59.5503 36.479 59.4015 36.4053C59.2343 36.3226 59.0908 36.1992 58.984 36.0481C58.8556 35.8664 58.7801 35.6446 58.7801 35.4052C58.7801 35.2107 58.8299 35.0278 58.9175 34.8686Z"/>
<path fill-rule="evenodd" clip-rule="evenodd" d="M26.7086 31.1584V21.7034C26.9134 21.6021 27.0827 21.4396 27.1925 21.2399C27.2801 21.0807 27.3299 20.8978 27.3299 20.7033C27.3299 20.4639 27.2545 20.2421 27.1261 20.0604C27.0192 19.9093 26.8758 19.7859 26.7086 19.7032C26.5597 19.6295 26.3921 19.5882 26.2148 19.5882C26.0375 19.5882 25.8698 19.6295 25.721 19.7032C25.3528 19.8853 25.0996 20.2647 25.0996 20.7033C25.0996 20.961 25.187 21.1982 25.3337 21.387C25.4368 21.5196 25.5691 21.6283 25.721 21.7034V31.8015L32.9913 35.0165L33.205 35.111L37.2421 36.8962V40.0557C36.8811 40.2402 36.6339 40.6159 36.6339 41.0492C36.6339 41.1837 36.6577 41.3127 36.7014 41.4321C36.7983 41.6974 36.9932 41.9155 37.2421 42.0428C37.3942 42.1205 37.5665 42.1644 37.749 42.1644C37.8982 42.1644 38.0406 42.1351 38.1707 42.0819C38.1907 42.0737 38.2104 42.065 38.2297 42.0557C38.605 41.8762 38.8642 41.493 38.8642 41.0492C38.8642 40.6055 38.605 40.2223 38.2297 40.0427V36.2531L34.2433 34.4903L34.1926 34.4678L26.7086 31.1584Z"/>
</mask>
<path fill-rule="evenodd" clip-rule="evenodd" d="M29.4609 36.6041C29.58 36.5443 29.6868 36.4638 29.7768 36.3673L29.4609 36.5001V36.6041Z" fill="url(#paint0_linear_0_7)"/>
<path fill-rule="evenodd" clip-rule="evenodd" d="M29.4609 39.3238L29.3823 39.2754L29.4609 39.3102V39.3238Z" fill="url(#paint1_linear_0_7)"/>
<path d="M34.4344 32.1447C34.6671 31.9403 34.814 31.6406 34.814 31.3066C34.814 31.2815 34.8131 31.2565 34.8115 31.2318C34.7846 30.8252 34.5397 30.4781 34.1926 30.3065C34.0438 30.2328 33.8761 30.1914 33.6988 30.1914C33.5215 30.1914 33.3539 30.2328 33.205 30.3065C33.1069 30.355 33.0169 30.4175 32.9378 30.4915L29.4609 29.1177V19.561L30.4062 18.8613C30.5496 18.9284 30.7095 18.9659 30.8783 18.9659C31.4941 18.9659 31.9934 18.4666 31.9934 17.8507C31.9934 17.7977 31.9897 17.7456 31.9826 17.6946C31.9334 17.3439 31.7212 17.0455 31.425 16.8786C31.2634 16.7875 31.0769 16.7356 30.8783 16.7356C30.2624 16.7356 29.7631 17.2348 29.7631 17.8507C29.7631 17.9327 29.772 18.0126 29.7888 18.0896L28.4733 19.0633V29.7894L32.5889 31.4155C32.6269 31.8074 32.8677 32.1399 33.205 32.3067C33.3539 32.3804 33.5215 32.4217 33.6988 32.4217C33.8761 32.4217 34.0438 32.3804 34.1926 32.3067C34.2804 32.2633 34.3616 32.2087 34.4344 32.1447Z" fill="url(#paint2_linear_0_7)"/>
<path d="M37.506 10.6712L33.205 13.4281V16.9628C32.8368 17.1449 32.5837 17.5243 32.5837 17.9629C32.5837 18.4015 32.8368 18.7809 33.205 18.963C33.3539 19.0367 33.5215 19.078 33.6988 19.078C33.8761 19.078 34.0438 19.0367 34.1926 18.963C34.5608 18.7809 34.814 18.4015 34.814 17.9629C34.814 17.5243 34.5608 17.1449 34.1926 16.9628V13.9681L37.506 11.8443L40.8474 13.9861V17.2923C40.489 17.4778 40.244 17.852 40.244 18.2834C40.244 18.7148 40.489 19.089 40.8474 19.2745C41.0007 19.3538 41.1747 19.3985 41.3591 19.3985C41.5294 19.3985 41.6907 19.3604 41.835 19.2922C42.2129 19.1136 42.4743 18.729 42.4743 18.2834C42.4743 17.8378 42.2129 17.4532 41.835 17.2746V13.4461L37.506 10.6712Z" fill="url(#paint3_linear_0_7)"/>
<path fill-rule="evenodd" clip-rule="evenodd" d="M41.835 31.2998V25.0935C42.2129 24.915 42.4743 24.5304 42.4743 24.0847C42.4743 23.6391 42.2129 23.2545 41.835 23.0759C41.6907 23.0077 41.5294 22.9696 41.3591 22.9696C41.1747 22.9696 41.0007 23.0144 40.8474 23.0937C40.489 23.2791 40.244 23.6533 40.244 24.0847C40.244 24.5162 40.489 24.8904 40.8474 25.0758V30.6436L38.2297 31.7437V16.1335C38.605 15.954 38.8642 15.5707 38.8642 15.127C38.8642 14.6833 38.605 14.3 38.2297 14.1205C38.0842 14.0509 37.9212 14.0119 37.749 14.0119C37.5665 14.0119 37.3942 14.0557 37.2421 14.1335C36.8811 14.318 36.6339 14.6937 36.6339 15.127C36.6339 15.5604 36.8811 15.936 37.2421 16.1206V28.5222L34.1926 27.3173V23.6265C34.5608 23.4444 34.814 23.065 34.814 22.6264C34.814 22.1878 34.5608 21.8084 34.1926 21.6263C34.0438 21.5526 33.8761 21.5112 33.6988 21.5112C33.5215 21.5112 33.3539 21.5526 33.205 21.6263C32.8368 21.8084 32.5837 22.1878 32.5837 22.6264C32.5837 23.065 32.8368 23.4444 33.205 23.6265V27.989L37.2421 29.5841V32.1587V32.1922V33.23V33.2541V34.7562L38.2297 35.1928V32.815L41.835 31.2998Z" fill="url(#paint4_linear_0_7)"/>
<path fill-rule="evenodd" clip-rule="evenodd" d="M56.6491 19.5044C56.5301 19.5642 56.4232 19.6447 56.3333 19.7412L56.6491 19.6084V19.5044Z" fill="url(#paint5_linear_0_7)"/>
<path fill-rule="evenodd" clip-rule="evenodd" d="M45.154 12.7949L45.2626 12.728V12.843L45.154 12.7949Z" fill="url(#paint6_linear_0_7)"/>
<path fill-rule="evenodd" clip-rule="evenodd" d="M47.9393 14.0266L47.8803 14.0005V14.0528C47.8997 14.0435 47.9194 14.0348 47.9393 14.0266Z" fill="url(#paint7_linear_0_7)"/>
<path fill-rule="evenodd" clip-rule="evenodd" d="M56.6491 16.7847L56.7277 16.8331L56.6491 16.7983V16.7847Z" fill="url(#paint8_linear_0_7)"/>
<path fill-rule="evenodd" clip-rule="evenodd" d="M45.154 12.7949L45.2626 12.843V12.728L45.154 12.7949Z" fill="url(#paint9_linear_0_7)"/>
<path fill-rule="evenodd" clip-rule="evenodd" d="M45.2626 12.843L45.154 12.7949L45.2626 12.728V12.843Z" fill="url(#paint10_linear_0_7)"/>
<path d="M51.6756 23.9638C51.4429 24.1682 51.2961 24.4679 51.2961 24.8019C51.2961 24.827 51.2969 24.852 51.2986 24.8767C51.3255 25.2833 51.5704 25.6304 51.9174 25.8021C52.0663 25.8757 52.2339 25.9171 52.4112 25.9171C52.5885 25.9171 52.7562 25.8757 52.905 25.802C53.0031 25.7535 53.0931 25.691 53.1723 25.617L56.6491 26.9908V36.5475L55.7038 37.2472C55.5605 37.1801 55.4005 37.1427 55.2318 37.1427C54.6159 37.1427 54.1166 37.6419 54.1166 38.2578C54.1166 38.3108 54.1203 38.3629 54.1275 38.4139C54.1766 38.7646 54.3889 39.063 54.685 39.2299C54.8466 39.321 55.0331 39.3729 55.2318 39.3729C55.8477 39.3729 56.3469 38.8737 56.3469 38.2578C56.3469 38.1758 56.3381 38.0959 56.3213 38.0189L57.6367 37.0452V26.3191L53.5211 24.693C53.4831 24.3011 53.2423 23.9686 52.905 23.8018C52.7562 23.7282 52.5885 23.6868 52.4112 23.6868C52.2339 23.6868 52.0663 23.7282 51.9174 23.8018C51.8297 23.8452 51.7484 23.8998 51.6756 23.9638Z" fill="url(#paint11_linear_0_7)"/>
<path fill-rule="evenodd" clip-rule="evenodd" d="M56.6491 19.6084L56.3333 19.7412C56.1475 19.9404 56.0339 20.2077 56.0339 20.5015C56.0339 20.6443 56.0607 20.7809 56.1096 20.9064C56.2101 21.1642 56.4037 21.3753 56.6491 21.4986C56.7995 21.5741 56.9693 21.6166 57.149 21.6166C57.3239 21.6166 57.4894 21.5764 57.6367 21.5046C58.0082 21.3237 58.2641 20.9425 58.2641 20.5015C58.2641 20.3378 58.2289 20.1824 58.1656 20.0424C58.0582 19.8052 57.8703 19.6122 57.6367 19.4984V17.235L56.7277 16.8331L56.6491 16.7983L52.905 15.1426V13.3197L48.6033 10.6712L45.2626 12.728V12.843L45.154 12.7949L44.275 13.3361V23.7699L45.2626 23.3326V13.8878L48.6033 11.831L51.9174 13.8714V17.5823C51.5493 17.7644 51.2961 18.1438 51.2961 18.5824C51.2961 19.021 51.5493 19.4004 51.9174 19.5825C52.0663 19.6562 52.2339 19.6975 52.4112 19.6975C52.5885 19.6975 52.7562 19.6562 52.905 19.5825C53.2732 19.4004 53.5264 19.021 53.5264 18.5824C53.5264 18.1438 53.2732 17.7644 52.905 17.5823V16.2225L56.6491 17.8782V19.5044V19.6084Z" fill="url(#paint12_linear_0_7)"/>
<path d="M48.6041 45.4373L52.905 42.6804V39.1457C53.2732 38.9636 53.5264 38.5842 53.5264 38.1456C53.5264 37.707 53.2732 37.3276 52.905 37.1455C52.7562 37.0719 52.5885 37.0305 52.4112 37.0305C52.2339 37.0305 52.0663 37.0719 51.9174 37.1455C51.5493 37.3276 51.2961 37.707 51.2961 38.1456C51.2961 38.5842 51.5493 38.9636 51.9174 39.1458V42.1404L48.6041 44.2642L45.2626 42.1224V38.8162C45.6211 38.6307 45.8661 38.2565 45.8661 37.8251C45.8661 37.3937 45.6211 37.0195 45.2626 36.834C45.1094 36.7547 44.9354 36.71 44.7509 36.71C44.5807 36.71 44.4194 36.7481 44.275 36.8163C43.8972 36.9949 43.6358 37.3795 43.6358 37.8251C43.6358 38.2707 43.8972 38.6553 44.275 38.8339V42.6624L48.6041 45.4373Z" fill="url(#paint13_linear_0_7)"/>
<path fill-rule="evenodd" clip-rule="evenodd" d="M44.275 24.8087V31.015C43.8972 31.1935 43.6358 31.5781 43.6358 32.0238C43.6358 32.4694 43.8972 32.854 44.275 33.0326C44.4194 33.1008 44.5807 33.1389 44.7509 33.1389C44.9354 33.1389 45.1094 33.0941 45.2626 33.0148C45.6211 32.8294 45.8661 32.4552 45.8661 32.0238C45.8661 31.5923 45.6211 31.2181 45.2626 31.0327V25.4649L47.8803 24.3648V39.975C47.5051 40.1545 47.2459 40.5378 47.2459 40.9815C47.2459 41.4252 47.5051 41.8085 47.8803 41.988C48.0259 42.0576 48.1889 42.0966 48.361 42.0966C48.5435 42.0966 48.7158 42.0528 48.8679 41.9751C49.229 41.7905 49.4762 41.4149 49.4762 40.9815C49.4762 40.5482 49.229 40.1725 48.8679 39.988V27.5863L51.9174 28.7912V32.482C51.5493 32.6641 51.2961 33.0435 51.2961 33.4821C51.2961 33.9207 51.5493 34.3001 51.9174 34.4822C52.0663 34.5559 52.2339 34.5973 52.4112 34.5973C52.5885 34.5973 52.7562 34.5559 52.905 34.4822C53.2732 34.3001 53.5264 33.9207 53.5264 33.4821C53.5264 33.0435 53.2732 32.6641 52.905 32.482V28.1195L48.8679 26.5244V23.9498V23.9163V22.8785V22.8545V21.3523L47.8803 20.9157V23.2935L44.275 24.8087Z" fill="url(#paint14_linear_0_7)"/>
<path fill-rule="evenodd" clip-rule="evenodd" d="M29.4609 36.5001L29.7768 36.3673C29.9625 36.1682 30.0762 35.9008 30.0762 35.607C30.0762 35.4642 30.0493 35.3276 30.0004 35.2021C29.8999 34.9443 29.7063 34.7332 29.4609 34.6099C29.3106 34.5344 29.1408 34.4919 28.961 34.4919C28.7861 34.4919 28.6206 34.5321 28.4733 34.6039C28.1019 34.7848 27.8459 35.166 27.8459 35.607C27.8459 35.7707 27.8811 35.9261 27.9445 36.0661C28.0518 36.3034 28.2397 36.4963 28.4733 36.6101V38.8735L29.3823 39.2754L29.4609 39.3102L33.205 40.9659V42.7888L37.5067 45.4373L40.8474 43.3805L40.9561 43.3136L41.835 42.7724V32.3386L40.8474 32.776V42.2207L37.5067 44.2775L34.1926 42.2371V38.5262C34.5608 38.3441 34.814 37.9647 34.814 37.5261C34.814 37.0875 34.5608 36.7081 34.1926 36.526C34.0438 36.4523 33.8761 36.411 33.6988 36.411C33.5215 36.411 33.3539 36.4523 33.205 36.526C32.8368 36.7081 32.5837 37.0875 32.5837 37.5261C32.5837 37.9647 32.8368 38.3441 33.205 38.5262V39.886L29.4609 38.2303V36.6041V36.5001Z" fill="url(#paint15_linear_0_7)"/>
<path fill-rule="evenodd" clip-rule="evenodd" d="M58.9175 34.8686C59.0273 34.6689 59.1966 34.5064 59.4015 34.4051V24.9502L51.9174 21.6407L51.8667 21.6182L47.8803 19.8554V16.0658C47.5051 15.8862 47.2459 15.503 47.2459 15.0593C47.2459 14.6155 47.5051 14.2323 47.8803 14.0528C47.8997 14.0435 47.9194 14.0348 47.9393 14.0266C48.0694 13.9735 48.2118 13.9441 48.361 13.9441C48.5435 13.9441 48.7158 13.988 48.8679 14.0657C49.1169 14.193 49.3117 14.4111 49.4087 14.6764C49.4523 14.7958 49.4762 14.9248 49.4762 15.0593C49.4762 15.4926 49.229 15.8683 48.8679 16.0528V19.2123L52.905 20.9975L53.1188 21.0921L60.3891 24.307V34.4051C60.541 34.4802 60.6733 34.5889 60.7763 34.7215C60.923 34.9103 61.0104 35.1475 61.0104 35.4052C61.0104 35.8438 60.7572 36.2232 60.3891 36.4053C60.2402 36.479 60.0726 36.5204 59.8953 36.5204C59.718 36.5204 59.5503 36.479 59.4015 36.4053C59.2343 36.3226 59.0908 36.1992 58.984 36.0481C58.8556 35.8664 58.7801 35.6446 58.7801 35.4052C58.7801 35.2107 58.8299 35.0278 58.9175 34.8686Z" fill="url(#paint16_linear_0_7)"/>
<path fill-rule="evenodd" clip-rule="evenodd" d="M26.7086 31.1584V21.7034C26.9134 21.6021 27.0827 21.4396 27.1925 21.2399C27.2801 21.0807 27.3299 20.8978 27.3299 20.7033C27.3299 20.4639 27.2545 20.2421 27.1261 20.0604C27.0192 19.9093 26.8758 19.7859 26.7086 19.7032C26.5597 19.6295 26.3921 19.5882 26.2148 19.5882C26.0375 19.5882 25.8698 19.6295 25.721 19.7032C25.3528 19.8853 25.0996 20.2647 25.0996 20.7033C25.0996 20.961 25.187 21.1982 25.3337 21.387C25.4368 21.5196 25.5691 21.6283 25.721 21.7034V31.8015L32.9913 35.0165L33.205 35.111L37.2421 36.8962V40.0557C36.8811 40.2402 36.6339 40.6159 36.6339 41.0492C36.6339 41.1837 36.6577 41.3127 36.7014 41.4321C36.7983 41.6974 36.9932 41.9155 37.2421 42.0428C37.3942 42.1205 37.5665 42.1644 37.749 42.1644C37.8982 42.1644 38.0406 42.1351 38.1707 42.0819C38.1907 42.0737 38.2104 42.065 38.2297 42.0557C38.605 41.8762 38.8642 41.493 38.8642 41.0492C38.8642 40.6055 38.605 40.2223 38.2297 40.0427V36.2531L34.2433 34.4903L34.1926 34.4678L26.7086 31.1584Z" fill="url(#paint17_linear_0_7)"/>
<path d="M29.4609 36.5001L29.4273 36.42L29.3741 36.4424V36.5001H29.4609ZM56.6491 19.6084L56.6828 19.6885L56.736 19.6661V19.6084H56.6491ZM45.154 12.7949L45.1084 12.721L44.9678 12.8075L45.1188 12.8743L45.154 12.7949ZM45.2626 12.728H45.3495V12.5726L45.2171 12.6541L45.2626 12.728ZM45.2626 12.843L45.2275 12.9224L45.3495 12.9763V12.843H45.2626ZM29.7768 36.3673L29.7431 36.2873L29.4273 36.42L29.4609 36.5001L29.4946 36.5802L29.8104 36.4474L29.7768 36.3673ZM29.4609 36.5001H29.3741V36.6041H29.4609H29.5478V36.5001H29.4609ZM29.3823 39.2754L29.3472 39.3549L29.4258 39.3896L29.4609 39.3102L29.496 39.2308L29.4174 39.196L29.3823 39.2754ZM56.3333 19.7412L56.3669 19.8212L56.6828 19.6885L56.6491 19.6084L56.6155 19.5283L56.2996 19.6611L56.3333 19.7412ZM56.6491 19.6084H56.736V19.5044H56.6491H56.5623V19.6084H56.6491ZM45.154 12.7949L45.1995 12.8689L45.3082 12.802L45.2626 12.728L45.2171 12.6541L45.1084 12.721L45.154 12.7949ZM45.2626 12.728H45.1758V12.843H45.2626H45.3495V12.728H45.2626ZM45.2626 12.843L45.2977 12.7635L45.1891 12.7155L45.154 12.7949L45.1188 12.8743L45.2275 12.9224L45.2626 12.843ZM47.8803 14.0528L47.9178 14.1311C47.9357 14.1226 47.9538 14.1145 47.9722 14.107L47.9393 14.0266L47.9065 13.9462C47.8849 13.955 47.8637 13.9645 47.8428 13.9744L47.8803 14.0528ZM56.7277 16.8331L56.7629 16.7536L56.6843 16.7189L56.6491 16.7983L56.614 16.8777L56.6926 16.9125L56.7277 16.8331ZM29.4609 36.6041L29.3829 36.4489L29.2872 36.497V36.6041H29.4609ZM29.7768 36.3673L29.6497 36.2489L29.6497 36.2489L29.7768 36.3673ZM29.4609 39.3238L29.3698 39.4717L29.6346 39.6348V39.3238H29.4609ZM29.3823 39.2754L29.4734 39.1275L29.4633 39.1213L29.4525 39.1166L29.3823 39.2754ZM29.4609 39.3102L29.5312 39.1513L29.2872 39.0435V39.3102H29.4609ZM34.4344 32.1447L34.3198 32.0142L34.3198 32.0142L34.4344 32.1447ZM34.8115 31.2318L34.6382 31.2433L34.6382 31.2433L34.8115 31.2318ZM34.1926 30.3065L34.2696 30.1508L34.2696 30.1508L34.1926 30.3065ZM33.205 30.3065L33.128 30.1508L33.128 30.1508L33.205 30.3065ZM32.9378 30.4915L32.874 30.653L32.9761 30.6934L33.0564 30.6184L32.9378 30.4915ZM29.4609 29.1177H29.2872V29.2359L29.3971 29.2793L29.4609 29.1177ZM29.4609 19.561L29.3576 19.4214L29.2872 19.4734V19.561H29.4609ZM30.4062 18.8613L30.4798 18.704L30.3861 18.6601L30.3029 18.7217L30.4062 18.8613ZM31.9826 17.6946L31.8105 17.7187L31.8105 17.7187L31.9826 17.6946ZM31.425 16.8786L31.3397 17.0299L31.3397 17.0299L31.425 16.8786ZM29.7888 18.0896L29.8921 18.2292L29.9824 18.1624L29.9585 18.0526L29.7888 18.0896ZM28.4733 19.0633L28.37 18.9236L28.2996 18.9757V19.0633H28.4733ZM28.4733 29.7894H28.2996V29.9076L28.4095 29.951L28.4733 29.7894ZM32.5889 31.4155L32.7618 31.3988L32.7516 31.293L32.6527 31.254L32.5889 31.4155ZM33.205 32.3067L33.282 32.151L33.282 32.151L33.205 32.3067ZM34.1926 32.3067L34.2696 32.4624L34.2696 32.4624L34.1926 32.3067ZM37.506 10.6712L37.5997 10.5249L37.506 10.4649L37.4122 10.5249L37.506 10.6712ZM33.205 13.4281L33.1113 13.2819L33.0313 13.3331V13.4281H33.205ZM33.205 16.9628L33.282 17.1185L33.3787 17.0706V16.9628H33.205ZM33.205 18.963L33.282 18.8073L33.282 18.8073L33.205 18.963ZM34.1926 18.963L34.2696 19.1187L34.2696 19.1187L34.1926 18.963ZM34.1926 16.9628H34.0189V17.0706L34.1156 17.1184L34.1926 16.9628ZM34.1926 13.9681L34.0989 13.8219L34.0189 13.8731V13.9681H34.1926ZM37.506 11.8443L37.5997 11.698L37.506 11.6379L37.4122 11.698L37.506 11.8443ZM40.8474 13.9861H41.0211V13.8912L40.9412 13.8399L40.8474 13.9861ZM40.8474 17.2923L40.9272 17.4466L41.0211 17.398V17.2923H40.8474ZM40.8474 19.2745L40.7676 19.4287L40.7676 19.4287L40.8474 19.2745ZM41.835 19.2922L41.7608 19.1352L41.7608 19.1352L41.835 19.2922ZM41.835 17.2746H41.6613V17.3846L41.7608 17.4317L41.835 17.2746ZM41.835 13.4461H42.0087V13.3511L41.9288 13.2999L41.835 13.4461ZM41.835 31.2998L41.9023 31.46L42.0087 31.4152V31.2998H41.835ZM41.835 25.0935L41.7608 24.9365L41.6613 24.9835V25.0935H41.835ZM41.835 23.0759L41.7608 23.233L41.7608 23.233L41.835 23.0759ZM40.8474 23.0937L40.7676 22.9394L40.7676 22.9394L40.8474 23.0937ZM40.8474 25.0758H41.0211V24.9701L40.9272 24.9215L40.8474 25.0758ZM40.8474 30.6436L40.9147 30.8037L41.0211 30.759V30.6436H40.8474ZM38.2297 31.7437H38.056V32.0051L38.297 31.9038L38.2297 31.7437ZM38.2297 16.1335L38.1548 15.9768L38.056 16.0241V16.1335H38.2297ZM38.2297 14.1205L38.1548 14.2772L38.1548 14.2772L38.2297 14.1205ZM37.2421 14.1335L37.3212 14.2881L37.3212 14.2881L37.2421 14.1335ZM37.2421 16.1206H37.4158V16.0143L37.3212 15.9659L37.2421 16.1206ZM37.2421 28.5222L37.1783 28.6837L37.4158 28.7776V28.5222H37.2421ZM34.1926 27.3173H34.0189V27.4354L34.1288 27.4788L34.1926 27.3173ZM34.1926 23.6265L34.1156 23.4708L34.0189 23.5187V23.6265H34.1926ZM34.1926 21.6263L34.2696 21.4706L34.2696 21.4706L34.1926 21.6263ZM33.205 21.6263L33.282 21.782L33.282 21.782L33.205 21.6263ZM33.205 23.6265H33.3787V23.5187L33.282 23.4708L33.205 23.6265ZM33.205 27.989H33.0313V28.1071L33.1412 28.1505L33.205 27.989ZM37.2421 29.5841H37.4158V29.4659L37.306 29.4225L37.2421 29.5841ZM37.2421 34.7562H37.0684V34.8693L37.1719 34.9151L37.2421 34.7562ZM38.2297 35.1928L38.1595 35.3517L38.4034 35.4595V35.1928H38.2297ZM38.2297 32.815L38.1624 32.6548L38.056 32.6995V32.815H38.2297ZM56.6491 19.5044L56.7271 19.6596L56.8228 19.6115V19.5044H56.6491ZM56.3333 19.7412L56.4603 19.8596L56.4603 19.8596L56.3333 19.7412ZM47.9393 14.0266L47.8691 14.1855L47.9367 14.2154L48.0051 14.1874L47.9393 14.0266ZM47.8803 14.0005L47.9505 13.8417L47.7066 13.7338V14.0005H47.8803ZM47.8803 14.0528L47.9553 14.2095L48.054 14.1622V14.0528H47.8803ZM56.6491 16.7847L56.7402 16.6368L56.4754 16.4737V16.7847H56.6491ZM56.7277 16.8331L56.6367 16.981L56.6467 16.9872L56.6575 16.9919L56.7277 16.8331ZM56.6491 16.7983L56.5789 16.9572L56.8228 17.065V16.7983H56.6491ZM51.6756 23.9638L51.7902 24.0943L51.7902 24.0943L51.6756 23.9638ZM51.2986 24.8767L51.4719 24.8652L51.4719 24.8652L51.2986 24.8767ZM51.9174 25.8021L51.8404 25.9577L51.8404 25.9577L51.9174 25.8021ZM52.905 25.802L52.9821 25.9577L52.9821 25.9577L52.905 25.802ZM53.1723 25.617L53.2361 25.4555L53.1339 25.4151L53.0537 25.4901L53.1723 25.617ZM56.6491 26.9908H56.8228V26.8726L56.713 26.8292L56.6491 26.9908ZM56.6491 36.5475L56.7525 36.6872L56.8228 36.6351V36.5475H56.6491ZM55.7038 37.2472L55.6302 37.4045L55.724 37.4484L55.8072 37.3868L55.7038 37.2472ZM54.1275 38.4139L54.2995 38.3898L54.2995 38.3898L54.1275 38.4139ZM54.685 39.2299L54.7703 39.0786L54.7703 39.0786L54.685 39.2299ZM56.3213 38.0189L56.2179 37.8793L56.1276 37.9461L56.1516 38.0559L56.3213 38.0189ZM57.6367 37.0452L57.7401 37.1849L57.8104 37.1328V37.0452H57.6367ZM57.6367 26.3191H57.8104V26.2009L57.7006 26.1575L57.6367 26.3191ZM53.5211 24.693L53.3482 24.7097L53.3585 24.8155L53.4573 24.8545L53.5211 24.693ZM52.905 23.8018L52.828 23.9575L52.828 23.9575L52.905 23.8018ZM51.9174 23.8018L51.8404 23.6461L51.8404 23.6461L51.9174 23.8018ZM56.1096 20.9064L56.2715 20.8433L56.2715 20.8433L56.1096 20.9064ZM56.6491 21.4986L56.7271 21.3434L56.7271 21.3434L56.6491 21.4986ZM57.6367 21.5046L57.5607 21.3485L57.5607 21.3485L57.6367 21.5046ZM58.1656 20.0424L58.3238 19.9708L58.3238 19.9708L58.1656 20.0424ZM57.6367 19.4984H57.463V19.607L57.5607 19.6545L57.6367 19.4984ZM57.6367 17.235H57.8104V17.1219L57.707 17.0762L57.6367 17.235ZM52.905 15.1426H52.7313V15.2558L52.8348 15.3015L52.905 15.1426ZM52.905 13.3197H53.0787V13.2227L52.9961 13.1718L52.905 13.3197ZM48.6033 10.6712L48.6944 10.5233L48.6033 10.4672L48.5123 10.5233L48.6033 10.6712ZM44.275 13.3361L44.184 13.1882L44.1013 13.239V13.3361H44.275ZM44.275 23.7699H44.1013V24.0368L44.3454 23.9287L44.275 23.7699ZM45.2626 23.3326L45.3329 23.4914L45.4363 23.4456V23.3326H45.2626ZM45.2626 13.8878L45.1716 13.7399L45.0889 13.7908V13.8878H45.2626ZM48.6033 11.831L48.6944 11.683L48.6033 11.627L48.5123 11.683L48.6033 11.831ZM51.9174 13.8714H52.0911V13.7744L52.0085 13.7235L51.9174 13.8714ZM51.9174 17.5823L51.9945 17.738L52.0911 17.6901V17.5823H51.9174ZM51.9174 19.5825L51.8404 19.7382L51.8404 19.7382L51.9174 19.5825ZM52.905 19.5825L52.828 19.4268L52.828 19.4268L52.905 19.5825ZM52.905 17.5823H52.7313V17.6901L52.828 17.738L52.905 17.5823ZM52.905 16.2225L52.9753 16.0636L52.7313 15.9558V16.2225H52.905ZM56.6491 17.8782H56.8228V17.765L56.7194 17.7193L56.6491 17.8782ZM48.6041 45.4373L48.5103 45.5836L48.6041 45.6436L48.6978 45.5836L48.6041 45.4373ZM52.905 42.6804L52.9988 42.8266L53.0787 42.7754V42.6804H52.905ZM52.905 39.1457L52.828 38.9901L52.7313 39.0379V39.1457H52.905ZM52.905 37.1455L52.828 37.3012L52.828 37.3012L52.905 37.1455ZM51.9174 37.1455L51.8404 36.9898L51.8404 36.9898L51.9174 37.1455ZM51.9174 39.1458H52.0911V39.0379L51.9945 38.9901L51.9174 39.1458ZM51.9174 42.1404L52.0112 42.2866L52.0911 42.2354V42.1404H51.9174ZM48.6041 44.2642L48.5103 44.4105L48.6041 44.4706L48.6978 44.4105L48.6041 44.2642ZM45.2626 42.1224H45.0889V42.2173L45.1689 42.2686L45.2626 42.1224ZM45.2626 38.8162L45.1828 38.6619L45.0889 38.7105V38.8162H45.2626ZM45.2626 36.834L45.3424 36.6798L45.3424 36.6798L45.2626 36.834ZM44.275 36.8163L44.3492 36.9734L44.3492 36.9734L44.275 36.8163ZM44.275 38.8339H44.4487V38.7239L44.3492 38.6768L44.275 38.8339ZM44.275 42.6624H44.1013V42.7574L44.1813 42.8086L44.275 42.6624ZM44.275 24.8087L44.2077 24.6485L44.1013 24.6933V24.8087H44.275ZM44.275 31.015L44.3492 31.172L44.4487 31.125V31.015H44.275ZM44.275 33.0326L44.3492 32.8755L44.3492 32.8755L44.275 33.0326ZM45.2626 33.0148L45.3424 33.1691L45.3424 33.1691L45.2626 33.0148ZM45.2626 31.0327H45.0889V31.1384L45.1828 31.187L45.2626 31.0327ZM45.2626 25.4649L45.1953 25.3048L45.0889 25.3495V25.4649H45.2626ZM47.8803 24.3648H48.054V24.1034L47.813 24.2047L47.8803 24.3648ZM47.8803 39.975L47.9553 40.1317L48.054 40.0844V39.975H47.8803ZM47.8803 41.988L47.9553 41.8313L47.9553 41.8313L47.8803 41.988ZM48.8679 41.9751L48.7888 41.8204L48.7888 41.8204L48.8679 41.9751ZM48.8679 39.988H48.6942V40.0942L48.7888 40.1426L48.8679 39.988ZM48.8679 27.5863L48.9317 27.4248L48.6942 27.3309V27.5863H48.8679ZM51.9174 28.7912H52.0911V28.6731L51.9813 28.6297L51.9174 28.7912ZM51.9174 32.482L51.9945 32.6377L52.0911 32.5898V32.482H51.9174ZM51.9174 34.4822L51.8404 34.6379L51.8404 34.6379L51.9174 34.4822ZM52.905 34.4822L52.828 34.3266L52.828 34.3266L52.905 34.4822ZM52.905 32.482H52.7313V32.5898L52.828 32.6377L52.905 32.482ZM52.905 28.1195H53.0787V28.0014L52.9689 27.958L52.905 28.1195ZM48.8679 26.5244H48.6942V26.6426L48.8041 26.686L48.8679 26.5244ZM48.8679 21.3523H49.0416V21.2392L48.9381 21.1934L48.8679 21.3523ZM47.8803 20.9157L47.9505 20.7568L47.7066 20.649V20.9157H47.8803ZM47.8803 23.2935L47.9476 23.4537L48.054 23.409V23.2935H47.8803ZM30.0004 35.2021L29.8386 35.2652L29.8386 35.2652L30.0004 35.2021ZM29.4609 34.6099L29.3829 34.7651L29.3829 34.7651L29.4609 34.6099ZM28.4733 34.6039L28.5494 34.76L28.5494 34.76L28.4733 34.6039ZM27.9445 36.0661L27.7862 36.1377L27.7862 36.1377L27.9445 36.0661ZM28.4733 36.6101H28.647V36.5015L28.5494 36.454L28.4733 36.6101ZM28.4733 38.8735H28.2996V38.9866L28.4031 39.0323L28.4733 38.8735ZM33.205 40.9659H33.3787V40.8527L33.2753 40.807L33.205 40.9659ZM33.205 42.7888H33.0313V42.8858L33.1139 42.9367L33.205 42.7888ZM37.5067 45.4373L37.4156 45.5852L37.5067 45.6413L37.5978 45.5852L37.5067 45.4373ZM40.8474 43.3805L40.7564 43.2326L40.7564 43.2326L40.8474 43.3805ZM40.9561 43.3136L41.0471 43.4615L41.0471 43.4615L40.9561 43.3136ZM41.835 42.7724L41.9261 42.9203L42.0087 42.8695V42.7724H41.835ZM41.835 32.3386H42.0087V32.0718L41.7647 32.1798L41.835 32.3386ZM40.8474 32.776L40.7771 32.6171L40.6737 32.6629V32.776H40.8474ZM40.8474 42.2207L40.9385 42.3686L41.0211 42.3178V42.2207H40.8474ZM37.5067 44.2775L37.4156 44.4255L37.5067 44.4815L37.5978 44.4255L37.5067 44.2775ZM34.1926 42.2371H34.0189V42.3341L34.1015 42.385L34.1926 42.2371ZM34.1926 38.5262L34.1156 38.3705L34.0189 38.4184V38.5262H34.1926ZM34.1926 36.526L34.2696 36.3703L34.2696 36.3703L34.1926 36.526ZM33.205 36.526L33.282 36.6817L33.282 36.6817L33.205 36.526ZM33.205 38.5262H33.3787V38.4184L33.282 38.3705L33.205 38.5262ZM33.205 39.886L33.1348 40.0449L33.3787 40.1527V39.886H33.205ZM29.4609 38.2303H29.2872V38.3435L29.3907 38.3892L29.4609 38.2303ZM58.9175 34.8686L58.7653 34.7849L58.7653 34.7849L58.9175 34.8686ZM59.4015 34.4051L59.4785 34.5608L59.5752 34.5129V34.4051H59.4015ZM59.4015 24.9502H59.5752V24.837L59.4717 24.7913L59.4015 24.9502ZM51.9174 21.6407L51.8472 21.7995L51.8472 21.7995L51.9174 21.6407ZM51.8667 21.6182L51.937 21.4594L51.937 21.4594L51.8667 21.6182ZM47.8803 19.8554H47.7066V19.9685L47.8101 20.0143L47.8803 19.8554ZM47.8803 16.0658H48.054V15.9563L47.9553 15.9091L47.8803 16.0658ZM48.8679 14.0657L48.7888 14.2204L48.7888 14.2204L48.8679 14.0657ZM49.4087 14.6764L49.2455 14.736L49.2455 14.736L49.4087 14.6764ZM48.8679 16.0528L48.7888 15.8982L48.6942 15.9466V16.0528H48.8679ZM48.8679 19.2123H48.6942V19.3254L48.7977 19.3711L48.8679 19.2123ZM52.905 20.9975L52.9753 20.8387L52.9753 20.8387L52.905 20.9975ZM53.1188 21.0921L53.0485 21.2509L53.0485 21.2509L53.1188 21.0921ZM60.3891 24.307H60.5628V24.1939L60.4593 24.1482L60.3891 24.307ZM60.3891 34.4051H60.2154V34.5129L60.3121 34.5608L60.3891 34.4051ZM60.7763 34.7215L60.6391 34.8281L60.6391 34.8281L60.7763 34.7215ZM60.3891 36.4053L60.3121 36.2496L60.3121 36.2496L60.3891 36.4053ZM59.4015 36.4053L59.3245 36.561L59.3245 36.561L59.4015 36.4053ZM58.984 36.0481L58.8421 36.1483L58.8421 36.1483L58.984 36.0481ZM26.7086 31.1584H26.5349V31.2715L26.6383 31.3172L26.7086 31.1584ZM26.7086 21.7034L26.6315 21.5477L26.5349 21.5956V21.7034H26.7086ZM27.1925 21.2399L27.0403 21.1562L27.0403 21.1562L27.1925 21.2399ZM27.1261 20.0604L27.2679 19.9602L27.2679 19.9602L27.1261 20.0604ZM26.7086 19.7032L26.7856 19.5475L26.7856 19.5475L26.7086 19.7032ZM25.721 19.7032L25.798 19.8589L25.798 19.8589L25.721 19.7032ZM25.3337 21.387L25.1966 21.4936L25.1966 21.4936L25.3337 21.387ZM25.721 21.7034H25.8947V21.5956L25.798 21.5477L25.721 21.7034ZM25.721 31.8015H25.5473V31.9146L25.6507 31.9603L25.721 31.8015ZM32.9913 35.0165L33.0615 34.8576L33.0615 34.8576L32.9913 35.0165ZM33.205 35.111L33.1348 35.2698L33.1348 35.2698L33.205 35.111ZM37.2421 36.8962H37.4158V36.7831L37.3124 36.7374L37.2421 36.8962ZM37.2421 40.0557L37.3212 40.2103L37.4158 40.1619V40.0557H37.2421ZM36.7014 41.4321L36.8645 41.3725L36.8645 41.3725L36.7014 41.4321ZM37.2421 42.0428L37.3212 41.8881L37.3212 41.8881L37.2421 42.0428ZM38.1707 42.0819L38.105 41.9211L38.105 41.9211L38.1707 42.0819ZM38.2297 42.0557L38.3047 42.2124L38.3047 42.2124L38.2297 42.0557ZM38.2297 40.0427H38.056V40.1522L38.1548 40.1994L38.2297 40.0427ZM38.2297 36.2531H38.4034V36.14L38.3 36.0942L38.2297 36.2531ZM34.2433 34.4903L34.1731 34.6491L34.1731 34.6491L34.2433 34.4903ZM34.1926 34.4678L34.2629 34.309L34.2629 34.309L34.1926 34.4678ZM29.4609 36.6041L29.5389 36.7593C29.6765 36.6902 29.8 36.5972 29.9038 36.4858L29.7768 36.3673L29.6497 36.2489C29.5737 36.3304 29.4834 36.3984 29.3829 36.4489L29.4609 36.6041ZM29.4609 39.3238L29.552 39.1759L29.4734 39.1275L29.3823 39.2754L29.2912 39.4233L29.3698 39.4717L29.4609 39.3238ZM29.4609 39.3102H29.2872V39.3238H29.4609H29.6346V39.3102H29.4609ZM34.4344 32.1447L34.5491 32.2752C34.8177 32.0393 34.9877 31.6927 34.9877 31.3066H34.814H34.6403C34.6403 31.5886 34.5165 31.8414 34.3198 32.0142L34.4344 32.1447ZM34.814 31.3066H34.9877C34.9877 31.2776 34.9867 31.2488 34.9848 31.2203L34.8115 31.2318L34.6382 31.2433C34.6396 31.2642 34.6403 31.2853 34.6403 31.3066H34.814ZM34.8115 31.2318L34.9848 31.2203C34.9537 30.7499 34.6704 30.349 34.2696 30.1508L34.1926 30.3065L34.1156 30.4621C34.409 30.6073 34.6155 30.9005 34.6382 31.2433L34.8115 31.2318ZM34.1926 30.3065L34.2696 30.1508C34.0974 30.0656 33.9034 30.0177 33.6988 30.0177V30.1914V30.3651C33.8488 30.3651 33.9902 30.4001 34.1156 30.4621L34.1926 30.3065ZM33.6988 30.1914V30.0177C33.4942 30.0177 33.3003 30.0656 33.128 30.1508L33.205 30.3065L33.282 30.4621C33.4075 30.4001 33.5488 30.3651 33.6988 30.3651V30.1914ZM33.205 30.3065L33.128 30.1508C33.0145 30.2069 32.9106 30.2792 32.8192 30.3645L32.9378 30.4915L33.0564 30.6184C33.1233 30.5559 33.1993 30.5031 33.282 30.4621L33.205 30.3065ZM32.9378 30.4915L33.0016 30.3299L29.5247 28.9562L29.4609 29.1177L29.3971 29.2793L32.874 30.653L32.9378 30.4915ZM29.4609 29.1177H29.6346V19.561H29.4609H29.2872V29.1177H29.4609ZM29.4609 19.561L29.5642 19.7006L30.5095 19.0009L30.4062 18.8613L30.3029 18.7217L29.3576 19.4214L29.4609 19.561ZM30.4062 18.8613L30.3326 19.0186C30.4985 19.0963 30.6836 19.1396 30.8783 19.1396V18.9659V18.7922C30.7355 18.7922 30.6006 18.7605 30.4798 18.704L30.4062 18.8613ZM30.8783 18.9659V19.1396C31.5901 19.1396 32.1671 18.5625 32.1671 17.8507H31.9934H31.8197C31.8197 18.3707 31.3982 18.7922 30.8783 18.7922V18.9659ZM31.9934 17.8507H32.1671C32.1671 17.7896 32.1628 17.7294 32.1546 17.6705L31.9826 17.6946L31.8105 17.7187C31.8166 17.7617 31.8197 17.8058 31.8197 17.8507H31.9934ZM31.9826 17.6946L32.1546 17.6705C32.0977 17.2646 31.8522 16.92 31.5103 16.7272L31.425 16.8786L31.3397 17.0299C31.5901 17.171 31.7691 17.4231 31.8105 17.7187L31.9826 17.6946ZM31.425 16.8786L31.5103 16.7272C31.3234 16.6219 31.1076 16.5619 30.8783 16.5619V16.7356V16.9093C31.0463 16.9093 31.2035 16.9531 31.3397 17.0299L31.425 16.8786ZM30.8783 16.7356V16.5619C30.1665 16.5619 29.5894 17.1389 29.5894 17.8507H29.7631H29.9368C29.9368 17.3308 30.3583 16.9093 30.8783 16.9093V16.7356ZM29.7631 17.8507H29.5894C29.5894 17.9452 29.5996 18.0376 29.6191 18.1267L29.7888 18.0896L29.9585 18.0526C29.9443 17.9877 29.9368 17.9202 29.9368 17.8507H29.7631ZM29.7888 18.0896L29.6854 17.95L28.37 18.9236L28.4733 19.0633L28.5767 19.2029L29.8921 18.2292L29.7888 18.0896ZM28.4733 19.0633H28.2996V29.7894H28.4733H28.647V19.0633H28.4733ZM28.4733 29.7894L28.4095 29.951L32.5251 31.5771L32.5889 31.4155L32.6527 31.254L28.5371 29.6279L28.4733 29.7894ZM32.5889 31.4155L32.416 31.4323C32.46 31.8857 32.7385 32.2697 33.128 32.4624L33.205 32.3067L33.282 32.151C32.9969 32.01 32.7938 31.729 32.7618 31.3988L32.5889 31.4155ZM33.205 32.3067L33.128 32.4624C33.3003 32.5476 33.4942 32.5954 33.6988 32.5954V32.4217V32.248C33.5488 32.248 33.4075 32.2131 33.282 32.151L33.205 32.3067ZM33.6988 32.4217V32.5954C33.9034 32.5954 34.0974 32.5476 34.2696 32.4624L34.1926 32.3067L34.1156 32.151C33.9902 32.2131 33.8488 32.248 33.6988 32.248V32.4217ZM34.1926 32.3067L34.2696 32.4624C34.3711 32.4122 34.465 32.3491 34.5491 32.2752L34.4344 32.1447L34.3198 32.0142C34.2582 32.0683 34.1896 32.1144 34.1156 32.151L34.1926 32.3067ZM37.506 10.6712L37.4122 10.5249L33.1113 13.2819L33.205 13.4281L33.2987 13.5743L37.5997 10.8174L37.506 10.6712ZM33.205 13.4281H33.0313V16.9628H33.205H33.3787V13.4281H33.205ZM33.205 16.9628L33.128 16.8071C32.7029 17.0174 32.41 17.4558 32.41 17.9629H32.5837H32.7574C32.7574 17.5929 32.9708 17.2724 33.282 17.1185L33.205 16.9628ZM32.5837 17.9629H32.41C32.41 18.47 32.7029 18.9084 33.128 19.1187L33.205 18.963L33.282 18.8073C32.9708 18.6534 32.7574 18.3329 32.7574 17.9629H32.5837ZM33.205 18.963L33.128 19.1187C33.3003 19.2039 33.4942 19.2517 33.6988 19.2517V19.078V18.9043C33.5488 18.9043 33.4075 18.8694 33.282 18.8073L33.205 18.963ZM33.6988 19.078V19.2517C33.9034 19.2517 34.0974 19.2039 34.2696 19.1187L34.1926 18.963L34.1156 18.8073C33.9902 18.8694 33.8488 18.9043 33.6988 18.9043V19.078ZM34.1926 18.963L34.2696 19.1187C34.6947 18.9084 34.9877 18.47 34.9877 17.9629H34.814H34.6403C34.6403 18.3329 34.4268 18.6534 34.1156 18.8073L34.1926 18.963ZM34.814 17.9629H34.9877C34.9877 17.4558 34.6947 17.0173 34.2696 16.8071L34.1926 16.9628L34.1156 17.1184C34.4268 17.2724 34.6403 17.5929 34.6403 17.9629H34.814ZM34.1926 16.9628H34.3663V13.9681H34.1926H34.0189V16.9628H34.1926ZM34.1926 13.9681L34.2863 14.1144L37.5997 11.9905L37.506 11.8443L37.4122 11.698L34.0989 13.8219L34.1926 13.9681ZM37.506 11.8443L37.4122 11.9905L40.7537 14.1324L40.8474 13.9861L40.9412 13.8399L37.5997 11.698L37.506 11.8443ZM40.8474 13.9861H40.6737V17.2923H40.8474H41.0211V13.9861H40.8474ZM40.8474 17.2923L40.7676 17.1381C40.3538 17.3522 40.0703 17.7845 40.0703 18.2834H40.244H40.4177C40.4177 17.9194 40.6242 17.6034 40.9272 17.4466L40.8474 17.2923ZM40.244 18.2834H40.0703C40.0703 18.7823 40.3538 19.2146 40.7676 19.4287L40.8474 19.2745L40.9272 19.1202C40.6242 18.9634 40.4177 18.6474 40.4177 18.2834H40.244ZM40.8474 19.2745L40.7676 19.4287C40.9449 19.5205 41.1462 19.5722 41.3591 19.5722V19.3985V19.2248C41.2031 19.2248 41.0564 19.187 40.9272 19.1202L40.8474 19.2745ZM41.3591 19.3985V19.5722C41.5556 19.5722 41.7422 19.5282 41.9092 19.4492L41.835 19.2922L41.7608 19.1352C41.6392 19.1926 41.5032 19.2248 41.3591 19.2248V19.3985ZM41.835 19.2922L41.9092 19.4492C42.3455 19.2431 42.648 18.7987 42.648 18.2834H42.4743H42.3006C42.3006 18.6594 42.0802 18.9842 41.7608 19.1352L41.835 19.2922ZM42.4743 18.2834H42.648C42.648 17.7681 42.3455 17.3237 41.9092 17.1176L41.835 17.2746L41.7608 17.4317C42.0802 17.5826 42.3006 17.9074 42.3006 18.2834H42.4743ZM41.835 17.2746H42.0087V13.4461H41.835H41.6613V17.2746H41.835ZM41.835 13.4461L41.9288 13.2999L37.5997 10.5249L37.506 10.6712L37.4122 10.8174L41.7413 13.5924L41.835 13.4461ZM41.835 31.2998H42.0087V25.0935H41.835H41.6613V31.2998H41.835ZM41.835 25.0935L41.9092 25.2506C42.3455 25.0444 42.648 24.6001 42.648 24.0847H42.4743H42.3006C42.3006 24.4607 42.0802 24.7856 41.7608 24.9365L41.835 25.0935ZM42.4743 24.0847H42.648C42.648 23.5694 42.3455 23.1251 41.9092 22.9189L41.835 23.0759L41.7608 23.233C42.0802 23.3839 42.3006 23.7088 42.3006 24.0847H42.4743ZM41.835 23.0759L41.9092 22.9189C41.7422 22.84 41.5556 22.7959 41.3591 22.7959V22.9696V23.1433C41.5032 23.1433 41.6392 23.1755 41.7608 23.233L41.835 23.0759ZM41.3591 22.9696V22.7959C41.1462 22.7959 40.9449 22.8476 40.7676 22.9394L40.8474 23.0937L40.9272 23.2479C41.0564 23.1811 41.2031 23.1433 41.3591 23.1433V22.9696ZM40.8474 23.0937L40.7676 22.9394C40.3538 23.1535 40.0703 23.5859 40.0703 24.0847H40.244H40.4177C40.4177 23.7208 40.6242 23.4047 40.9272 23.2479L40.8474 23.0937ZM40.244 24.0847H40.0703C40.0703 24.5836 40.3538 25.016 40.7676 25.2301L40.8474 25.0758L40.9272 24.9215C40.6242 24.7647 40.4177 24.4487 40.4177 24.0847H40.244ZM40.8474 25.0758H40.6737V30.6436H40.8474H41.0211V25.0758H40.8474ZM40.8474 30.6436L40.7801 30.4835L38.1624 31.5836L38.2297 31.7437L38.297 31.9038L40.9147 30.8037L40.8474 30.6436ZM38.2297 31.7437H38.4034V16.1335H38.2297H38.056V31.7437H38.2297ZM38.2297 16.1335L38.3047 16.2902C38.738 16.0829 39.0379 15.6401 39.0379 15.127H38.8642H38.6905C38.6905 15.5014 38.472 15.825 38.1548 15.9768L38.2297 16.1335ZM38.8642 15.127H39.0379C39.0379 14.6139 38.738 14.1711 38.3047 13.9638L38.2297 14.1205L38.1548 14.2772C38.472 14.429 38.6905 14.7526 38.6905 15.127H38.8642ZM38.2297 14.1205L38.3047 13.9638C38.1362 13.8832 37.9476 13.8382 37.749 13.8382V14.0119V14.1856C37.8947 14.1856 38.0321 14.2185 38.1548 14.2772L38.2297 14.1205ZM37.749 14.0119V13.8382C37.5384 13.8382 37.3391 13.8888 37.1631 13.9788L37.2421 14.1335L37.3212 14.2881C37.4494 14.2226 37.5946 14.1856 37.749 14.1856V14.0119ZM37.2421 14.1335L37.1631 13.9788C36.7462 14.1919 36.4602 14.6259 36.4602 15.127H36.6339H36.8076C36.8076 14.7614 37.0159 14.4442 37.3212 14.2881L37.2421 14.1335ZM36.6339 15.127H36.4602C36.4602 15.6281 36.7462 16.0621 37.1631 16.2752L37.2421 16.1206L37.3212 15.9659C37.0159 15.8098 36.8076 15.4926 36.8076 15.127H36.6339ZM37.2421 16.1206H37.0684V28.5222H37.2421H37.4158V16.1206H37.2421ZM37.2421 28.5222L37.306 28.3606L34.2564 27.1557L34.1926 27.3173L34.1288 27.4788L37.1783 28.6837L37.2421 28.5222ZM34.1926 27.3173H34.3663V23.6265H34.1926H34.0189V27.3173H34.1926ZM34.1926 23.6265L34.2696 23.7822C34.6947 23.5719 34.9877 23.1335 34.9877 22.6264H34.814H34.6403C34.6403 22.9964 34.4268 23.3169 34.1156 23.4708L34.1926 23.6265ZM34.814 22.6264H34.9877C34.9877 22.1193 34.6947 21.6809 34.2696 21.4706L34.1926 21.6263L34.1156 21.782C34.4268 21.9359 34.6403 22.2564 34.6403 22.6264H34.814ZM34.1926 21.6263L34.2696 21.4706C34.0974 21.3854 33.9034 21.3375 33.6988 21.3375V21.5112V21.6849C33.8488 21.6849 33.9902 21.7199 34.1156 21.782L34.1926 21.6263ZM33.6988 21.5112V21.3375C33.4942 21.3375 33.3003 21.3854 33.128 21.4706L33.205 21.6263L33.282 21.782C33.4075 21.7199 33.5488 21.6849 33.6988 21.6849V21.5112ZM33.205 21.6263L33.128 21.4706C32.7029 21.6809 32.41 22.1193 32.41 22.6264H32.5837H32.7574C32.7574 22.2564 32.9708 21.9359 33.282 21.782L33.205 21.6263ZM32.5837 22.6264H32.41C32.41 23.1335 32.7029 23.5719 33.128 23.7822L33.205 23.6265L33.282 23.4708C32.9708 23.3169 32.7574 22.9964 32.7574 22.6264H32.5837ZM33.205 23.6265H33.0313V27.989H33.205H33.3787V23.6265H33.205ZM33.205 27.989L33.1412 28.1505L37.1783 29.7456L37.2421 29.5841L37.306 29.4225L33.2688 27.8274L33.205 27.989ZM37.2421 29.5841H37.0684V32.1587H37.2421H37.4158V29.5841H37.2421ZM37.2421 32.1587H37.0684V32.1922H37.2421H37.4158V32.1587H37.2421ZM37.2421 32.1922H37.0684V33.23H37.2421H37.4158V32.1922H37.2421ZM37.2421 33.23H37.0684V33.2541H37.2421H37.4158V33.23H37.2421ZM37.2421 33.2541H37.0684V34.7562H37.2421H37.4158V33.2541H37.2421ZM37.2421 34.7562L37.1719 34.9151L38.1595 35.3517L38.2297 35.1928L38.3 35.034L37.3124 34.5973L37.2421 34.7562ZM38.2297 35.1928H38.4034V32.815H38.2297H38.056V35.1928H38.2297ZM38.2297 32.815L38.297 32.9751L41.9023 31.46L41.835 31.2998L41.7677 31.1397L38.1624 32.6548L38.2297 32.815ZM56.6491 19.5044L56.5712 19.3492C56.4335 19.4183 56.3101 19.5113 56.2062 19.6227L56.3333 19.7412L56.4603 19.8596C56.5363 19.7781 56.6266 19.7101 56.7271 19.6596L56.6491 19.5044ZM47.9393 14.0266L48.0096 13.8678L47.9505 13.8417L47.8803 14.0005L47.8101 14.1594L47.8691 14.1855L47.9393 14.0266ZM47.8803 14.0005H47.7066V14.0528H47.8803H48.054V14.0005H47.8803ZM56.6491 16.7847L56.5581 16.9326L56.6367 16.981L56.7277 16.8331L56.8188 16.6852L56.7402 16.6368L56.6491 16.7847ZM56.6491 16.7983H56.8228V16.7847H56.6491H56.4754V16.7983H56.6491ZM51.6756 23.9638L51.561 23.8333C51.2924 24.0692 51.1224 24.4158 51.1224 24.8019H51.2961H51.4698C51.4698 24.5199 51.5935 24.2671 51.7902 24.0943L51.6756 23.9638ZM51.2961 24.8019H51.1224C51.1224 24.8309 51.1233 24.8597 51.1252 24.8882L51.2986 24.8767L51.4719 24.8652C51.4705 24.8443 51.4698 24.8232 51.4698 24.8019H51.2961ZM51.2986 24.8767L51.1252 24.8882C51.1564 25.3586 51.4397 25.7595 51.8404 25.9577L51.9174 25.8021L51.9945 25.6464C51.7011 25.5012 51.4946 25.208 51.4719 24.8652L51.2986 24.8767ZM51.9174 25.8021L51.8404 25.9577C52.0127 26.043 52.2066 26.0908 52.4112 26.0908V25.9171V25.7434C52.2612 25.7434 52.1199 25.7084 51.9944 25.6464L51.9174 25.8021ZM52.4112 25.9171V26.0908C52.6158 26.0908 52.8098 26.043 52.9821 25.9577L52.905 25.802L52.828 25.6464C52.7026 25.7084 52.5612 25.7434 52.4112 25.7434V25.9171ZM52.905 25.802L52.9821 25.9577C53.0955 25.9016 53.1994 25.8293 53.2908 25.744L53.1723 25.617L53.0537 25.4901C52.9868 25.5526 52.9108 25.6054 52.828 25.6464L52.905 25.802ZM53.1723 25.617L53.1084 25.7786L56.5853 27.1523L56.6491 26.9908L56.713 26.8292L53.2361 25.4555L53.1723 25.617ZM56.6491 26.9908H56.4754V36.5475H56.6491H56.8228V26.9908H56.6491ZM56.6491 36.5475L56.5458 36.4079L55.6005 37.1076L55.7038 37.2472L55.8072 37.3868L56.7525 36.6872L56.6491 36.5475ZM55.7038 37.2472L55.7774 37.0899C55.6115 37.0122 55.4265 36.969 55.2318 36.969V37.1427V37.3164C55.3745 37.3164 55.5094 37.348 55.6302 37.4045L55.7038 37.2472ZM55.2318 37.1427V36.969C54.52 36.969 53.9429 37.546 53.9429 38.2578H54.1166H54.2903C54.2903 37.7379 54.7118 37.3164 55.2318 37.3164V37.1427ZM54.1166 38.2578H53.9429C53.9429 38.3189 53.9472 38.3791 53.9555 38.438L54.1275 38.4139L54.2995 38.3898C54.2935 38.3468 54.2903 38.3027 54.2903 38.2578H54.1166ZM54.1275 38.4139L53.9555 38.438C54.0123 38.8439 54.2578 39.1885 54.5998 39.3813L54.685 39.2299L54.7703 39.0786C54.5199 38.9375 54.3409 38.6854 54.2995 38.3898L54.1275 38.4139ZM54.685 39.2299L54.5998 39.3813C54.7867 39.4866 55.0025 39.5466 55.2318 39.5466V39.3729V39.1992C55.0638 39.1992 54.9065 39.1554 54.7703 39.0786L54.685 39.2299ZM55.2318 39.3729V39.5466C55.9436 39.5466 56.5206 38.9696 56.5206 38.2578H56.3469H56.1732C56.1732 38.7777 55.7517 39.1992 55.2318 39.1992V39.3729ZM56.3469 38.2578H56.5206C56.5206 38.1633 56.5104 38.0709 56.491 37.9818L56.3213 38.0189L56.1516 38.0559C56.1657 38.1208 56.1732 38.1883 56.1732 38.2578H56.3469ZM56.3213 38.0189L56.4246 38.1585L57.7401 37.1849L57.6367 37.0452L57.5334 36.9056L56.2179 37.8793L56.3213 38.0189ZM57.6367 37.0452H57.8104V26.3191H57.6367H57.463V37.0452H57.6367ZM57.6367 26.3191L57.7006 26.1575L53.585 24.5314L53.5211 24.693L53.4573 24.8545L57.5729 26.4806L57.6367 26.3191ZM53.5211 24.693L53.694 24.6762C53.6501 24.2228 53.3715 23.8388 52.9821 23.6461L52.905 23.8018L52.828 23.9575C53.1131 24.0985 53.3162 24.3795 53.3482 24.7097L53.5211 24.693ZM52.905 23.8018L52.9821 23.6461C52.8098 23.5609 52.6158 23.5131 52.4112 23.5131V23.6868V23.8605C52.5612 23.8605 52.7026 23.8954 52.828 23.9575L52.905 23.8018ZM52.4112 23.6868V23.5131C52.2066 23.5131 52.0127 23.5609 51.8404 23.6461L51.9174 23.8018L51.9944 23.9575C52.1199 23.8954 52.2612 23.8605 52.4112 23.8605V23.6868ZM51.9174 23.8018L51.8404 23.6461C51.7389 23.6963 51.6451 23.7594 51.561 23.8333L51.6756 23.9638L51.7902 24.0943C51.8518 24.0402 51.9204 23.9941 51.9944 23.9575L51.9174 23.8018ZM56.3333 19.7412L56.2062 19.6227C55.9917 19.8528 55.8602 20.162 55.8602 20.5015H56.0339H56.2076C56.2076 20.2533 56.3033 20.0279 56.4603 19.8596L56.3333 19.7412ZM56.0339 20.5015H55.8602C55.8602 20.6663 55.8912 20.8242 55.9478 20.9695L56.1096 20.9064L56.2715 20.8433C56.2303 20.7376 56.2076 20.6224 56.2076 20.5015H56.0339ZM56.1096 20.9064L55.9478 20.9695C56.064 21.2676 56.2876 21.5114 56.5712 21.6538L56.6491 21.4986L56.7271 21.3434C56.5198 21.2393 56.3563 21.0608 56.2715 20.8433L56.1096 20.9064ZM56.6491 21.4986L56.5712 21.6538C56.7452 21.7412 56.9416 21.7903 57.149 21.7903V21.6166V21.4429C56.997 21.4429 56.8538 21.407 56.7271 21.3434L56.6491 21.4986ZM57.149 21.6166V21.7903C57.3508 21.7903 57.5423 21.7438 57.7128 21.6608L57.6367 21.5046L57.5607 21.3485C57.4365 21.4089 57.297 21.4429 57.149 21.4429V21.6166ZM57.6367 21.5046L57.7128 21.6608C58.1417 21.4518 58.4378 21.0114 58.4378 20.5015H58.2641H58.0904C58.0904 20.8735 57.8747 21.1955 57.5607 21.3485L57.6367 21.5046ZM58.2641 20.5015H58.4378C58.4378 20.3127 58.3971 20.1329 58.3238 19.9708L58.1656 20.0424L58.0073 20.114C58.0607 20.2319 58.0904 20.363 58.0904 20.5015H58.2641ZM58.1656 20.0424L58.3238 19.9708C58.1998 19.6966 57.9827 19.4737 57.7128 19.3422L57.6367 19.4984L57.5607 19.6545C57.7579 19.7506 57.9167 19.9137 58.0073 20.114L58.1656 20.0424ZM57.6367 19.4984H57.8104V17.235H57.6367H57.463V19.4984H57.6367ZM57.6367 17.235L57.707 17.0762L56.798 16.6742L56.7277 16.8331L56.6575 16.9919L57.5665 17.3939L57.6367 17.235ZM56.6491 16.7983L56.7194 16.6394L52.9753 14.9838L52.905 15.1426L52.8348 15.3015L56.5789 16.9572L56.6491 16.7983ZM52.905 15.1426H53.0787V13.3197H52.905H52.7313V15.1426H52.905ZM52.905 13.3197L52.9961 13.1718L48.6944 10.5233L48.6033 10.6712L48.5123 10.8191L52.814 13.4676L52.905 13.3197ZM48.6033 10.6712L48.5123 10.5233L45.1716 12.5801L45.2626 12.728L45.3537 12.8759L48.6944 10.8191L48.6033 10.6712ZM45.154 12.7949L45.0629 12.647L44.184 13.1882L44.275 13.3361L44.3661 13.484L45.245 12.9428L45.154 12.7949ZM44.275 13.3361H44.1013V23.7699H44.275H44.4487V13.3361H44.275ZM44.275 23.7699L44.3454 23.9287L45.3329 23.4914L45.2626 23.3326L45.1923 23.1737L44.2047 23.611L44.275 23.7699ZM45.2626 23.3326H45.4363V13.8878H45.2626H45.0889V23.3326H45.2626ZM45.2626 13.8878L45.3537 14.0357L48.6944 11.9789L48.6033 11.831L48.5123 11.683L45.1716 13.7399L45.2626 13.8878ZM48.6033 11.831L48.5123 11.9789L51.8264 14.0193L51.9174 13.8714L52.0085 13.7235L48.6944 11.683L48.6033 11.831ZM51.9174 13.8714H51.7437V17.5823H51.9174H52.0911V13.8714H51.9174ZM51.9174 17.5823L51.8404 17.4266C51.4153 17.6369 51.1224 18.0753 51.1224 18.5824H51.2961H51.4698C51.4698 18.2124 51.6832 17.8919 51.9945 17.738L51.9174 17.5823ZM51.2961 18.5824H51.1224C51.1224 19.0895 51.4153 19.5279 51.8404 19.7382L51.9174 19.5825L51.9945 19.4268C51.6832 19.2729 51.4698 18.9524 51.4698 18.5824H51.2961ZM51.9174 19.5825L51.8404 19.7382C52.0127 19.8234 52.2066 19.8712 52.4112 19.8712V19.6975V19.5238C52.2612 19.5238 52.1199 19.4889 51.9944 19.4268L51.9174 19.5825ZM52.4112 19.6975V19.8712C52.6158 19.8712 52.8098 19.8234 52.9821 19.7382L52.905 19.5825L52.828 19.4268C52.7026 19.4889 52.5612 19.5238 52.4112 19.5238V19.6975ZM52.905 19.5825L52.9821 19.7382C53.4071 19.5279 53.7001 19.0895 53.7001 18.5824H53.5264H53.3527C53.3527 18.9524 53.1393 19.2729 52.828 19.4268L52.905 19.5825ZM53.5264 18.5824H53.7001C53.7001 18.0753 53.4071 17.6369 52.982 17.4266L52.905 17.5823L52.828 17.738C53.1393 17.8919 53.3527 18.2124 53.3527 18.5824H53.5264ZM52.905 17.5823H53.0787V16.2225H52.905H52.7313V17.5823H52.905ZM52.905 16.2225L52.8348 16.3814L56.5789 18.037L56.6491 17.8782L56.7194 17.7193L52.9753 16.0636L52.905 16.2225ZM56.6491 17.8782H56.4754V19.5044H56.6491H56.8228V17.8782H56.6491ZM48.6041 45.4373L48.6978 45.5836L52.9988 42.8266L52.905 42.6804L52.8113 42.5342L48.5103 45.2911L48.6041 45.4373ZM52.905 42.6804H53.0787V39.1457H52.905H52.7313V42.6804H52.905ZM52.905 39.1457L52.9821 39.3014C53.4071 39.0911 53.7001 38.6528 53.7001 38.1456H53.5264H53.3527C53.3527 38.5156 53.1393 38.8361 52.828 38.9901L52.905 39.1457ZM53.5264 38.1456H53.7001C53.7001 37.6385 53.4071 37.2001 52.9821 36.9898L52.905 37.1455L52.828 37.3012C53.1393 37.4551 53.3527 37.7756 53.3527 38.1456H53.5264ZM52.905 37.1455L52.9821 36.9898C52.8098 36.9046 52.6158 36.8568 52.4112 36.8568V37.0305V37.2042C52.5612 37.2042 52.7026 37.2391 52.828 37.3012L52.905 37.1455ZM52.4112 37.0305V36.8568C52.2066 36.8568 52.0127 36.9046 51.8404 36.9898L51.9174 37.1455L51.9944 37.3012C52.1199 37.2391 52.2612 37.2042 52.4112 37.2042V37.0305ZM51.9174 37.1455L51.8404 36.9898C51.4153 37.2001 51.1224 37.6385 51.1224 38.1456H51.2961H51.4698C51.4698 37.7756 51.6832 37.4551 51.9945 37.3012L51.9174 37.1455ZM51.2961 38.1456H51.1224C51.1224 38.6528 51.4153 39.0912 51.8404 39.3014L51.9174 39.1458L51.9945 38.9901C51.6832 38.8361 51.4698 38.5156 51.4698 38.1456H51.2961ZM51.9174 39.1458H51.7437V42.1404H51.9174H52.0911V39.1458H51.9174ZM51.9174 42.1404L51.8237 41.9941L48.5103 44.118L48.6041 44.2642L48.6978 44.4105L52.0112 42.2866L51.9174 42.1404ZM48.6041 44.2642L48.6978 44.118L45.3564 41.9761L45.2626 42.1224L45.1689 42.2686L48.5103 44.4105L48.6041 44.2642ZM45.2626 42.1224H45.4363V38.8162H45.2626H45.0889V42.1224H45.2626ZM45.2626 38.8162L45.3424 38.9704C45.7563 38.7563 46.0398 38.324 46.0398 37.8251H45.8661H45.6924C45.6924 38.1891 45.4858 38.5051 45.1828 38.6619L45.2626 38.8162ZM45.8661 37.8251H46.0398C46.0398 37.3262 45.7563 36.8939 45.3424 36.6798L45.2626 36.834L45.1828 36.9883C45.4858 37.1451 45.6924 37.4611 45.6924 37.8251H45.8661ZM45.2626 36.834L45.3424 36.6798C45.1651 36.588 44.9638 36.5363 44.7509 36.5363V36.71V36.8837C44.9069 36.8837 45.0536 36.9215 45.1828 36.9883L45.2626 36.834ZM44.7509 36.71V36.5363C44.5545 36.5363 44.3679 36.5803 44.2008 36.6593L44.275 36.8163L44.3492 36.9734C44.4709 36.9159 44.6069 36.8837 44.7509 36.8837V36.71ZM44.275 36.8163L44.2008 36.6593C43.7645 36.8654 43.4621 37.3098 43.4621 37.8251H43.6358H43.8095C43.8095 37.4491 44.0298 37.1243 44.3492 36.9734L44.275 36.8163ZM43.6358 37.8251H43.4621C43.4621 38.3404 43.7645 38.7848 44.2008 38.9909L44.275 38.8339L44.3492 38.6768C44.0298 38.5259 43.8095 38.2011 43.8095 37.8251H43.6358ZM44.275 38.8339H44.1013V42.6624H44.275H44.4487V38.8339H44.275ZM44.275 42.6624L44.1813 42.8086L48.5103 45.5836L48.6041 45.4373L48.6978 45.2911L44.3688 42.5161L44.275 42.6624ZM44.275 24.8087H44.1013V31.015H44.275H44.4487V24.8087H44.275ZM44.275 31.015L44.2008 30.8579C43.7645 31.0641 43.4621 31.5084 43.4621 32.0238H43.6358H43.8095C43.8095 31.6478 44.0298 31.323 44.3492 31.172L44.275 31.015ZM43.6358 32.0238H43.4621C43.4621 32.5391 43.7645 32.9834 44.2008 33.1896L44.275 33.0326L44.3492 32.8755C44.0298 32.7246 43.8095 32.3997 43.8095 32.0238H43.6358ZM44.275 33.0326L44.2008 33.1896C44.3679 33.2685 44.5545 33.3126 44.7509 33.3126V33.1389V32.9652C44.6069 32.9652 44.4709 32.933 44.3492 32.8755L44.275 33.0326ZM44.7509 33.1389V33.3126C44.9638 33.3126 45.1651 33.2609 45.3424 33.1691L45.2626 33.0148L45.1828 32.8606C45.0536 32.9274 44.9069 32.9652 44.7509 32.9652V33.1389ZM45.2626 33.0148L45.3424 33.1691C45.7563 32.955 46.0398 32.5226 46.0398 32.0238H45.8661H45.6924C45.6924 32.3877 45.4858 32.7038 45.1828 32.8606L45.2626 33.0148ZM45.8661 32.0238H46.0398C46.0398 31.5249 45.7563 31.0925 45.3424 30.8784L45.2626 31.0327L45.1828 31.187C45.4858 31.3438 45.6924 31.6598 45.6924 32.0238H45.8661ZM45.2626 31.0327H45.4363V25.4649H45.2626H45.0889V31.0327H45.2626ZM45.2626 25.4649L45.3299 25.625L47.9476 24.5249L47.8803 24.3648L47.813 24.2047L45.1953 25.3048L45.2626 25.4649ZM47.8803 24.3648H47.7066V39.975H47.8803H48.054V24.3648H47.8803ZM47.8803 39.975L47.8053 39.8183C47.372 40.0256 47.0722 40.4684 47.0722 40.9815H47.2459H47.4196C47.4196 40.6071 47.6381 40.2835 47.9553 40.1317L47.8803 39.975ZM47.2459 40.9815H47.0722C47.0722 41.4946 47.372 41.9374 47.8053 42.1447L47.8803 41.988L47.9553 41.8313C47.6381 41.6795 47.4196 41.3559 47.4196 40.9815H47.2459ZM47.8803 41.988L47.8053 42.1447C47.9738 42.2253 48.1624 42.2703 48.361 42.2703V42.0966V41.9229C48.2154 41.9229 48.0779 41.89 47.9553 41.8313L47.8803 41.988ZM48.361 42.0966V42.2703C48.5717 42.2703 48.771 42.2197 48.947 42.1297L48.8679 41.9751L48.7888 41.8204C48.6607 41.8859 48.5154 41.9229 48.361 41.9229V42.0966ZM48.8679 41.9751L48.947 42.1297C49.3639 41.9166 49.6499 41.4826 49.6499 40.9815H49.4762H49.3025C49.3025 41.3471 49.0941 41.6643 48.7888 41.8204L48.8679 41.9751ZM49.4762 40.9815H49.6499C49.6499 40.4804 49.3639 40.0464 48.947 39.8333L48.8679 39.988L48.7888 40.1426C49.0941 40.2987 49.3025 40.6159 49.3025 40.9815H49.4762ZM48.8679 39.988H49.0416V27.5863H48.8679H48.6942V39.988H48.8679ZM48.8679 27.5863L48.8041 27.7479L51.8536 28.9528L51.9174 28.7912L51.9813 28.6297L48.9317 27.4248L48.8679 27.5863ZM51.9174 28.7912H51.7437V32.482H51.9174H52.0911V28.7912H51.9174ZM51.9174 32.482L51.8404 32.3263C51.4153 32.5366 51.1224 32.975 51.1224 33.4821H51.2961H51.4698C51.4698 33.1121 51.6832 32.7916 51.9945 32.6377L51.9174 32.482ZM51.2961 33.4821H51.1224C51.1224 33.9893 51.4153 34.4277 51.8404 34.6379L51.9174 34.4822L51.9945 34.3266C51.6832 34.1726 51.4698 33.8521 51.4698 33.4821H51.2961ZM51.9174 34.4822L51.8404 34.6379C52.0127 34.7232 52.2066 34.771 52.4112 34.771V34.5973V34.4236C52.2612 34.4236 52.1199 34.3886 51.9944 34.3266L51.9174 34.4822ZM52.4112 34.5973V34.771C52.6158 34.771 52.8098 34.7232 52.9821 34.6379L52.905 34.4822L52.828 34.3266C52.7026 34.3886 52.5612 34.4236 52.4112 34.4236V34.5973ZM52.905 34.4822L52.9821 34.6379C53.4071 34.4276 53.7001 33.9892 53.7001 33.4821H53.5264H53.3527C53.3527 33.8521 53.1393 34.1726 52.828 34.3266L52.905 34.4822ZM53.5264 33.4821H53.7001C53.7001 32.975 53.4071 32.5366 52.9821 32.3263L52.905 32.482L52.828 32.6377C53.1393 32.7916 53.3527 33.1121 53.3527 33.4821H53.5264ZM52.905 32.482H53.0787V28.1195H52.905H52.7313V32.482H52.905ZM52.905 28.1195L52.9689 27.958L48.9317 26.3629L48.8679 26.5244L48.8041 26.686L52.8412 28.2811L52.905 28.1195ZM48.8679 26.5244H49.0416V23.9498H48.8679H48.6942V26.5244H48.8679ZM48.8679 23.9498H49.0416V23.9163H48.8679H48.6942V23.9498H48.8679ZM48.8679 23.9163H49.0416V22.8785H48.8679H48.6942V23.9163H48.8679ZM48.8679 22.8785H49.0416V22.8545H48.8679H48.6942V22.8785H48.8679ZM48.8679 22.8545H49.0416V21.3523H48.8679H48.6942V22.8545H48.8679ZM48.8679 21.3523L48.9381 21.1934L47.9505 20.7568L47.8803 20.9157L47.8101 21.0745L48.7977 21.5112L48.8679 21.3523ZM47.8803 20.9157H47.7066V23.2935H47.8803H48.054V20.9157H47.8803ZM47.8803 23.2935L47.813 23.1334L44.2077 24.6485L44.275 24.8087L44.3423 24.9688L47.9476 23.4537L47.8803 23.2935ZM29.7768 36.3673L29.9038 36.4858C30.1184 36.2557 30.2499 35.9465 30.2499 35.607H30.0762H29.9025C29.9025 35.8552 29.8067 36.0806 29.6497 36.2489L29.7768 36.3673ZM30.0762 35.607H30.2499C30.2499 35.4422 30.2189 35.2843 30.1622 35.139L30.0004 35.2021L29.8386 35.2652C29.8798 35.3709 29.9025 35.4861 29.9025 35.607H30.0762ZM30.0004 35.2021L30.1622 35.139C30.046 34.841 29.8224 34.5971 29.5389 34.4547L29.4609 34.6099L29.3829 34.7651C29.5902 34.8692 29.7538 35.0477 29.8386 35.2652L30.0004 35.2021ZM29.4609 34.6099L29.5389 34.4547C29.3649 34.3673 29.1684 34.3182 28.961 34.3182V34.4919V34.6656C29.1131 34.6656 29.2562 34.7015 29.3829 34.7651L29.4609 34.6099ZM28.961 34.4919V34.3182C28.7592 34.3182 28.5678 34.3647 28.3972 34.4477L28.4733 34.6039L28.5494 34.76C28.6735 34.6996 28.8131 34.6656 28.961 34.6656V34.4919ZM28.4733 34.6039L28.3972 34.4477C27.9683 34.6567 27.6722 35.0971 27.6722 35.607H27.8459H28.0196C28.0196 35.235 28.2354 34.913 28.5494 34.76L28.4733 34.6039ZM27.8459 35.607H27.6722C27.6722 35.7958 27.7129 35.9756 27.7862 36.1377L27.9445 36.0661L28.1027 35.9945C28.0494 35.8766 28.0196 35.7455 28.0196 35.607H27.8459ZM27.9445 36.0661L27.7862 36.1377C27.9103 36.4119 28.1273 36.6348 28.3972 36.7663L28.4733 36.6101L28.5494 36.454C28.3521 36.3579 28.1933 36.1948 28.1027 35.9945L27.9445 36.0661ZM28.4733 36.6101H28.2996V38.8735H28.4733H28.647V36.6101H28.4733ZM28.4733 38.8735L28.4031 39.0323L29.312 39.4343L29.3823 39.2754L29.4525 39.1166L28.5436 38.7146L28.4733 38.8735ZM29.4609 39.3102L29.3907 39.4691L33.1348 41.1247L33.205 40.9659L33.2753 40.807L29.5312 39.1513L29.4609 39.3102ZM33.205 40.9659H33.0313V42.7888H33.205H33.3787V40.9659H33.205ZM33.205 42.7888L33.1139 42.9367L37.4156 45.5852L37.5067 45.4373L37.5978 45.2894L33.2961 42.6409L33.205 42.7888ZM37.5067 45.4373L37.5978 45.5852L40.9385 43.5284L40.8474 43.3805L40.7564 43.2326L37.4156 45.2894L37.5067 45.4373ZM40.8474 43.3805L40.9385 43.5284L41.0471 43.4615L40.9561 43.3136L40.865 43.1657L40.7564 43.2326L40.8474 43.3805ZM40.9561 43.3136L41.0471 43.4615L41.9261 42.9203L41.835 42.7724L41.7439 42.6245L40.865 43.1657L40.9561 43.3136ZM41.835 42.7724H42.0087V32.3386H41.835H41.6613V42.7724H41.835ZM41.835 32.3386L41.7647 32.1798L40.7771 32.6171L40.8474 32.776L40.9177 32.9348L41.9053 32.4975L41.835 32.3386ZM40.8474 32.776H40.6737V42.2207H40.8474H41.0211V32.776H40.8474ZM40.8474 42.2207L40.7564 42.0728L37.4156 44.1296L37.5067 44.2775L37.5978 44.4255L40.9385 42.3686L40.8474 42.2207ZM37.5067 44.2775L37.5978 44.1296L34.2837 42.0892L34.1926 42.2371L34.1015 42.385L37.4156 44.4255L37.5067 44.2775ZM34.1926 42.2371H34.3663V38.5262H34.1926H34.0189V42.2371H34.1926ZM34.1926 38.5262L34.2696 38.6819C34.6947 38.4716 34.9877 38.0332 34.9877 37.5261H34.814H34.6403C34.6403 37.8961 34.4268 38.2166 34.1156 38.3705L34.1926 38.5262ZM34.814 37.5261H34.9877C34.9877 37.019 34.6947 36.5806 34.2696 36.3703L34.1926 36.526L34.1156 36.6817C34.4268 36.8356 34.6403 37.1561 34.6403 37.5261H34.814ZM34.1926 36.526L34.2696 36.3703C34.0974 36.2851 33.9034 36.2373 33.6988 36.2373V36.411V36.5847C33.8488 36.5847 33.9902 36.6196 34.1156 36.6817L34.1926 36.526ZM33.6988 36.411V36.2373C33.4942 36.2373 33.3003 36.2851 33.128 36.3703L33.205 36.526L33.282 36.6817C33.4075 36.6196 33.5488 36.5847 33.6988 36.5847V36.411ZM33.205 36.526L33.128 36.3703C32.7029 36.5806 32.41 37.019 32.41 37.5261H32.5837H32.7574C32.7574 37.1561 32.9708 36.8356 33.282 36.6817L33.205 36.526ZM32.5837 37.5261H32.41C32.41 38.0332 32.7029 38.4716 33.128 38.6819L33.205 38.5262L33.282 38.3705C32.9708 38.2166 32.7574 37.8961 32.7574 37.5261H32.5837ZM33.205 38.5262H33.0313V39.886H33.205H33.3787V38.5262H33.205ZM33.205 39.886L33.2753 39.7272L29.5312 38.0715L29.4609 38.2303L29.3907 38.3892L33.1348 40.0449L33.205 39.886ZM29.4609 38.2303H29.6346V36.6041H29.4609H29.2872V38.2303H29.4609ZM58.9175 34.8686L59.0697 34.9523C59.1625 34.7836 59.3055 34.6463 59.4785 34.5608L59.4015 34.4051L59.3245 34.2494C59.0877 34.3665 58.8922 34.5541 58.7653 34.7849L58.9175 34.8686ZM59.4015 34.4051H59.5752V24.9502H59.4015H59.2278V34.4051H59.4015ZM59.4015 24.9502L59.4717 24.7913L51.9877 21.4818L51.9174 21.6407L51.8472 21.7995L59.3312 25.109L59.4015 24.9502ZM51.9174 21.6407L51.9877 21.4818L51.937 21.4594L51.8667 21.6182L51.7965 21.7771L51.8472 21.7995L51.9174 21.6407ZM51.8667 21.6182L51.937 21.4594L47.9506 19.6966L47.8803 19.8554L47.8101 20.0143L51.7965 21.7771L51.8667 21.6182ZM47.8803 19.8554H48.054V16.0658H47.8803H47.7066V19.8554H47.8803ZM47.8803 16.0658L47.9553 15.9091C47.6381 15.7573 47.4196 15.4337 47.4196 15.0593H47.2459H47.0722C47.0722 15.5724 47.372 16.0152 47.8053 16.2225L47.8803 16.0658ZM47.2459 15.0593H47.4196C47.4196 14.6849 47.6381 14.3612 47.9553 14.2095L47.8803 14.0528L47.8053 13.8961C47.372 14.1034 47.0722 14.5462 47.0722 15.0593H47.2459ZM47.9393 14.0266L48.0051 14.1874C48.1146 14.1426 48.2347 14.1178 48.361 14.1178V13.9441V13.7704C48.1889 13.7704 48.0242 13.8043 47.8736 13.8658L47.9393 14.0266ZM48.361 13.9441V14.1178C48.5154 14.1178 48.6607 14.1549 48.7888 14.2204L48.8679 14.0657L48.947 13.9111C48.771 13.8211 48.5717 13.7704 48.361 13.7704V13.9441ZM48.8679 14.0657L48.7888 14.2204C48.9992 14.3279 49.1638 14.5123 49.2455 14.736L49.4087 14.6764L49.5718 14.6167C49.4597 14.31 49.2346 14.0581 48.947 13.9111L48.8679 14.0657ZM49.4087 14.6764L49.2455 14.736C49.2823 14.8366 49.3025 14.9454 49.3025 15.0593H49.4762H49.6499C49.6499 14.9041 49.6224 14.755 49.5718 14.6167L49.4087 14.6764ZM49.4762 15.0593H49.3025C49.3025 15.4249 49.0941 15.7421 48.7888 15.8982L48.8679 16.0528L48.947 16.2075C49.3639 15.9944 49.6499 15.5604 49.6499 15.0593H49.4762ZM48.8679 16.0528H48.6942V19.2123H48.8679H49.0416V16.0528H48.8679ZM48.8679 19.2123L48.7977 19.3711L52.8348 21.1564L52.905 20.9975L52.9753 20.8387L48.9382 19.0534L48.8679 19.2123ZM52.905 20.9975L52.8348 21.1564L53.0485 21.2509L53.1188 21.0921L53.189 20.9332L52.9753 20.8387L52.905 20.9975ZM53.1188 21.0921L53.0485 21.2509L60.3188 24.4659L60.3891 24.307L60.4593 24.1482L53.189 20.9332L53.1188 21.0921ZM60.3891 24.307H60.2154V34.4051H60.3891H60.5628V24.307H60.3891ZM60.3891 34.4051L60.3121 34.5608C60.4402 34.6242 60.552 34.716 60.6391 34.8281L60.7763 34.7215L60.9134 34.6149C60.7945 34.4618 60.6417 34.3362 60.4661 34.2494L60.3891 34.4051ZM60.7763 34.7215L60.6391 34.8281C60.763 34.9875 60.8367 35.1875 60.8367 35.4052H61.0104H61.1841C61.1841 35.1076 61.083 34.8331 60.9134 34.6149L60.7763 34.7215ZM61.0104 35.4052H60.8367C60.8367 35.7752 60.6233 36.0957 60.3121 36.2496L60.3891 36.4053L60.4661 36.561C60.8912 36.3507 61.1841 35.9123 61.1841 35.4052H61.0104ZM60.3891 36.4053L60.3121 36.2496C60.1866 36.3117 60.0453 36.3467 59.8953 36.3467V36.5204V36.6941C60.0999 36.6941 60.2938 36.6462 60.4661 36.561L60.3891 36.4053ZM59.8953 36.5204V36.3467C59.7453 36.3467 59.6039 36.3117 59.4785 36.2496L59.4015 36.4053L59.3245 36.561C59.4967 36.6462 59.6907 36.6941 59.8953 36.6941V36.5204ZM59.4015 36.4053L59.4785 36.2496C59.3374 36.1798 59.2161 36.0756 59.1258 35.9478L58.984 36.0481L58.8421 36.1483C58.9655 36.3229 59.1312 36.4654 59.3245 36.561L59.4015 36.4053ZM58.984 36.0481L59.1258 35.9478C59.0175 35.7945 58.9538 35.6075 58.9538 35.4052H58.7801H58.6064C58.6064 35.6817 58.6937 35.9383 58.8421 36.1483L58.984 36.0481ZM58.7801 35.4052H58.9538C58.9538 35.2407 58.9959 35.0865 59.0697 34.9523L58.9175 34.8686L58.7653 34.7849C58.664 34.9691 58.6064 35.1807 58.6064 35.4052H58.7801ZM26.7086 31.1584H26.8823V21.7034H26.7086H26.5349V31.1584H26.7086ZM26.7086 21.7034L26.7856 21.8591C27.0224 21.742 27.2178 21.5544 27.3447 21.3236L27.1925 21.2399L27.0403 21.1562C26.9476 21.3249 26.8045 21.4622 26.6315 21.5477L26.7086 21.7034ZM27.1925 21.2399L27.3447 21.3236C27.446 21.1394 27.5036 20.9278 27.5036 20.7033H27.3299H27.1562C27.1562 20.8678 27.1142 21.022 27.0403 21.1562L27.1925 21.2399ZM27.3299 20.7033H27.5036C27.5036 20.4268 27.4164 20.1702 27.2679 19.9602L27.1261 20.0604L26.9842 20.1607C27.0926 20.314 27.1562 20.501 27.1562 20.7033H27.3299ZM27.1261 20.0604L27.2679 19.9602C27.1446 19.7856 26.9789 19.6431 26.7856 19.5475L26.7086 19.7032L26.6315 19.8589C26.7726 19.9287 26.8939 20.0329 26.9842 20.1607L27.1261 20.0604ZM26.7086 19.7032L26.7856 19.5475C26.6133 19.4623 26.4194 19.4145 26.2148 19.4145V19.5882V19.7619C26.3648 19.7619 26.5061 19.7968 26.6315 19.8589L26.7086 19.7032ZM26.2148 19.5882V19.4145C26.0101 19.4145 25.8162 19.4623 25.6439 19.5475L25.721 19.7032L25.798 19.8589C25.9234 19.7968 26.0648 19.7619 26.2148 19.7619V19.5882ZM25.721 19.7032L25.6439 19.5475C25.2188 19.7578 24.9259 20.1962 24.9259 20.7033H25.0996H25.2733C25.2733 20.3333 25.4867 20.0128 25.798 19.8589L25.721 19.7032ZM25.0996 20.7033H24.9259C24.9259 21.0009 25.027 21.2754 25.1966 21.4936L25.3337 21.387L25.4709 21.2804C25.347 21.121 25.2733 20.921 25.2733 20.7033H25.0996ZM25.3337 21.387L25.1966 21.4936C25.3156 21.6467 25.4684 21.7723 25.6439 21.8591L25.721 21.7034L25.798 21.5477C25.6698 21.4843 25.558 21.3925 25.4709 21.2804L25.3337 21.387ZM25.721 21.7034H25.5473V31.8015H25.721H25.8947V21.7034H25.721ZM25.721 31.8015L25.6507 31.9603L32.921 35.1753L32.9913 35.0165L33.0615 34.8576L25.7912 31.6426L25.721 31.8015ZM32.9913 35.0165L32.921 35.1753L33.1348 35.2698L33.205 35.111L33.2753 34.9521L33.0615 34.8576L32.9913 35.0165ZM33.205 35.111L33.1348 35.2698L37.1719 37.0551L37.2421 36.8962L37.3124 36.7374L33.2753 34.9521L33.205 35.111ZM37.2421 36.8962H37.0684V40.0557H37.2421H37.4158V36.8962H37.2421ZM37.2421 40.0557L37.1631 39.901C36.7462 40.1141 36.4602 40.5481 36.4602 41.0492H36.6339H36.8076C36.8076 40.6836 37.0159 40.3664 37.3212 40.2103L37.2421 40.0557ZM36.6339 41.0492H36.4602C36.4602 41.2044 36.4877 41.3535 36.5382 41.4918L36.7014 41.4321L36.8645 41.3725C36.8277 41.2719 36.8076 41.1631 36.8076 41.0492H36.6339ZM36.7014 41.4321L36.5382 41.4918C36.6504 41.7985 36.8754 42.0504 37.1631 42.1974L37.2421 42.0428L37.3212 41.8881C37.1109 41.7806 36.9463 41.5962 36.8645 41.3725L36.7014 41.4321ZM37.2421 42.0428L37.1631 42.1974C37.3391 42.2874 37.5384 42.3381 37.749 42.3381V42.1644V41.9907C37.5946 41.9907 37.4494 41.9536 37.3212 41.8881L37.2421 42.0428ZM37.749 42.1644V42.3381C37.9212 42.3381 38.0858 42.3042 38.2364 42.2427L38.1707 42.0819L38.105 41.9211C37.9954 41.9659 37.8753 41.9907 37.749 41.9907V42.1644ZM38.1707 42.0819L38.2364 42.2427C38.2595 42.2332 38.2823 42.2231 38.3047 42.2124L38.2297 42.0557L38.1548 41.899C38.1384 41.9068 38.1218 41.9142 38.105 41.9211L38.1707 42.0819ZM38.2297 42.0557L38.3047 42.2124C38.738 42.0051 39.0379 41.5623 39.0379 41.0492H38.8642H38.6905C38.6905 41.4236 38.472 41.7473 38.1548 41.899L38.2297 42.0557ZM38.8642 41.0492H39.0379C39.0379 40.5361 38.738 40.0933 38.3047 39.886L38.2297 40.0427L38.1548 40.1994C38.472 40.3512 38.6905 40.6748 38.6905 41.0492H38.8642ZM38.2297 40.0427H38.4034V36.2531H38.2297H38.056V40.0427H38.2297ZM38.2297 36.2531L38.3 36.0942L34.3136 34.3314L34.2433 34.4903L34.1731 34.6491L38.1595 36.4119L38.2297 36.2531ZM34.2433 34.4903L34.3136 34.3314L34.2629 34.309L34.1926 34.4678L34.1224 34.6267L34.1731 34.6491L34.2433 34.4903ZM34.1926 34.4678L34.2629 34.309L26.7788 30.9995L26.7086 31.1584L26.6383 31.3172L34.1224 34.6267L34.1926 34.4678Z" fill="url(#paint18_linear_0_7)" mask="url(#path-3-outside-1_0_7)"/>
</g>
</g>
<defs>
<filter id="filter0_dddd_0_7" x="0.000306606" y="3.61204e-05" width="70.1097" height="69.1097" filterUnits="userSpaceOnUse" color-interpolation-filters="sRGB">
<feFlood flood-opacity="0" result="BackgroundImageFix"/>
<feColorMatrix in="SourceAlpha" type="matrix" values="0 0 0 0 0 0 0 0 0 0 0 0 0 0 0 0 0 0 127 0" result="hardAlpha"/>
<feOffset dx="-0.999982" dy="0.999982"/>
<feGaussianBlur stdDeviation="0.999982"/>
<feColorMatrix type="matrix" values="0 0 0 0 0 0 0 0 0 0 0 0 0 0 0 0 0 0 0.1 0"/>
<feBlend mode="normal" in2="BackgroundImageFix" result="effect1_dropShadow_0_7"/>
<feColorMatrix in="SourceAlpha" type="matrix" values="0 0 0 0 0 0 0 0 0 0 0 0 0 0 0 0 0 0 127 0" result="hardAlpha"/>
<feOffset dx="-2.99995" dy="1.99996"/>
<feGaussianBlur stdDeviation="1.99996"/>
<feColorMatrix type="matrix" values="0 0 0 0 0 0 0 0 0 0 0 0 0 0 0 0 0 0 0.09 0"/>
<feBlend mode="normal" in2="effect1_dropShadow_0_7" result="effect2_dropShadow_0_7"/>
<feColorMatrix in="SourceAlpha" type="matrix" values="0 0 0 0 0 0 0 0 0 0 0 0 0 0 0 0 0 0 127 0" result="hardAlpha"/>
<feOffset dx="-5.99989" dy="4.99991"/>
<feGaussianBlur stdDeviation="2.49995"/>
<feColorMatrix type="matrix" values="0 0 0 0 0 0 0 0 0 0 0 0 0 0 0 0 0 0 0.05 0"/>
<feBlend mode="normal" in2="effect2_dropShadow_0_7" result="effect3_dropShadow_0_7"/>
<feColorMatrix in="SourceAlpha" type="matrix" values="0 0 0 0 0 0 0 0 0 0 0 0 0 0 0 0 0 0 127 0" result="hardAlpha"/>
<feOffset dx="-10.9998" dy="8.99984"/>
<feGaussianBlur stdDeviation="2.99995"/>
<feColorMatrix type="matrix" values="0 0 0 0 0 0 0 0 0 0 0 0 0 0 0 0 0 0 0.01 0"/>
<feBlend mode="normal" in2="effect3_dropShadow_0_7" result="effect4_dropShadow_0_7"/>
<feBlend mode="normal" in="SourceGraphic" in2="effect4_dropShadow_0_7" result="shape"/>
</filter>
<linearGradient id="paint0_linear_0_7" x1="43.055" y1="10.6712" x2="43.055" y2="45.4373" gradientUnits="userSpaceOnUse">
<stop stop-color="#3C3F2E"/>
<stop offset="1" stop-color="#EA6518"/>
</linearGradient>
<linearGradient id="paint1_linear_0_7" x1="43.055" y1="10.6712" x2="43.055" y2="45.4373" gradientUnits="userSpaceOnUse">
<stop stop-color="#3C3F2E"/>
<stop offset="1" stop-color="#EA6518"/>
</linearGradient>
<linearGradient id="paint2_linear_0_7" x1="43.055" y1="10.6712" x2="43.055" y2="45.4373" gradientUnits="userSpaceOnUse">
<stop stop-color="#3C3F2E"/>
<stop offset="1" stop-color="#EA6518"/>
</linearGradient>
<linearGradient id="paint3_linear_0_7" x1="43.055" y1="10.6712" x2="43.055" y2="45.4373" gradientUnits="userSpaceOnUse">
<stop stop-color="#3C3F2E"/>
<stop offset="1" stop-color="#EA6518"/>
</linearGradient>
<linearGradient id="paint4_linear_0_7" x1="43.055" y1="10.6712" x2="43.055" y2="45.4373" gradientUnits="userSpaceOnUse">
<stop stop-color="#3C3F2E"/>
<stop offset="1" stop-color="#EA6518"/>
</linearGradient>
<linearGradient id="paint5_linear_0_7" x1="43.055" y1="10.6712" x2="43.055" y2="45.4373" gradientUnits="userSpaceOnUse">
<stop stop-color="#3C3F2E"/>
<stop offset="1" stop-color="#EA6518"/>
</linearGradient>
<linearGradient id="paint6_linear_0_7" x1="43.055" y1="10.6712" x2="43.055" y2="45.4373" gradientUnits="userSpaceOnUse">
<stop stop-color="#3C3F2E"/>
<stop offset="1" stop-color="#EA6518"/>
</linearGradient>
<linearGradient id="paint7_linear_0_7" x1="43.055" y1="10.6712" x2="43.055" y2="45.4373" gradientUnits="userSpaceOnUse">
<stop stop-color="#3C3F2E"/>
<stop offset="1" stop-color="#EA6518"/>
</linearGradient>
<linearGradient id="paint8_linear_0_7" x1="43.055" y1="10.6712" x2="43.055" y2="45.4373" gradientUnits="userSpaceOnUse">
<stop stop-color="#3C3F2E"/>
<stop offset="1" stop-color="#EA6518"/>
</linearGradient>
<linearGradient id="paint9_linear_0_7" x1="43.055" y1="10.6712" x2="43.055" y2="45.4373" gradientUnits="userSpaceOnUse">
<stop stop-color="#3C3F2E"/>
<stop offset="1" stop-color="#EA6518"/>
</linearGradient>
<linearGradient id="paint10_linear_0_7" x1="43.055" y1="10.6712" x2="43.055" y2="45.4373" gradientUnits="userSpaceOnUse">
<stop stop-color="#3C3F2E"/>
<stop offset="1" stop-color="#EA6518"/>
</linearGradient>
<linearGradient id="paint11_linear_0_7" x1="43.055" y1="10.6712" x2="43.055" y2="45.4373" gradientUnits="userSpaceOnUse">
<stop stop-color="#3C3F2E"/>
<stop offset="1" stop-color="#EA6518"/>
</linearGradient>
<linearGradient id="paint12_linear_0_7" x1="43.055" y1="10.6712" x2="43.055" y2="45.4373" gradientUnits="userSpaceOnUse">
<stop stop-color="#3C3F2E"/>
<stop offset="1" stop-color="#EA6518"/>
</linearGradient>
<linearGradient id="paint13_linear_0_7" x1="43.055" y1="10.6712" x2="43.055" y2="45.4373" gradientUnits="userSpaceOnUse">
<stop stop-color="#3C3F2E"/>
<stop offset="1" stop-color="#EA6518"/>
</linearGradient>
<linearGradient id="paint14_linear_0_7" x1="43.055" y1="10.6712" x2="43.055" y2="45.4373" gradientUnits="userSpaceOnUse">
<stop stop-color="#3C3F2E"/>
<stop offset="1" stop-color="#EA6518"/>
</linearGradient>
<linearGradient id="paint15_linear_0_7" x1="43.055" y1="10.6712" x2="43.055" y2="45.4373" gradientUnits="userSpaceOnUse">
<stop stop-color="#3C3F2E"/>
<stop offset="1" stop-color="#EA6518"/>
</linearGradient>
<linearGradient id="paint16_linear_0_7" x1="43.055" y1="10.6712" x2="43.055" y2="45.4373" gradientUnits="userSpaceOnUse">
<stop stop-color="#3C3F2E"/>
<stop offset="1" stop-color="#EA6518"/>
</linearGradient>
<linearGradient id="paint17_linear_0_7" x1="43.055" y1="10.6712" x2="43.055" y2="45.4373" gradientUnits="userSpaceOnUse">
<stop stop-color="#3C3F2E"/>
<stop offset="1" stop-color="#EA6518"/>
</linearGradient>
<linearGradient id="paint18_linear_0_7" x1="43.055" y1="10.6712" x2="43.055" y2="45.4373" gradientUnits="userSpaceOnUse">
<stop stop-color="#3C3F2E"/>
<stop offset="1" stop-color="#EA6518"/>
</linearGradient>
</defs>
</svg>
