<svg xmlns="http://www.w3.org/2000/svg" width="323" height="1482" viewBox="0 0 323 1482" fill="none">
  <path d="M162.323 0C161.323 0 160.323 0 159.323 0C159.323 2.24081 159.323 4.48162 159.323 6.72243C159.082 15.8604 160.236 25.6735 156.652 33.4452C154.33 38.0238 150.524 41.83 145.946 44.1521C138.174 47.7356 128.361 46.582 119.223 46.8224C96.4335 46.8224 73.6441 46.8224 50.8548 46.8224C48.6074 46.8224 46.3601 46.8224 44.1127 46.8224C34.896 47.137 25.4003 45.6511 16.028 49.8198C10.8887 52.4262 6.61648 56.6985 4.01003 61.8377C-0.158584 71.21 1.32726 80.7057 1.01271 89.9224C1.01271 140.986 1.01271 192.049 1.01271 243.112C1.32726 252.328 -0.158587 261.824 4.01003 271.196C6.61648 276.336 10.8887 280.608 16.028 283.214C25.4003 287.383 34.896 285.897 44.1127 286.212C122.659 286.212 201.204 286.212 279.75 286.212C288.888 286.452 298.701 285.299 306.473 288.882C311.051 291.204 314.858 295.01 317.18 299.589C320.763 307.361 319.61 317.174 319.85 326.312C319.85 398.912 319.85 471.512 319.85 544.112C319.61 553.25 320.763 563.063 317.18 570.834C314.858 575.413 311.051 579.219 306.473 581.541C298.701 585.125 288.888 583.971 279.75 584.212C200.871 584.212 121.992 584.212 43.1126 584.212C33.8959 584.526 24.4003 583.04 15.028 587.209C9.88873 589.815 5.61647 594.088 3.01002 599.227C-1.1586 608.599 0.327242 618.095 0.0126976 627.312C0.0127012 693.578 0.0127047 759.845 0.0127083 826.112C0.327254 835.328 -1.15859 844.824 3.01003 854.196C5.61648 859.336 9.88875 863.608 15.028 866.214C24.4003 870.383 33.896 868.897 43.1127 869.212C121.659 869.212 200.204 869.212 278.75 869.212C287.888 869.452 297.701 868.299 305.473 871.882C310.051 874.204 313.858 878.01 316.18 882.589C319.763 890.361 318.61 900.174 318.85 909.312C318.85 975.245 318.85 1041.18 318.85 1107.11C318.61 1116.25 319.763 1126.06 316.18 1133.83C313.858 1138.41 310.051 1142.22 305.473 1144.54C297.701 1148.12 287.888 1146.97 278.75 1147.21C200.204 1147.21 121.658 1147.21 43.1126 1147.21C33.8959 1147.53 24.4003 1146.04 15.028 1150.21C9.88873 1152.82 5.61647 1157.09 3.01002 1162.23C-1.1586 1171.6 0.32724 1181.09 0.0126953 1190.31C0.0126953 1242.18 0.0126953 1294.04 0.0126953 1345.91C0.327241 1355.13 -1.1586 1364.62 3.01002 1373.99C5.61647 1379.13 9.88873 1383.41 15.028 1386.01C24.4003 1390.18 33.896 1388.7 43.1127 1389.01C60.8539 1389.01 78.5951 1389.01 96.3363 1389.01C103.965 1389.01 111.594 1389.01 119.223 1389.01C128.361 1389.25 138.174 1388.1 145.946 1391.68C150.524 1394 154.33 1397.81 156.652 1402.39C160.236 1410.16 159.082 1419.97 159.323 1429.11C159.323 1446.51 159.323 1463.91 159.323 1481.31C160.323 1481.31 161.323 1481.31 162.323 1481.31C162.323 1463.91 162.323 1446.51 162.323 1429.11C162.008 1419.89 163.494 1410.4 159.326 1401.03C156.719 1395.89 152.447 1391.61 147.308 1389.01C137.935 1384.84 128.44 1386.32 119.223 1386.01C111.594 1386.01 103.965 1386.01 96.3363 1386.01C78.5951 1386.01 60.8539 1386.01 43.1127 1386.01C33.9748 1385.77 24.1616 1386.92 16.3899 1383.34C11.8114 1381.02 8.00511 1377.21 5.68304 1372.63C2.09955 1364.86 3.25313 1355.05 3.0127 1345.91C3.0127 1294.04 3.0127 1242.18 3.0127 1190.31C3.25313 1181.17 2.09956 1171.36 5.68304 1163.59C8.00511 1159.01 11.8114 1155.2 16.3899 1152.88C24.1616 1149.3 33.9747 1150.45 43.1126 1150.21C121.658 1150.21 200.204 1150.21 278.75 1150.21C287.967 1149.9 297.463 1151.38 306.835 1147.21C311.974 1144.61 316.246 1140.34 318.853 1135.2C323.021 1125.82 321.536 1116.33 321.85 1107.11C321.85 1041.18 321.85 975.245 321.85 909.312C321.536 900.095 323.021 890.599 318.853 881.227C316.246 876.088 311.974 871.815 306.835 869.209C297.463 865.04 287.967 866.526 278.75 866.212C200.204 866.212 121.659 866.212 43.1127 866.212C33.9748 865.971 24.1616 867.125 16.3899 863.541C11.8114 861.219 8.00513 857.413 5.68305 852.834C2.09957 845.063 3.25314 835.25 3.01271 826.112C3.0127 759.845 3.0127 693.578 3.0127 627.312C3.25313 618.174 2.09956 608.361 5.68304 600.589C8.00511 596.01 11.8114 592.204 16.3899 589.882C24.1616 586.299 33.9747 587.452 43.1126 587.212C121.992 587.212 200.871 587.212 279.75 587.212C288.967 586.897 298.463 588.383 307.835 584.214C312.974 581.608 317.246 577.336 319.853 572.196C324.021 562.824 322.536 553.328 322.85 544.112C322.85 471.512 322.85 398.912 322.85 326.312C322.536 317.095 324.021 307.599 319.853 298.227C317.246 293.088 312.974 288.815 307.835 286.209C298.463 282.04 288.967 283.526 279.75 283.212C201.204 283.212 122.659 283.212 44.1127 283.212C34.9748 282.971 25.1616 284.125 17.3899 280.541C12.8114 278.219 9.00513 274.413 6.68305 269.835C3.09957 262.063 4.25314 252.25 4.01271 243.112C4.01271 192.049 4.01271 140.986 4.01271 89.9224C4.25314 80.7845 3.09957 70.9713 6.68305 63.1997C9.00513 58.6211 12.8114 54.8148 17.3899 52.4928C25.1616 48.9093 34.9748 50.0629 44.1127 49.8224C46.3601 49.8224 48.6074 49.8224 50.8548 49.8224C73.6441 49.8224 96.4335 49.8224 119.223 49.8224C128.44 49.5079 137.935 50.9937 147.308 46.8251C152.447 44.2187 156.719 39.9464 159.326 34.8072C163.494 25.4349 162.008 15.9392 162.323 6.72243C162.323 4.48162 162.323 2.24081 162.323 0Z" fill="url(#paint0_linear_124_741)"/>
  <path d="M162.323 0C161.323 0 160.323 0 159.323 0C159.323 2.24081 159.323 4.48162 159.323 6.72243C159.082 15.8604 160.236 25.6735 156.652 33.4452C154.33 38.0238 150.524 41.83 145.946 44.1521C138.174 47.7356 128.361 46.582 119.223 46.8224C96.4335 46.8224 73.6441 46.8224 50.8548 46.8224C48.6074 46.8224 46.3601 46.8224 44.1127 46.8224C34.896 47.137 25.4003 45.6511 16.028 49.8198C10.8887 52.4262 6.61648 56.6985 4.01003 61.8377C-0.158584 71.21 1.32726 80.7057 1.01271 89.9224C1.01271 140.986 1.01271 192.049 1.01271 243.112C1.32726 252.328 -0.158587 261.824 4.01003 271.196C6.61648 276.336 10.8887 280.608 16.028 283.214C25.4003 287.383 34.896 285.897 44.1127 286.212C122.659 286.212 201.204 286.212 279.75 286.212C288.888 286.452 298.701 285.299 306.473 288.882C311.051 291.204 314.858 295.01 317.18 299.589C320.763 307.361 319.61 317.174 319.85 326.312C319.85 398.912 319.85 471.512 319.85 544.112C319.61 553.25 320.763 563.063 317.18 570.834C314.858 575.413 311.051 579.219 306.473 581.541C298.701 585.125 288.888 583.971 279.75 584.212C200.871 584.212 121.992 584.212 43.1126 584.212C33.8959 584.526 24.4003 583.04 15.028 587.209C9.88873 589.815 5.61647 594.088 3.01002 599.227C-1.1586 608.599 0.327242 618.095 0.0126976 627.312C0.0127012 693.578 0.0127047 759.845 0.0127083 826.112C0.327254 835.328 -1.15859 844.824 3.01003 854.196C5.61648 859.336 9.88875 863.608 15.028 866.214C24.4003 870.383 33.896 868.897 43.1127 869.212C121.659 869.212 200.204 869.212 278.75 869.212C287.888 869.452 297.701 868.299 305.473 871.882C310.051 874.204 313.858 878.01 316.18 882.589C319.763 890.361 318.61 900.174 318.85 909.312C318.85 975.245 318.85 1041.18 318.85 1107.11C318.61 1116.25 319.763 1126.06 316.18 1133.83C313.858 1138.41 310.051 1142.22 305.473 1144.54C297.701 1148.12 287.888 1146.97 278.75 1147.21C200.204 1147.21 121.658 1147.21 43.1126 1147.21C33.8959 1147.53 24.4003 1146.04 15.028 1150.21C9.88873 1152.82 5.61647 1157.09 3.01002 1162.23C-1.1586 1171.6 0.32724 1181.09 0.0126953 1190.31C0.0126953 1242.18 0.0126953 1294.04 0.0126953 1345.91C0.327241 1355.13 -1.1586 1364.62 3.01002 1373.99C5.61647 1379.13 9.88873 1383.41 15.028 1386.01C24.4003 1390.18 33.896 1388.7 43.1127 1389.01C60.8539 1389.01 78.5951 1389.01 96.3363 1389.01C103.965 1389.01 111.594 1389.01 119.223 1389.01C128.361 1389.25 138.174 1388.1 145.946 1391.68C150.524 1394 154.33 1397.81 156.652 1402.39C160.236 1410.16 159.082 1419.97 159.323 1429.11C159.323 1446.51 159.323 1463.91 159.323 1481.31C160.323 1481.31 161.323 1481.31 162.323 1481.31C162.323 1463.91 162.323 1446.51 162.323 1429.11C162.008 1419.89 163.494 1410.4 159.326 1401.03C156.719 1395.89 152.447 1391.61 147.308 1389.01C137.935 1384.84 128.44 1386.32 119.223 1386.01C111.594 1386.01 103.965 1386.01 96.3363 1386.01C78.5951 1386.01 60.8539 1386.01 43.1127 1386.01C33.9748 1385.77 24.1616 1386.92 16.3899 1383.34C11.8114 1381.02 8.00511 1377.21 5.68304 1372.63C2.09955 1364.86 3.25313 1355.05 3.0127 1345.91C3.0127 1294.04 3.0127 1242.18 3.0127 1190.31C3.25313 1181.17 2.09956 1171.36 5.68304 1163.59C8.00511 1159.01 11.8114 1155.2 16.3899 1152.88C24.1616 1149.3 33.9747 1150.45 43.1126 1150.21C121.658 1150.21 200.204 1150.21 278.75 1150.21C287.967 1149.9 297.463 1151.38 306.835 1147.21C311.974 1144.61 316.246 1140.34 318.853 1135.2C323.021 1125.82 321.536 1116.33 321.85 1107.11C321.85 1041.18 321.85 975.245 321.85 909.312C321.536 900.095 323.021 890.599 318.853 881.227C316.246 876.088 311.974 871.815 306.835 869.209C297.463 865.04 287.967 866.526 278.75 866.212C200.204 866.212 121.659 866.212 43.1127 866.212C33.9748 865.971 24.1616 867.125 16.3899 863.541C11.8114 861.219 8.00513 857.413 5.68305 852.834C2.09957 845.063 3.25314 835.25 3.01271 826.112C3.0127 759.845 3.0127 693.578 3.0127 627.312C3.25313 618.174 2.09956 608.361 5.68304 600.589C8.00511 596.01 11.8114 592.204 16.3899 589.882C24.1616 586.299 33.9747 587.452 43.1126 587.212C121.992 587.212 200.871 587.212 279.75 587.212C288.967 586.897 298.463 588.383 307.835 584.214C312.974 581.608 317.246 577.336 319.853 572.196C324.021 562.824 322.536 553.328 322.85 544.112C322.85 471.512 322.85 398.912 322.85 326.312C322.536 317.095 324.021 307.599 319.853 298.227C317.246 293.088 312.974 288.815 307.835 286.209C298.463 282.04 288.967 283.526 279.75 283.212C201.204 283.212 122.659 283.212 44.1127 283.212C34.9748 282.971 25.1616 284.125 17.3899 280.541C12.8114 278.219 9.00513 274.413 6.68305 269.835C3.09957 262.063 4.25314 252.25 4.01271 243.112C4.01271 192.049 4.01271 140.986 4.01271 89.9224C4.25314 80.7845 3.09957 70.9713 6.68305 63.1997C9.00513 58.6211 12.8114 54.8148 17.3899 52.4928C25.1616 48.9093 34.9748 50.0629 44.1127 49.8224C46.3601 49.8224 48.6074 49.8224 50.8548 49.8224C73.6441 49.8224 96.4335 49.8224 119.223 49.8224C128.44 49.5079 137.935 50.9937 147.308 46.8251C152.447 44.2187 156.719 39.9464 159.326 34.8072C163.494 25.4349 162.008 15.9392 162.323 6.72243C162.323 4.48162 162.323 2.24081 162.323 0Z" fill="url(#paint1_radial_124_741)" fill-opacity="0.2"/>
  <defs>
    <linearGradient id="paint0_linear_124_741" x1="161.431" y1="0" x2="161.431" y2="1333.2" gradientUnits="userSpaceOnUse">
      <stop stop-color="#3C3F2E" stop-opacity="0"/>
      <stop offset="0.266873" stop-color="#3C3F2E" stop-opacity="0.929074"/>
      <stop offset="0.5" stop-color="#3C3F2E"/>
      <stop offset="0.751149" stop-color="#3C3F2E" stop-opacity="0.906207"/>
      <stop offset="1" stop-color="#3C3F2E" stop-opacity="0.91"/>
    </linearGradient>
    <radialGradient id="paint1_radial_124_741" cx="0" cy="0" r="1" gradientTransform="matrix(193.932 1360.6 -18.2062 949.759 67.3501 -82.9846)" gradientUnits="userSpaceOnUse">
      <stop stop-color="white"/>
      <stop offset="1" stop-color="white" stop-opacity="0"/>
    </radialGradient>
  </defs>
  </svg>