<svg preserveAspectRatio="none" width="100%" height="100%" overflow="visible" style="display: block;" viewBox="0 0 498 482" fill="none" xmlns="http://www.w3.org/2000/svg">
<g id="Vector" opacity="0.05">
<path fill-rule="evenodd" clip-rule="evenodd" d="M60.4609 359.51C62.1114 358.681 63.5929 357.565 64.84 356.228L60.4609 358.068V359.51Z" fill="url(#paint0_linear_0_9)"/>
<path fill-rule="evenodd" clip-rule="evenodd" d="M60.4609 397.214L59.3711 396.543L60.4609 397.025V397.214Z" fill="url(#paint1_linear_0_9)"/>
<path d="M129.409 297.689C132.635 294.856 134.671 290.701 134.671 286.07C134.671 285.722 134.659 285.376 134.636 285.033C134.263 279.396 130.868 274.585 126.057 272.205C123.993 271.184 121.669 270.611 119.211 270.611C116.753 270.611 114.429 271.184 112.366 272.205C111.006 272.878 109.759 273.745 108.661 274.77L60.4609 255.726V123.24L73.5657 113.54C75.553 114.47 77.7707 114.99 80.1098 114.99C88.6478 114.99 95.5692 108.068 95.5692 99.5303C95.5692 98.7956 95.5179 98.0729 95.4188 97.3656C94.7376 92.504 91.7953 88.3675 87.6891 86.0533C85.4496 84.7911 82.8638 84.0709 80.1098 84.0709C71.5719 84.0709 64.6505 90.9923 64.6505 99.5303C64.6505 100.667 64.7732 101.775 65.0061 102.842L46.7698 116.34V265.038L103.825 287.58C104.351 293.013 107.689 297.622 112.366 299.935C114.429 300.956 116.753 301.529 119.211 301.529C121.669 301.529 123.993 300.956 126.057 299.935C127.273 299.333 128.4 298.576 129.409 297.689Z" fill="url(#paint2_linear_0_9)"/>
<path d="M171.99 0L112.366 38.2194V87.2206C107.262 89.7454 103.752 95.0056 103.752 101.085C103.752 107.165 107.262 112.425 112.366 114.95C114.429 115.971 116.753 116.545 119.211 116.545C121.669 116.545 123.993 115.971 126.057 114.95C131.161 112.426 134.671 107.165 134.671 101.085C134.671 95.0055 131.161 89.7453 126.057 87.2205V45.7058L171.99 16.2624L218.313 45.9556V91.7895C213.344 94.3604 209.947 99.548 209.947 105.529C209.947 111.51 213.344 116.697 218.313 119.268C220.438 120.367 222.85 120.988 225.407 120.988C227.767 120.988 230.003 120.459 232.004 119.514C237.242 117.038 240.866 111.707 240.866 105.529C240.866 99.3508 237.242 94.0192 232.004 91.5438V38.4692L171.99 0Z" fill="url(#paint3_linear_0_9)"/>
<path fill-rule="evenodd" clip-rule="evenodd" d="M232.004 285.976V199.938C237.242 197.463 240.866 192.131 240.866 185.953C240.866 179.775 237.242 174.443 232.004 171.968C230.003 171.023 227.767 170.494 225.407 170.494C222.85 170.494 220.438 171.115 218.313 172.214C213.344 174.785 209.947 179.972 209.947 185.953C209.947 191.934 213.344 197.121 218.313 199.692V276.879L182.024 292.13V75.7246C187.226 73.2356 190.819 67.923 190.819 61.7714C190.819 55.6197 187.226 50.3072 182.024 47.8182C180.006 46.8527 177.746 46.312 175.36 46.312C172.829 46.312 170.441 46.9199 168.333 47.9977C163.327 50.5565 159.9 55.7638 159.9 61.7714C159.9 67.779 163.327 72.9862 168.333 75.545V247.47L126.057 230.766V179.601C131.161 177.076 134.671 171.816 134.671 165.736C134.671 159.656 131.161 154.396 126.057 151.871C123.993 150.85 121.669 150.277 119.211 150.277C116.753 150.277 114.429 150.85 112.366 151.871C107.262 154.396 103.752 159.656 103.752 165.736C103.752 171.816 107.262 177.076 112.366 179.601V240.078L168.333 262.191V297.884V298.347V312.734V313.068V333.892L182.024 339.945V306.981L232.004 285.976Z" fill="url(#paint4_linear_0_9)"/>
<path fill-rule="evenodd" clip-rule="evenodd" d="M437.373 122.455C435.723 123.284 434.241 124.4 432.994 125.738L437.373 123.898V122.455Z" fill="url(#paint5_linear_0_9)"/>
<path fill-rule="evenodd" clip-rule="evenodd" d="M278.015 29.4415L279.521 28.5141V30.1076L278.015 29.4415Z" fill="url(#paint6_linear_0_9)"/>
<path fill-rule="evenodd" clip-rule="evenodd" d="M316.629 46.5168L315.81 46.1549V46.8795C316.079 46.751 316.352 46.63 316.629 46.5168Z" fill="url(#paint7_linear_0_9)"/>
<path fill-rule="evenodd" clip-rule="evenodd" d="M437.373 84.7517L438.463 85.4227L437.373 84.9408V84.7517Z" fill="url(#paint8_linear_0_9)"/>
<path fill-rule="evenodd" clip-rule="evenodd" d="M278.015 29.4415L279.521 30.1076V28.5141L278.015 29.4415Z" fill="url(#paint9_linear_0_9)"/>
<path fill-rule="evenodd" clip-rule="evenodd" d="M279.521 30.1076L278.015 29.4415L279.521 28.5141V30.1076Z" fill="url(#paint10_linear_0_9)"/>
<path d="M368.425 184.276C365.199 187.11 363.163 191.265 363.163 195.895C363.163 196.244 363.175 196.59 363.198 196.932C363.571 202.569 366.966 207.38 371.777 209.76C373.841 210.781 376.165 211.355 378.623 211.355C381.081 211.355 383.405 210.781 385.468 209.76C386.829 209.087 388.075 208.22 389.173 207.195L437.373 226.239V358.726L424.268 368.425C422.281 367.495 420.063 366.976 417.724 366.976C409.186 366.976 402.265 373.897 402.265 382.435C402.265 383.17 402.316 383.892 402.415 384.6C403.096 389.461 406.039 393.598 410.145 395.912C412.384 397.174 414.97 397.894 417.724 397.894C426.262 397.894 433.184 390.973 433.184 382.435C433.184 381.298 433.061 380.19 432.828 379.123L451.064 365.625V216.928L394.009 194.385C393.483 188.953 390.145 184.344 385.468 182.03C383.405 181.01 381.081 180.436 378.623 180.436C376.165 180.436 373.841 181.01 371.777 182.03C370.561 182.632 369.434 183.39 368.425 184.276Z" fill="url(#paint11_linear_0_9)"/>
<path fill-rule="evenodd" clip-rule="evenodd" d="M437.373 123.898L432.994 125.738C430.419 128.499 428.843 132.205 428.843 136.278C428.843 138.258 429.216 140.152 429.894 141.892C431.287 145.465 433.971 148.392 437.373 150.101C439.457 151.148 441.811 151.738 444.303 151.738C446.727 151.738 449.022 151.18 451.064 150.185C456.214 147.676 459.762 142.392 459.762 136.278C459.762 134.009 459.273 131.855 458.395 129.914C456.908 126.625 454.303 123.95 451.064 122.372V90.9951L438.463 85.4227L437.373 84.9408L385.468 61.9882V36.7166L325.834 1.84919e-05L279.521 28.5141V30.1076L278.015 29.4415L265.83 36.9435V181.588L279.521 175.525V44.5921L325.834 16.0781L371.777 44.3651V95.8088C366.673 98.3337 363.163 103.594 363.163 109.674C363.163 115.754 366.673 121.014 371.777 123.539C373.841 124.559 376.165 125.133 378.623 125.133C381.081 125.133 383.405 124.559 385.468 123.539C390.572 121.014 394.082 115.754 394.082 109.674C394.082 103.594 390.572 98.3337 385.468 95.8089V76.9582L437.373 99.9108V122.455V123.898Z" fill="url(#paint12_linear_0_9)"/>
<path d="M325.844 481.965L385.468 443.746V394.745C390.572 392.22 394.082 386.96 394.082 380.88C394.082 374.8 390.572 369.54 385.468 367.015C383.405 365.994 381.081 365.421 378.623 365.421C376.165 365.421 373.841 365.994 371.777 367.015C366.673 369.54 363.163 374.8 363.163 380.88C363.163 386.96 366.673 392.22 371.777 394.745V436.26L325.844 465.703L279.521 436.01V390.176C284.49 387.605 287.887 382.417 287.887 376.437C287.887 370.456 284.49 365.268 279.521 362.697C277.396 361.598 274.984 360.977 272.427 360.977C270.067 360.977 267.831 361.506 265.83 362.452C260.592 364.927 256.968 370.259 256.968 376.437C256.968 382.615 260.592 387.946 265.83 390.422V443.496L325.844 481.965Z" fill="url(#paint13_linear_0_9)"/>
<path fill-rule="evenodd" clip-rule="evenodd" d="M265.83 195.989V282.027C260.592 284.503 256.968 289.834 256.968 296.012C256.968 302.19 260.592 307.522 265.83 309.997C267.831 310.943 270.067 311.472 272.427 311.472C274.984 311.472 277.396 310.851 279.521 309.752C284.49 307.181 287.887 301.993 287.887 296.012C287.887 290.032 284.49 284.844 279.521 282.273V205.086L315.81 189.836V406.241C310.608 408.73 307.015 414.042 307.015 420.194C307.015 426.346 310.608 431.658 315.81 434.147C317.828 435.113 320.088 435.653 322.474 435.653C325.005 435.653 327.393 435.045 329.501 433.968C334.507 431.409 337.934 426.202 337.934 420.194C337.934 414.186 334.507 408.979 329.501 406.42V234.496L371.777 251.199V302.365C366.673 304.889 363.163 310.15 363.163 316.229C363.163 322.309 366.673 327.57 371.777 330.094C373.841 331.115 376.165 331.689 378.623 331.689C381.081 331.689 383.405 331.115 385.468 330.094C390.572 327.57 394.082 322.309 394.082 316.229C394.082 310.15 390.572 304.889 385.468 302.365V241.888L329.501 219.775V184.082V183.619V169.231V168.897V148.073L315.81 142.02V174.985L265.83 195.989Z" fill="url(#paint14_linear_0_9)"/>
<path fill-rule="evenodd" clip-rule="evenodd" d="M60.4609 358.068L64.84 356.228C67.4149 353.466 68.9905 349.761 68.9905 345.687C68.9905 343.707 68.6183 341.814 67.9399 340.074C66.5468 336.5 63.8628 333.573 60.4609 331.864C58.3766 330.817 56.0227 330.228 53.5312 330.228C51.1065 330.228 48.8122 330.786 46.7698 331.781C41.6203 334.289 38.0718 339.574 38.0718 345.687C38.0718 347.956 38.5606 350.111 39.4386 352.052C40.9263 355.341 43.5314 358.016 46.7698 359.593V390.97L59.3711 396.543L60.4609 397.025L112.366 419.977V445.249L172 481.965L218.313 453.451L219.819 452.524L232.004 445.022V300.377L218.313 306.44V437.373L172 465.887L126.057 437.6V386.157C131.161 383.632 134.671 378.372 134.671 372.292C134.671 366.212 131.161 360.951 126.057 358.427C123.993 357.406 121.669 356.832 119.211 356.832C116.753 356.832 114.429 357.406 112.366 358.427C107.262 360.952 103.752 366.212 103.752 372.292C103.752 378.371 107.262 383.632 112.366 386.157V405.007L60.4609 382.055V359.51V358.068Z" fill="url(#paint15_linear_0_9)"/>
<path fill-rule="evenodd" clip-rule="evenodd" d="M468.82 335.45C470.342 332.681 472.689 330.429 475.529 329.025V197.95L371.777 152.071L371.074 151.76L315.81 127.322V74.7859C310.608 72.2969 307.015 66.9843 307.015 60.8327C307.015 54.681 310.608 49.3685 315.81 46.8795C316.079 46.751 316.352 46.63 316.629 46.5168C318.432 45.7796 320.406 45.3733 322.474 45.3733C325.005 45.3733 327.393 45.9812 329.501 47.059C332.953 48.8235 335.654 51.8473 336.998 55.5244C337.604 57.1798 337.934 58.9677 337.934 60.8327C337.934 66.8402 334.507 72.0475 329.501 74.6063V118.406L385.468 143.155L388.432 144.465L489.22 189.035V329.025C491.326 330.066 493.16 331.573 494.588 333.411C496.623 336.029 497.834 339.318 497.834 342.889C497.834 348.969 494.324 354.23 489.22 356.754C487.157 357.775 484.833 358.349 482.375 358.349C479.917 358.349 477.593 357.775 475.529 356.754C473.211 355.608 471.222 353.897 469.741 351.802C467.961 349.283 466.915 346.208 466.915 342.889C466.915 340.193 467.606 337.657 468.82 335.45Z" fill="url(#paint16_linear_0_9)"/>
<path fill-rule="evenodd" clip-rule="evenodd" d="M22.3049 284.015V152.941C25.1451 151.536 27.4916 149.284 29.0144 146.515C30.2282 144.308 30.9187 141.773 30.9187 139.076C30.9187 135.757 29.8728 132.683 28.0928 130.164C26.6119 128.068 24.6228 126.358 22.3049 125.211C20.2414 124.19 17.9174 123.617 15.4593 123.617C13.0013 123.617 10.6772 124.19 8.61377 125.211C3.50979 127.736 0 132.996 0 139.076C0 142.648 1.21139 145.937 3.24574 148.554C4.67417 150.392 6.50833 151.899 8.61377 152.941V292.931L109.402 337.5L112.366 338.811L168.333 363.56V407.359C163.327 409.918 159.9 415.125 159.9 421.133C159.9 422.998 160.23 424.786 160.836 426.441C162.18 430.118 164.881 433.142 168.333 434.906C170.441 435.984 172.829 436.592 175.36 436.592C177.428 436.592 179.402 436.186 181.205 435.449C181.482 435.335 181.755 435.214 182.024 435.086C187.226 432.597 190.819 427.284 190.819 421.133C190.819 414.981 187.226 409.669 182.024 407.18V354.644L126.76 330.206L126.057 329.895L22.3049 284.015Z" fill="url(#paint17_linear_0_9)"/>
</g>
<defs>
<linearGradient id="paint0_linear_0_9" x1="248.917" y1="0" x2="248.917" y2="481.965" gradientUnits="userSpaceOnUse">
<stop stop-color="#3C3F2E"/>
<stop offset="0.683623" stop-color="#3C3F2E" stop-opacity="0"/>
</linearGradient>
<linearGradient id="paint1_linear_0_9" x1="248.917" y1="0" x2="248.917" y2="481.965" gradientUnits="userSpaceOnUse">
<stop stop-color="#3C3F2E"/>
<stop offset="0.683623" stop-color="#3C3F2E" stop-opacity="0"/>
</linearGradient>
<linearGradient id="paint2_linear_0_9" x1="248.917" y1="0" x2="248.917" y2="481.965" gradientUnits="userSpaceOnUse">
<stop stop-color="#3C3F2E"/>
<stop offset="0.683623" stop-color="#3C3F2E" stop-opacity="0"/>
</linearGradient>
<linearGradient id="paint3_linear_0_9" x1="248.917" y1="0" x2="248.917" y2="481.965" gradientUnits="userSpaceOnUse">
<stop stop-color="#3C3F2E"/>
<stop offset="0.683623" stop-color="#3C3F2E" stop-opacity="0"/>
</linearGradient>
<linearGradient id="paint4_linear_0_9" x1="248.917" y1="0" x2="248.917" y2="481.965" gradientUnits="userSpaceOnUse">
<stop stop-color="#3C3F2E"/>
<stop offset="0.683623" stop-color="#3C3F2E" stop-opacity="0"/>
</linearGradient>
<linearGradient id="paint5_linear_0_9" x1="248.917" y1="0" x2="248.917" y2="481.965" gradientUnits="userSpaceOnUse">
<stop stop-color="#3C3F2E"/>
<stop offset="0.683623" stop-color="#3C3F2E" stop-opacity="0"/>
</linearGradient>
<linearGradient id="paint6_linear_0_9" x1="248.917" y1="0" x2="248.917" y2="481.965" gradientUnits="userSpaceOnUse">
<stop stop-color="#3C3F2E"/>
<stop offset="0.683623" stop-color="#3C3F2E" stop-opacity="0"/>
</linearGradient>
<linearGradient id="paint7_linear_0_9" x1="248.917" y1="0" x2="248.917" y2="481.965" gradientUnits="userSpaceOnUse">
<stop stop-color="#3C3F2E"/>
<stop offset="0.683623" stop-color="#3C3F2E" stop-opacity="0"/>
</linearGradient>
<linearGradient id="paint8_linear_0_9" x1="248.917" y1="0" x2="248.917" y2="481.965" gradientUnits="userSpaceOnUse">
<stop stop-color="#3C3F2E"/>
<stop offset="0.683623" stop-color="#3C3F2E" stop-opacity="0"/>
</linearGradient>
<linearGradient id="paint9_linear_0_9" x1="248.917" y1="0" x2="248.917" y2="481.965" gradientUnits="userSpaceOnUse">
<stop stop-color="#3C3F2E"/>
<stop offset="0.683623" stop-color="#3C3F2E" stop-opacity="0"/>
</linearGradient>
<linearGradient id="paint10_linear_0_9" x1="248.917" y1="0" x2="248.917" y2="481.965" gradientUnits="userSpaceOnUse">
<stop stop-color="#3C3F2E"/>
<stop offset="0.683623" stop-color="#3C3F2E" stop-opacity="0"/>
</linearGradient>
<linearGradient id="paint11_linear_0_9" x1="248.917" y1="0" x2="248.917" y2="481.965" gradientUnits="userSpaceOnUse">
<stop stop-color="#3C3F2E"/>
<stop offset="0.683623" stop-color="#3C3F2E" stop-opacity="0"/>
</linearGradient>
<linearGradient id="paint12_linear_0_9" x1="248.917" y1="0" x2="248.917" y2="481.965" gradientUnits="userSpaceOnUse">
<stop stop-color="#3C3F2E"/>
<stop offset="0.683623" stop-color="#3C3F2E" stop-opacity="0"/>
</linearGradient>
<linearGradient id="paint13_linear_0_9" x1="248.917" y1="0" x2="248.917" y2="481.965" gradientUnits="userSpaceOnUse">
<stop stop-color="#3C3F2E"/>
<stop offset="0.683623" stop-color="#3C3F2E" stop-opacity="0"/>
</linearGradient>
<linearGradient id="paint14_linear_0_9" x1="248.917" y1="0" x2="248.917" y2="481.965" gradientUnits="userSpaceOnUse">
<stop stop-color="#3C3F2E"/>
<stop offset="0.683623" stop-color="#3C3F2E" stop-opacity="0"/>
</linearGradient>
<linearGradient id="paint15_linear_0_9" x1="248.917" y1="0" x2="248.917" y2="481.965" gradientUnits="userSpaceOnUse">
<stop stop-color="#3C3F2E"/>
<stop offset="0.683623" stop-color="#3C3F2E" stop-opacity="0"/>
</linearGradient>
<linearGradient id="paint16_linear_0_9" x1="248.917" y1="0" x2="248.917" y2="481.965" gradientUnits="userSpaceOnUse">
<stop stop-color="#3C3F2E"/>
<stop offset="0.683623" stop-color="#3C3F2E" stop-opacity="0"/>
</linearGradient>
<linearGradient id="paint17_linear_0_9" x1="248.917" y1="0" x2="248.917" y2="481.965" gradientUnits="userSpaceOnUse">
<stop stop-color="#3C3F2E"/>
<stop offset="0.683623" stop-color="#3C3F2E" stop-opacity="0"/>
</linearGradient>
</defs>
</svg>
