<svg preserveAspectRatio="none" width="100%" height="100%" overflow="visible" style="display: block;" viewBox="0 0 16 16" fill="none" xmlns="http://www.w3.org/2000/svg">
<g id="ph:check">
<path id="Vector" d="M14.3538 4.85364L6.35376 12.8536C6.30732 12.9001 6.25218 12.937 6.19148 12.9622C6.13078 12.9873 6.06572 13.0003 6.00001 13.0003C5.9343 13.0003 5.86924 12.9873 5.80854 12.9622C5.74784 12.937 5.6927 12.9001 5.64626 12.8536L2.14626 9.35364C2.05244 9.25982 1.99973 9.13257 1.99973 8.99989C1.99973 8.86721 2.05244 8.73996 2.14626 8.64614C2.24008 8.55232 2.36733 8.49961 2.50001 8.49961C2.63269 8.49961 2.75994 8.55232 2.85376 8.64614L6.00001 11.793L13.6463 4.14614C13.7401 4.05232 13.8673 3.99961 14 3.99961C14.1327 3.99961 14.2599 4.05232 14.3538 4.14614C14.4476 4.23996 14.5003 4.36721 14.5003 4.49989C14.5003 4.63257 14.4476 4.75982 14.3538 4.85364Z" fill="var(--fill-0, #3C3F2E)"/>
</g>
</svg>
