<svg preserveAspectRatio="none" width="100%" height="100%" overflow="visible" style="display: block;" viewBox="0 0 18 18" fill="none" xmlns="http://www.w3.org/2000/svg">
<g id="Group">
<path id="Vector" opacity="0.2" d="M5.25001 2.99849C5.25001 3.4435 5.11805 3.87851 4.87081 4.24852C4.62358 4.61853 4.27218 4.90692 3.86104 5.07722C3.44991 5.24752 2.99751 5.29207 2.56105 5.20526C2.1246 5.11844 1.72369 4.90415 1.40902 4.58948C1.09435 4.27481 0.880057 3.8739 0.79324 3.43744C0.706424 3.00098 0.750981 2.54858 0.921278 2.13745C1.09158 1.72632 1.37996 1.37492 1.74997 1.12768C2.11998 0.880449 2.555 0.748489 3.00001 0.748489C3.59674 0.748489 4.16904 0.985542 4.591 1.4075C5.01295 1.82946 5.25001 2.40175 5.25001 2.99849ZM15 12.7485C14.555 12.7485 14.12 12.8804 13.75 13.1277C13.38 13.3749 13.0916 13.7263 12.9213 14.1375C12.751 14.5486 12.7064 15.001 12.7932 15.4374C12.8801 15.8739 13.0943 16.2748 13.409 16.5895C13.7237 16.9041 14.1246 17.1184 14.5611 17.2053C14.9975 17.2921 15.4499 17.2475 15.861 17.0772C16.2722 16.9069 16.6236 16.6185 16.8708 16.2485C17.118 15.8785 17.25 15.4435 17.25 14.9985C17.25 14.4018 17.013 13.8295 16.591 13.4075C16.169 12.9855 15.5967 12.7485 15 12.7485Z" fill="var(--fill-0, white)"/>
<path id="Vector_2" d="M6.00001 2.99849C5.99972 2.43745 5.84212 1.88774 5.54511 1.41177C5.24809 0.935808 4.82355 0.552668 4.31972 0.305866C3.81588 0.0590643 3.25293 -0.0415096 2.69481 0.0155664C2.13668 0.0726425 1.60574 0.285081 1.16229 0.628756C0.718841 0.972431 0.380646 1.43357 0.186116 1.9598C-0.00841387 2.48604 -0.0514833 3.05627 0.0617996 3.60575C0.175082 4.15523 0.440178 4.66194 0.826979 5.06832C1.21378 5.4747 1.70679 5.76448 2.25001 5.90474V12.0922C1.54301 12.2748 0.926865 12.7089 0.517056 13.3132C0.107247 13.9176 -0.0680876 14.6506 0.0239182 15.375C0.115924 16.0994 0.468953 16.7653 1.01683 17.248C1.56471 17.7307 2.26983 17.997 3.00001 17.997C3.73019 17.997 4.4353 17.7307 4.98318 17.248C5.53106 16.7653 5.88409 16.0994 5.9761 15.375C6.0681 14.6506 5.89277 13.9176 5.48296 13.3132C5.07315 12.7089 4.457 12.2748 3.75001 12.0922V5.90474C4.39375 5.73753 4.96385 5.36152 5.371 4.83561C5.77816 4.3097 5.99938 3.66359 6.00001 2.99849ZM1.50001 2.99849C1.50001 2.70182 1.58798 2.41181 1.7528 2.16513C1.91763 1.91846 2.15189 1.7262 2.42598 1.61267C2.70007 1.49914 3.00167 1.46943 3.29264 1.52731C3.58361 1.58519 3.85089 1.72805 4.06067 1.93783C4.27045 2.14761 4.41331 2.41488 4.47119 2.70585C4.52906 2.99683 4.49936 3.29842 4.38583 3.57251C4.2723 3.8466 4.08004 4.08087 3.83336 4.24569C3.58669 4.41052 3.29668 4.49849 3.00001 4.49849C2.60218 4.49849 2.22065 4.34045 1.93935 4.05915C1.65804 3.77784 1.50001 3.39631 1.50001 2.99849ZM4.50001 14.9985C4.50001 15.2952 4.41203 15.5852 4.24721 15.8318C4.08239 16.0785 3.84812 16.2708 3.57403 16.3843C3.29994 16.4978 2.99834 16.5275 2.70737 16.4697C2.4164 16.4118 2.14913 16.2689 1.93935 16.0591C1.72957 15.8494 1.58671 15.5821 1.52883 15.2911C1.47095 15.0002 1.50066 14.6986 1.61419 14.4245C1.72772 14.1504 1.91998 13.9161 2.16665 13.7513C2.41333 13.5865 2.70334 13.4985 3.00001 13.4985C3.39783 13.4985 3.77936 13.6565 4.06067 13.9378C4.34197 14.2191 4.50001 14.6007 4.50001 14.9985ZM15.75 12.0922V7.37005C15.7515 7.07419 15.6943 6.78098 15.5816 6.5074C15.469 6.23382 15.3031 5.98532 15.0938 5.7763L11.5603 2.24849H14.25C14.4489 2.24849 14.6397 2.16947 14.7803 2.02882C14.921 1.88817 15 1.6974 15 1.49849C15 1.29958 14.921 1.10881 14.7803 0.968159C14.6397 0.827507 14.4489 0.748489 14.25 0.748489H9.75001C9.5511 0.748489 9.36033 0.827507 9.21968 0.968159C9.07902 1.10881 9.00001 1.29958 9.00001 1.49849V5.99849C9.00001 6.1974 9.07902 6.38817 9.21968 6.52882C9.36033 6.66947 9.5511 6.74849 9.75001 6.74849C9.94892 6.74849 10.1397 6.66947 10.2803 6.52882C10.421 6.38817 10.5 6.1974 10.5 5.99849V3.3088L14.0306 6.84224C14.1003 6.91194 14.1555 6.99468 14.1931 7.08573C14.2308 7.17677 14.2501 7.27434 14.25 7.37286V12.0922C13.543 12.2748 12.9269 12.7089 12.5171 13.3132C12.1072 13.9176 11.9319 14.6506 12.0239 15.375C12.1159 16.0994 12.469 16.7653 13.0168 17.248C13.5647 17.7307 14.2698 17.997 15 17.997C15.7302 17.997 16.4353 17.7307 16.9832 17.248C17.5311 16.7653 17.8841 16.0994 17.9761 15.375C18.0681 14.6506 17.8928 13.9176 17.483 13.3132C17.0732 12.7089 16.457 12.2748 15.75 12.0922ZM15 16.4985C14.7033 16.4985 14.4133 16.4105 14.1667 16.2457C13.92 16.0809 13.7277 15.8466 13.6142 15.5725C13.5007 15.2984 13.471 14.9968 13.5288 14.7059C13.5867 14.4149 13.7296 14.1476 13.9393 13.9378C14.1491 13.7281 14.4164 13.5852 14.7074 13.5273C14.9983 13.4694 15.2999 13.4991 15.574 13.6127C15.8481 13.7262 16.0824 13.9185 16.2472 14.1651C16.412 14.4118 16.5 14.7018 16.5 14.9985C16.5 15.3963 16.342 15.7778 16.0607 16.0591C15.7794 16.3405 15.3978 16.4985 15 16.4985Z" fill="var(--fill-0, white)"/>
</g>
</svg>
