<svg preserveAspectRatio="none" width="100%" height="100%" overflow="visible" style="display: block;" viewBox="0 0 16 16" fill="none" xmlns="http://www.w3.org/2000/svg">
<g id="ph:check">
<path id="Vector" d="M14.3537 4.85364L6.35375 12.8536C6.30731 12.9001 6.25217 12.937 6.19147 12.9622C6.13077 12.9873 6.06571 13.0003 6 13.0003C5.93429 13.0003 5.86923 12.9873 5.80853 12.9622C5.74783 12.937 5.69268 12.9001 5.64625 12.8536L2.14625 9.35364C2.05243 9.25982 1.99972 9.13257 1.99972 8.99989C1.99972 8.86721 2.05243 8.73996 2.14625 8.64614C2.24007 8.55232 2.36732 8.49961 2.5 8.49961C2.63268 8.49961 2.75993 8.55232 2.85375 8.64614L6 11.793L13.6462 4.14614C13.7401 4.05232 13.8673 3.99961 14 3.99961C14.1327 3.99961 14.2599 4.05232 14.3537 4.14614C14.4476 4.23996 14.5003 4.36721 14.5003 4.49989C14.5003 4.63257 14.4476 4.75982 14.3537 4.85364Z" fill="var(--fill-0, #010101)"/>
</g>
</svg>
