<svg preserveAspectRatio="none" width="100%" height="100%" overflow="visible" style="display: block;" viewBox="0 0 1298 1257" fill="none" xmlns="http://www.w3.org/2000/svg">
<g id="Vector" opacity="0.2">
<mask id="path-1-inside-1_0_4" fill="white">
<path fill-rule="evenodd" clip-rule="evenodd" d="M157.619 937.225C161.921 935.064 165.784 932.155 169.035 928.668L157.619 933.466V937.225Z"/>
<path fill-rule="evenodd" clip-rule="evenodd" d="M157.619 1035.52L154.778 1033.77L157.619 1035.02V1035.52Z"/>
<path d="M337.363 776.061C345.772 768.674 351.08 757.842 351.08 745.771C351.08 744.862 351.05 743.961 350.99 743.068C350.017 728.372 341.167 715.83 328.624 709.625C323.244 706.964 317.186 705.469 310.778 705.469C304.37 705.469 298.311 706.964 292.932 709.626C289.386 711.38 286.135 713.64 283.274 716.313L157.619 666.665V321.28L191.782 295.994C196.963 298.418 202.745 299.772 208.842 299.772C231.1 299.772 249.144 281.729 249.144 259.471C249.144 257.555 249.01 255.671 248.752 253.827C246.976 241.154 239.306 230.37 228.601 224.337C222.763 221.046 216.022 219.169 208.842 219.169C186.584 219.169 168.541 237.213 168.541 259.471C168.541 262.434 168.861 265.323 169.468 268.105L121.927 303.293V690.94L270.666 749.708C272.039 763.869 280.741 775.885 292.932 781.916C298.311 784.577 304.37 786.072 310.778 786.072C317.186 786.072 323.244 784.577 328.624 781.916C331.796 780.347 334.732 778.373 337.363 776.061Z"/>
<path d="M448.369 0L292.932 99.6361V227.38C279.626 233.962 270.476 247.675 270.476 263.525C270.476 279.375 279.626 293.088 292.932 299.67C298.311 302.331 304.37 303.827 310.778 303.827C317.186 303.827 323.244 302.331 328.624 299.67C341.93 293.088 351.08 279.375 351.08 263.525C351.08 247.675 341.93 233.962 328.624 227.38V119.153L448.369 42.3953L569.131 119.804V239.291C556.177 245.993 547.323 259.517 547.323 275.108C547.323 290.7 556.177 304.224 569.131 310.926C574.67 313.791 580.958 315.41 587.624 315.41C593.777 315.41 599.607 314.032 604.823 311.566C618.479 305.113 627.926 291.214 627.926 275.108C627.926 259.003 618.479 245.103 604.823 238.65V100.287L448.369 0Z"/>
<path fill-rule="evenodd" clip-rule="evenodd" d="M604.823 745.526V521.229C618.479 514.776 627.926 500.876 627.926 484.771C627.926 468.665 618.479 454.766 604.823 448.312C599.607 445.847 593.777 444.469 587.624 444.469C580.958 444.469 574.67 446.087 569.131 448.953C556.177 455.655 547.323 469.179 547.323 484.771C547.323 500.362 556.177 513.886 569.131 520.588V721.81L474.527 761.568V197.41C488.089 190.922 497.456 177.072 497.456 161.035C497.456 144.998 488.089 131.148 474.527 124.66C469.266 122.143 463.375 120.733 457.154 120.733C450.557 120.733 444.331 122.318 438.835 125.128C425.786 131.798 416.852 145.373 416.852 161.035C416.852 176.696 425.786 190.271 438.835 196.942V645.141L328.624 601.596V468.211C341.93 461.629 351.08 447.916 351.08 432.065C351.08 416.215 341.93 402.502 328.624 395.92C323.244 393.259 317.186 391.764 310.778 391.764C304.37 391.764 298.311 393.259 292.932 395.92C279.626 402.503 270.476 416.216 270.476 432.065C270.476 447.915 279.626 461.628 292.932 468.211V625.871L438.835 683.518V776.568V777.776V815.283V816.153V870.441L474.527 886.221V800.284L604.823 745.526Z"/>
<path fill-rule="evenodd" clip-rule="evenodd" d="M1140.21 319.235C1135.91 321.397 1132.05 324.306 1128.79 327.792L1140.21 322.995V319.235Z"/>
<path fill-rule="evenodd" clip-rule="evenodd" d="M724.771 76.7525L728.698 74.3348V78.4891L724.771 76.7525Z"/>
<path fill-rule="evenodd" clip-rule="evenodd" d="M825.435 121.267L823.302 120.324V122.212C824.002 121.877 824.714 121.562 825.435 121.267Z"/>
<path fill-rule="evenodd" clip-rule="evenodd" d="M1140.21 220.944L1143.05 222.693L1140.21 221.436V220.944Z"/>
<path fill-rule="evenodd" clip-rule="evenodd" d="M724.771 76.7525L728.698 78.4891V74.3348L724.771 76.7525Z"/>
<path fill-rule="evenodd" clip-rule="evenodd" d="M728.698 78.4891L724.771 76.7525L728.698 74.3348V78.4891Z"/>
<path d="M960.465 480.4C952.057 487.786 946.749 498.618 946.749 510.69C946.749 511.598 946.779 512.499 946.839 513.393C947.812 528.088 956.662 540.63 969.205 546.835C974.585 549.496 980.643 550.991 987.051 550.991C993.459 550.991 999.518 549.496 1004.9 546.835C1008.44 545.081 1011.69 542.82 1014.55 540.148L1140.21 589.795V935.18L1106.05 960.466C1100.87 958.042 1095.08 956.688 1088.99 956.688C1066.73 956.688 1048.68 974.732 1048.68 996.99C1048.68 998.905 1048.82 1000.79 1049.08 1002.63C1050.85 1015.31 1058.52 1026.09 1069.23 1032.12C1075.07 1035.41 1081.81 1037.29 1088.99 1037.29C1111.24 1037.29 1129.29 1019.25 1129.29 996.99C1129.29 994.026 1128.97 991.137 1128.36 988.356L1175.9 953.168V565.52L1027.16 506.752C1025.79 492.591 1017.09 480.575 1004.9 474.545C999.518 471.883 993.459 470.388 987.051 470.388C980.643 470.388 974.585 471.883 969.205 474.544C966.033 476.113 963.097 478.088 960.465 480.4Z"/>
<path fill-rule="evenodd" clip-rule="evenodd" d="M1140.21 322.995L1128.79 327.792C1122.08 334.991 1117.97 344.651 1117.97 355.271C1117.97 360.433 1118.94 365.368 1120.71 369.904C1124.34 379.22 1131.34 386.852 1140.21 391.307C1145.64 394.036 1151.78 395.573 1158.28 395.573C1164.6 395.573 1170.58 394.118 1175.9 391.524C1189.33 384.985 1198.58 371.208 1198.58 355.271C1198.58 349.356 1197.3 343.739 1195.01 338.679C1191.14 330.105 1184.34 323.131 1175.9 319.018V237.22L1143.05 222.693L1140.21 221.436L1004.9 161.6V95.7183L849.432 4.82076e-05L728.698 74.3348V78.4891L724.771 76.7525L693.006 96.3099V473.391L728.698 457.586V116.249L849.432 41.9148L969.205 115.658V249.769C955.899 256.351 946.749 270.064 946.749 285.914C946.749 301.764 955.899 315.477 969.205 322.059C974.585 324.72 980.643 326.216 987.051 326.216C993.459 326.216 999.518 324.72 1004.9 322.059C1018.2 315.477 1027.35 301.764 1027.35 285.914C1027.35 270.064 1018.2 256.351 1004.9 249.769V200.626L1140.21 260.463V319.235V322.995Z"/>
<path d="M849.46 1256.46L1004.9 1156.82V1029.08C1018.2 1022.5 1027.35 1008.79 1027.35 992.935C1027.35 977.086 1018.2 963.373 1004.9 956.79C999.518 954.129 993.459 952.634 987.051 952.634C980.643 952.634 974.585 954.129 969.205 956.79C955.899 963.372 946.749 977.085 946.749 992.935C946.749 1008.79 955.899 1022.5 969.205 1029.08V1137.31L849.46 1214.06L728.698 1136.66V1017.17C741.652 1010.47 750.506 996.944 750.506 981.352C750.506 965.76 741.652 952.237 728.698 945.534C723.159 942.669 716.871 941.05 710.204 941.05C704.052 941.05 698.222 942.429 693.006 944.894C679.35 951.347 669.903 965.246 669.903 981.352C669.903 997.458 679.35 1011.36 693.006 1017.81V1156.17L849.46 1256.46Z"/>
<path fill-rule="evenodd" clip-rule="evenodd" d="M693.006 510.934V735.232C679.35 741.685 669.903 755.584 669.903 771.69C669.903 787.795 679.35 801.695 693.006 808.148C698.222 810.613 704.052 811.991 710.204 811.991C716.871 811.991 723.159 810.373 728.698 807.507C741.652 800.805 750.506 787.281 750.506 771.69C750.506 756.098 741.652 742.574 728.698 735.872V534.65L823.302 494.892V1059.05C809.74 1065.54 800.373 1079.39 800.373 1095.43C800.373 1111.46 809.74 1125.31 823.302 1131.8C828.562 1134.32 834.454 1135.73 840.675 1135.73C847.272 1135.73 853.498 1134.14 858.994 1131.33C872.043 1124.66 880.977 1111.09 880.977 1095.43C880.977 1079.76 872.043 1066.19 858.994 1059.52V611.319L969.205 654.864V788.249C955.899 794.832 946.749 808.545 946.749 824.395C946.749 840.245 955.899 853.958 969.205 860.54C974.585 863.201 980.643 864.697 987.051 864.697C993.459 864.697 999.518 863.201 1004.9 860.54C1018.2 853.958 1027.35 840.245 1027.35 824.395C1027.35 808.545 1018.2 794.832 1004.9 788.25V630.589L858.994 572.942V479.892V478.685V441.177V440.307V386.019L823.302 370.239V456.176L693.006 510.934Z"/>
<path fill-rule="evenodd" clip-rule="evenodd" d="M157.619 933.466L169.035 928.668C175.747 921.469 179.855 911.809 179.855 901.189C179.855 896.027 178.884 891.092 177.116 886.556C173.484 877.24 166.487 869.608 157.619 865.154C152.185 862.424 146.048 860.887 139.553 860.887C133.232 860.887 127.251 862.343 121.927 864.936C108.502 871.476 99.2514 885.252 99.2514 901.189C99.2514 907.104 100.526 912.721 102.814 917.781C106.693 926.355 113.484 933.33 121.927 937.442V1019.24L154.778 1033.77L157.619 1035.02L292.932 1094.86V1160.74L448.397 1256.46L569.131 1182.13L573.058 1179.71L604.823 1160.15V783.069L569.131 798.874V1140.21L448.397 1214.55L328.624 1140.8V1006.69C341.93 1000.11 351.08 986.396 351.08 970.546C351.08 954.696 341.93 940.983 328.624 934.401C323.244 931.74 317.186 930.244 310.778 930.244C304.37 930.244 298.311 931.74 292.932 934.401C279.626 940.983 270.476 954.696 270.476 970.546C270.476 986.396 279.626 1000.11 292.932 1006.69V1055.83L157.619 995.998V937.225V933.466Z"/>
<path fill-rule="evenodd" clip-rule="evenodd" d="M1222.19 874.503C1226.16 867.284 1232.28 861.414 1239.68 857.751V516.047L969.205 396.441L967.372 395.63L823.302 331.921V194.963C809.74 188.474 800.373 174.625 800.373 158.588C800.373 142.551 809.74 128.701 823.302 122.212C824.002 121.877 824.714 121.562 825.435 121.267C830.137 119.345 835.282 118.286 840.675 118.286C847.272 118.286 853.498 119.871 858.994 122.68C867.992 127.28 875.034 135.163 878.538 144.749C880.116 149.065 880.977 153.726 880.977 158.588C880.977 174.249 872.043 187.824 858.994 194.495V308.678L1004.9 373.198L1012.62 376.614L1275.37 492.804V857.751C1280.86 860.466 1285.64 864.395 1289.37 869.186C1294.67 876.01 1297.83 884.584 1297.83 893.896C1297.83 909.746 1288.68 923.459 1275.37 930.041C1269.99 932.702 1263.94 934.198 1257.53 934.198C1251.12 934.198 1245.06 932.702 1239.68 930.041C1233.64 927.052 1228.45 922.592 1224.59 917.13C1219.95 910.563 1217.23 902.548 1217.23 893.896C1217.23 886.866 1219.03 880.256 1222.19 874.503Z"/>
<path fill-rule="evenodd" clip-rule="evenodd" d="M58.1478 740.413V398.709C65.552 395.047 71.6692 389.176 75.6391 381.958C78.8034 376.204 80.6035 369.594 80.6035 362.564C80.6035 353.912 77.877 345.897 73.2365 339.331C69.3758 333.868 64.1904 329.408 58.1478 326.419C52.7684 323.758 46.7097 322.262 40.3017 322.262C33.8937 322.262 27.8351 323.758 22.4557 326.419C9.14985 333.001 0 346.714 0 362.564C0 371.876 3.15803 380.45 8.46149 387.274C12.1853 392.066 16.9669 395.994 22.4557 398.709V763.656L285.207 879.846L292.932 883.263L438.835 947.782V1061.97C425.786 1068.64 416.852 1082.21 416.852 1097.87C416.852 1102.73 417.713 1107.4 419.291 1111.71C422.795 1121.3 429.837 1129.18 438.835 1133.78C444.331 1136.59 450.557 1138.17 457.154 1138.17C462.547 1138.17 467.692 1137.12 472.393 1135.19C473.115 1134.9 473.827 1134.58 474.527 1134.25C488.089 1127.76 497.456 1113.91 497.456 1097.87C497.456 1081.84 488.089 1067.99 474.527 1061.5V924.539L330.456 860.83L328.624 860.02L58.1478 740.413Z"/>
</mask>
<path d="M157.619 933.466L157.425 933.005L157.119 933.133V933.466H157.619ZM1140.21 322.995L1140.4 323.456L1140.71 323.327V322.995H1140.21ZM724.771 76.7525L724.509 76.3267L723.699 76.8252L724.569 77.2098L724.771 76.7525ZM728.698 74.3348H729.198V73.4398L728.436 73.909L728.698 74.3348ZM728.698 78.4891L728.496 78.9464L729.198 79.257V78.4891H728.698ZM169.035 928.668L168.841 928.207L157.425 933.005L157.619 933.466L157.812 933.926L169.228 929.129L169.035 928.668ZM157.619 933.466H157.119V937.225H157.619H158.119V933.466H157.619ZM154.778 1033.77L154.575 1034.22L157.417 1035.48L157.619 1035.02L157.821 1034.57L154.98 1033.31L154.778 1033.77ZM1128.79 327.792L1128.99 328.253L1140.4 323.456L1140.21 322.995L1140.02 322.534L1128.6 327.331L1128.79 327.792ZM1140.21 322.995H1140.71V319.235H1140.21H1139.71V322.995H1140.21ZM724.771 76.7525L725.033 77.1783L728.96 74.7606L728.698 74.3348L728.436 73.909L724.509 76.3267L724.771 76.7525ZM728.698 74.3348H728.198V78.4891H728.698H729.198V74.3348H728.698ZM728.698 78.4891L728.9 78.0319L724.973 76.2952L724.771 76.7525L724.569 77.2098L728.496 78.9464L728.698 78.4891ZM823.302 122.212L823.518 122.663C824.209 122.333 824.912 122.021 825.625 121.73L825.435 121.267L825.246 120.804C824.515 121.103 823.795 121.422 823.086 121.761L823.302 122.212ZM1143.05 222.693L1143.25 222.236L1140.41 220.979L1140.21 221.436L1140.01 221.894L1142.85 223.15L1143.05 222.693ZM157.619 937.225L157.17 936.331L156.619 936.608V937.225H157.619ZM169.035 928.668L168.303 927.986L168.303 927.986L169.035 928.668ZM157.619 1035.52L157.094 1036.37L158.619 1037.31V1035.52H157.619ZM154.778 1033.77L155.302 1032.92L155.244 1032.88L155.182 1032.85L154.778 1033.77ZM157.619 1035.02L158.023 1034.11L156.619 1033.49V1035.02H157.619ZM337.363 776.061L336.703 775.309L336.703 775.309L337.363 776.061ZM350.99 743.068L349.993 743.134L349.993 743.134L350.99 743.068ZM328.624 709.625L329.067 708.729L329.067 708.729L328.624 709.625ZM292.932 709.626L292.488 708.729L292.488 708.729L292.932 709.626ZM283.274 716.313L282.907 717.243L283.495 717.475L283.957 717.043L283.274 716.313ZM157.619 666.665H156.619V667.345L157.251 667.595L157.619 666.665ZM157.619 321.28L157.024 320.476L156.619 320.776V321.28H157.619ZM191.782 295.994L192.206 295.088L191.666 294.836L191.187 295.19L191.782 295.994ZM248.752 253.827L247.762 253.966L247.762 253.966L248.752 253.827ZM228.601 224.337L228.11 225.208L228.11 225.208L228.601 224.337ZM169.468 268.105L170.063 268.909L170.583 268.524L170.445 267.892L169.468 268.105ZM121.927 303.293L121.332 302.489L120.927 302.789V303.293H121.927ZM121.927 690.94H120.927V691.62L121.559 691.87L121.927 690.94ZM270.666 749.708L271.661 749.612L271.602 749.003L271.033 748.778L270.666 749.708ZM292.932 781.916L293.375 781.019L293.375 781.019L292.932 781.916ZM328.624 781.916L329.067 782.812L329.067 782.812L328.624 781.916ZM448.369 0L448.909 -0.841888L448.369 -1.18781L447.83 -0.841887L448.369 0ZM292.932 99.6361L292.392 98.7942L291.932 99.0893V99.6361H292.932ZM292.932 227.38L293.375 228.276L293.932 228.001V227.38H292.932ZM292.932 299.67L293.375 298.774L293.375 298.774L292.932 299.67ZM328.624 299.67L329.067 300.566L329.067 300.566L328.624 299.67ZM328.624 227.38H327.624V228.001L328.18 228.276L328.624 227.38ZM328.624 119.153L328.084 118.311L327.624 118.606V119.153H328.624ZM448.369 42.3953L448.909 41.5535L448.369 41.2075L447.83 41.5535L448.369 42.3953ZM569.131 119.804H570.131V119.257L569.671 118.962L569.131 119.804ZM569.131 239.291L569.591 240.179L570.131 239.899V239.291H569.131ZM569.131 310.926L568.672 311.814L568.672 311.814L569.131 310.926ZM604.823 311.566L604.396 310.662L604.396 310.662L604.823 311.566ZM604.823 238.65H603.823V239.284L604.396 239.554L604.823 238.65ZM604.823 100.287H605.823V99.7405L605.363 99.4455L604.823 100.287ZM604.823 745.526L605.211 746.448L605.823 746.191V745.526H604.823ZM604.823 521.229L604.396 520.325L603.823 520.595V521.229H604.823ZM604.823 448.312L604.396 449.217L604.396 449.217L604.823 448.312ZM569.131 448.953L568.672 448.065L568.672 448.065L569.131 448.953ZM569.131 520.588H570.131V519.98L569.591 519.7L569.131 520.588ZM569.131 721.81L569.518 722.732L570.131 722.475V721.81H569.131ZM474.527 761.568H473.527V763.073L474.914 762.49L474.527 761.568ZM474.527 197.41L474.095 196.508L473.527 196.78V197.41H474.527ZM474.527 124.66L474.095 125.562L474.095 125.562L474.527 124.66ZM438.835 125.128L439.29 126.018L439.29 126.018L438.835 125.128ZM438.835 196.942H439.835V196.33L439.29 196.052L438.835 196.942ZM438.835 645.141L438.467 646.071L439.835 646.612V645.141H438.835ZM328.624 601.596H327.624V602.276L328.256 602.526L328.624 601.596ZM328.624 468.211L328.18 467.314L327.624 467.59V468.211H328.624ZM328.624 395.92L329.067 395.024L329.067 395.024L328.624 395.92ZM292.932 395.92L293.375 396.817L293.375 396.817L292.932 395.92ZM292.932 468.211H293.932V467.59L293.375 467.314L292.932 468.211ZM292.932 625.871H291.932V626.551L292.564 626.801L292.932 625.871ZM438.835 683.518H439.835V682.838L439.202 682.588L438.835 683.518ZM438.835 870.441H437.835V871.092L438.43 871.355L438.835 870.441ZM474.527 886.221L474.123 887.136L475.527 887.756V886.221H474.527ZM474.527 800.284L474.14 799.362L473.527 799.619V800.284H474.527ZM1140.21 319.235L1140.66 320.129L1141.21 319.852V319.235H1140.21ZM1128.79 327.792L1129.53 328.474L1129.53 328.474L1128.79 327.792ZM825.435 121.267L825.031 122.182L825.42 122.354L825.814 122.193L825.435 121.267ZM823.302 120.324L823.706 119.409L822.302 118.788V120.324H823.302ZM823.302 122.212L823.734 123.115L824.302 122.843V122.212H823.302ZM1140.21 220.944L1140.73 220.092L1139.21 219.153V220.944H1140.21ZM1143.05 222.693L1142.53 223.544L1142.58 223.58L1142.65 223.607L1143.05 222.693ZM1140.21 221.436L1139.81 222.351L1141.21 222.972V221.436H1140.21ZM960.465 480.4L961.125 481.151L961.125 481.151L960.465 480.4ZM946.839 513.393L947.836 513.327L947.836 513.327L946.839 513.393ZM969.205 546.835L968.762 547.731L968.762 547.731L969.205 546.835ZM1004.9 546.835L1005.34 547.731L1005.34 547.731L1004.9 546.835ZM1014.55 540.148L1014.92 539.218L1014.33 538.985L1013.87 539.417L1014.55 540.148ZM1140.21 589.795H1141.21V589.115L1140.58 588.865L1140.21 589.795ZM1140.21 935.18L1140.81 935.984L1141.21 935.684V935.18H1140.21ZM1106.05 960.466L1105.62 961.372L1106.16 961.625L1106.64 961.27L1106.05 960.466ZM1049.08 1002.63L1050.07 1002.49L1050.07 1002.49L1049.08 1002.63ZM1069.23 1032.12L1069.72 1031.25L1069.72 1031.25L1069.23 1032.12ZM1128.36 988.356L1127.77 987.552L1127.25 987.937L1127.38 988.569L1128.36 988.356ZM1175.9 953.168L1176.5 953.971L1176.9 953.672V953.168H1175.9ZM1175.9 565.52H1176.9V564.84L1176.27 564.59L1175.9 565.52ZM1027.16 506.752L1026.17 506.849L1026.23 507.457L1026.8 507.682L1027.16 506.752ZM1004.9 474.545L1004.45 475.441L1004.45 475.441L1004.9 474.545ZM969.205 474.544L968.762 473.648L968.762 473.648L969.205 474.544ZM1120.71 369.904L1121.64 369.541L1121.64 369.541L1120.71 369.904ZM1140.21 391.307L1140.66 390.413L1140.66 390.413L1140.21 391.307ZM1175.9 391.524L1175.46 390.625L1175.46 390.625L1175.9 391.524ZM1195.01 338.679L1195.93 338.267L1195.93 338.267L1195.01 338.679ZM1175.9 319.018H1174.9V319.643L1175.46 319.917L1175.9 319.018ZM1175.9 237.22H1176.9V236.569L1176.31 236.305L1175.9 237.22ZM1004.9 161.6H1003.9V162.251L1004.49 162.515L1004.9 161.6ZM1004.9 95.7183H1005.9V95.1597L1005.42 94.8668L1004.9 95.7183ZM849.432 4.82076e-05L849.956 -0.851494L849.432 -1.17429L848.908 -0.851494L849.432 4.82076e-05ZM693.006 96.3099L692.481 95.4584L692.006 95.7513V96.3099H693.006ZM693.006 473.391H692.006V474.927L693.411 474.305L693.006 473.391ZM728.698 457.586L729.103 458.501L729.698 458.237V457.586H728.698ZM728.698 116.249L728.174 115.398L727.698 115.691V116.249H728.698ZM849.432 41.9148L849.956 41.0633L849.432 40.7405L848.908 41.0633L849.432 41.9148ZM969.205 115.658H970.205V115.099L969.729 114.806L969.205 115.658ZM969.205 249.769L969.649 250.665L970.205 250.39V249.769H969.205ZM969.205 322.059L968.762 322.956L968.762 322.956L969.205 322.059ZM1004.9 322.059L1004.45 321.163L1004.45 321.163L1004.9 322.059ZM1004.9 249.769H1003.9V250.39L1004.45 250.665L1004.9 249.769ZM1004.9 200.626L1005.3 199.712L1003.9 199.091V200.626H1004.9ZM1140.21 260.463H1141.21V259.811L1140.61 259.548L1140.21 260.463ZM849.46 1256.46L848.92 1257.3L849.46 1257.65L849.999 1257.3L849.46 1256.46ZM1004.9 1156.82L1005.44 1157.67L1005.9 1157.37V1156.82H1004.9ZM1004.9 1029.08L1004.45 1028.18L1003.9 1028.46V1029.08H1004.9ZM1004.9 956.79L1004.45 957.687L1004.45 957.687L1004.9 956.79ZM969.205 956.79L968.762 955.894L968.762 955.894L969.205 956.79ZM969.205 1029.08H970.205V1028.46L969.649 1028.18L969.205 1029.08ZM969.205 1137.31L969.745 1138.15L970.205 1137.85V1137.31H969.205ZM849.46 1214.06L848.92 1214.91L849.46 1215.25L849.999 1214.91L849.46 1214.06ZM728.698 1136.66H727.698V1137.2L728.158 1137.5L728.698 1136.66ZM728.698 1017.17L728.238 1016.28L727.698 1016.56V1017.17H728.698ZM728.698 945.534L729.157 944.646L729.157 944.646L728.698 945.534ZM693.006 944.894L693.433 945.798L693.433 945.798L693.006 944.894ZM693.006 1017.81H694.006V1017.18L693.433 1016.91L693.006 1017.81ZM693.006 1156.17H692.006V1156.72L692.466 1157.01L693.006 1156.17ZM693.006 510.934L692.618 510.012L692.006 510.269V510.934H693.006ZM693.006 735.232L693.433 736.136L694.006 735.865V735.232H693.006ZM693.006 808.148L693.433 807.244L693.433 807.244L693.006 808.148ZM728.698 807.507L729.157 808.395L729.157 808.395L728.698 807.507ZM728.698 735.872H727.698V736.481L728.238 736.76L728.698 735.872ZM728.698 534.65L728.31 533.728L727.698 533.986V534.65H728.698ZM823.302 494.892H824.302V493.387L822.915 493.97L823.302 494.892ZM823.302 1059.05L823.734 1059.95L824.302 1059.68V1059.05H823.302ZM823.302 1131.8L823.734 1130.9L823.734 1130.9L823.302 1131.8ZM858.994 1131.33L858.539 1130.44L858.539 1130.44L858.994 1131.33ZM858.994 1059.52H857.994V1060.13L858.539 1060.41L858.994 1059.52ZM858.994 611.319L859.362 610.389L857.994 609.849V611.319H858.994ZM969.205 654.864H970.205V654.184L969.573 653.934L969.205 654.864ZM969.205 788.249L969.649 789.146L970.205 788.87V788.249H969.205ZM969.205 860.54L968.762 861.436L968.762 861.436L969.205 860.54ZM1004.9 860.54L1004.45 859.644L1004.45 859.644L1004.9 860.54ZM1004.9 788.25H1003.9V788.871L1004.45 789.146L1004.9 788.25ZM1004.9 630.589H1005.9V629.909L1005.26 629.659L1004.9 630.589ZM858.994 572.942H857.994V573.622L858.627 573.872L858.994 572.942ZM858.994 386.019H859.994V385.368L859.398 385.105L858.994 386.019ZM823.302 370.239L823.706 369.325L822.302 368.704V370.239H823.302ZM823.302 456.176L823.689 457.098L824.302 456.841V456.176H823.302ZM177.116 886.556L176.184 886.919L176.184 886.919L177.116 886.556ZM157.619 865.154L157.17 866.047L157.17 866.047L157.619 865.154ZM121.927 864.936L122.365 865.835L122.365 865.835L121.927 864.936ZM102.814 917.781L101.903 918.194L101.903 918.194L102.814 917.781ZM121.927 937.442H122.927V936.817L122.365 936.543L121.927 937.442ZM121.927 1019.24H120.927V1019.89L121.522 1020.16L121.927 1019.24ZM292.932 1094.86H293.932V1094.21L293.336 1093.95L292.932 1094.86ZM292.932 1160.74H291.932V1161.3L292.407 1161.59L292.932 1160.74ZM448.397 1256.46L447.873 1257.31L448.397 1257.63L448.921 1257.31L448.397 1256.46ZM569.131 1182.13L568.607 1181.27L568.607 1181.27L569.131 1182.13ZM573.058 1179.71L573.582 1180.56L573.582 1180.56L573.058 1179.71ZM604.823 1160.15L605.347 1161L605.823 1160.71V1160.15H604.823ZM604.823 783.069H605.823V781.533L604.418 782.155L604.823 783.069ZM569.131 798.874L568.726 797.96L568.131 798.223V798.874H569.131ZM569.131 1140.21L569.655 1141.06L570.131 1140.77V1140.21H569.131ZM448.397 1214.55L447.873 1215.4L448.397 1215.72L448.921 1215.4L448.397 1214.55ZM328.624 1140.8H327.624V1141.36L328.1 1141.65L328.624 1140.8ZM328.624 1006.69L328.18 1005.79L327.624 1006.07V1006.69H328.624ZM328.624 934.401L329.067 933.504L329.067 933.504L328.624 934.401ZM292.932 934.401L293.375 935.297L293.375 935.297L292.932 934.401ZM292.932 1006.69H293.932V1006.07L293.375 1005.79L292.932 1006.69ZM292.932 1055.83L292.527 1056.75L293.932 1057.37V1055.83H292.932ZM157.619 995.998H156.619V996.649L157.214 996.912L157.619 995.998ZM1222.19 874.503L1221.31 874.021L1221.31 874.021L1222.19 874.503ZM1239.68 857.751L1240.12 858.647L1240.68 858.372V857.751H1239.68ZM1239.68 516.047H1240.68V515.396L1240.09 515.132L1239.68 516.047ZM969.205 396.441L968.801 397.355L968.801 397.355L969.205 396.441ZM967.372 395.63L967.777 394.716L967.777 394.716L967.372 395.63ZM823.302 331.921H822.302V332.573L822.898 332.836L823.302 331.921ZM823.302 194.963H824.302V194.333L823.734 194.061L823.302 194.963ZM858.994 122.68L858.539 123.571L858.539 123.571L858.994 122.68ZM878.538 144.749L877.599 145.093L877.599 145.093L878.538 144.749ZM858.994 194.495L858.539 193.605L857.994 193.883V194.495H858.994ZM858.994 308.678H857.994V309.33L858.59 309.593L858.994 308.678ZM1004.9 373.198L1005.3 372.283L1005.3 372.283L1004.9 373.198ZM1012.62 376.614L1012.22 377.528L1012.22 377.528L1012.62 376.614ZM1275.37 492.804H1276.37V492.153L1275.78 491.889L1275.37 492.804ZM1275.37 857.751H1274.37V858.372L1274.93 858.647L1275.37 857.751ZM1289.37 869.186L1288.58 869.8L1288.58 869.8L1289.37 869.186ZM1275.37 930.041L1274.93 929.145L1274.93 929.145L1275.37 930.041ZM1239.68 930.041L1239.24 930.937L1239.24 930.937L1239.68 930.041ZM1224.59 917.13L1223.78 917.707L1223.78 917.707L1224.59 917.13ZM58.1478 740.413H57.1478V741.065L57.7434 741.328L58.1478 740.413ZM58.1478 398.709L57.7044 397.813L57.1478 398.088V398.709H58.1478ZM75.6391 381.958L74.7629 381.476L74.7629 381.476L75.6391 381.958ZM73.2365 339.331L74.0531 338.754L74.0531 338.754L73.2365 339.331ZM58.1478 326.419L58.5912 325.523L58.5912 325.523L58.1478 326.419ZM22.4557 326.419L22.8991 327.315L22.8991 327.315L22.4557 326.419ZM8.46149 387.274L7.67191 387.888L7.67191 387.888L8.46149 387.274ZM22.4557 398.709H23.4557V398.088L22.8991 397.813L22.4557 398.709ZM22.4557 763.656H21.4557V764.307L22.0512 764.571L22.4557 763.656ZM285.207 879.846L285.611 878.932L285.611 878.932L285.207 879.846ZM292.932 883.263L292.527 884.177L292.527 884.177L292.932 883.263ZM438.835 947.782H439.835V947.131L439.239 946.867L438.835 947.782ZM438.835 1061.97L439.29 1062.86L439.835 1062.58V1061.97H438.835ZM419.291 1111.71L420.23 1111.37L420.23 1111.37L419.291 1111.71ZM438.835 1133.78L439.29 1132.89L439.29 1132.89L438.835 1133.78ZM472.393 1135.19L472.015 1134.27L472.015 1134.27L472.393 1135.19ZM474.527 1134.25L474.958 1135.15L474.959 1135.15L474.527 1134.25ZM474.527 1061.5H473.527V1062.13L474.095 1062.4L474.527 1061.5ZM474.527 924.539H475.527V923.888L474.931 923.624L474.527 924.539ZM330.456 860.83L330.052 861.745L330.052 861.745L330.456 860.83ZM328.624 860.02L329.028 859.105L329.028 859.105L328.624 860.02ZM157.619 937.225L158.068 938.119C162.477 935.904 166.435 932.922 169.766 929.35L169.035 928.668L168.303 927.986C165.132 931.387 161.365 934.224 157.17 936.331L157.619 937.225ZM157.619 1035.52L158.143 1034.67L155.302 1032.92L154.778 1033.77L154.253 1034.62L157.094 1036.37L157.619 1035.52ZM157.619 1035.02H156.619V1035.52H157.619H158.619V1035.02H157.619ZM337.363 776.061L338.023 776.812C346.639 769.244 352.08 758.142 352.08 745.771H351.08H350.08C350.08 757.543 344.905 768.105 336.703 775.309L337.363 776.061ZM351.08 745.771H352.08C352.08 744.84 352.049 743.917 351.988 743.001L350.99 743.068L349.993 743.134C350.05 744.005 350.08 744.884 350.08 745.771H351.08ZM350.99 743.068L351.988 743.002C350.991 727.939 341.92 715.087 329.067 708.729L328.624 709.625L328.18 710.522C340.415 716.574 349.044 728.806 349.993 743.134L350.99 743.068ZM328.624 709.625L329.067 708.729C323.553 706.001 317.343 704.469 310.778 704.469V705.469V706.469C317.029 706.469 322.936 707.927 328.18 710.522L328.624 709.625ZM310.778 705.469V704.469C304.213 704.469 298.003 706.001 292.488 708.729L292.932 709.626L293.375 710.522C298.62 707.927 304.527 706.469 310.778 706.469V705.469ZM292.932 709.626L292.488 708.729C288.854 710.527 285.523 712.844 282.592 715.582L283.274 716.313L283.957 717.043C286.747 714.437 289.918 712.232 293.375 710.522L292.932 709.626ZM283.274 716.313L283.642 715.383L157.986 665.735L157.619 666.665L157.251 667.595L282.907 717.243L283.274 716.313ZM157.619 666.665H158.619V321.28H157.619H156.619V666.665H157.619ZM157.619 321.28L158.214 322.084L192.377 296.798L191.782 295.994L191.187 295.19L157.024 320.476L157.619 321.28ZM191.782 295.994L191.358 296.9C196.669 299.385 202.595 300.772 208.842 300.772V299.772V298.772C202.894 298.772 197.257 297.452 192.206 295.088L191.782 295.994ZM208.842 299.772V300.772C231.653 300.772 250.144 282.281 250.144 259.471H249.144H248.144C248.144 281.176 230.548 298.772 208.842 298.772V299.772ZM249.144 259.471H250.144C250.144 257.509 250.007 255.578 249.742 253.689L248.752 253.827L247.762 253.966C248.014 255.764 248.144 257.602 248.144 259.471H249.144ZM248.752 253.827L249.742 253.689C247.922 240.697 240.06 229.647 229.092 223.466L228.601 224.337L228.11 225.208C238.551 231.092 246.03 241.61 247.762 253.966L248.752 253.827ZM228.601 224.337L229.092 223.466C223.108 220.093 216.198 218.169 208.842 218.169V219.169V220.169C215.845 220.169 222.418 222 228.11 225.208L228.601 224.337ZM208.842 219.169V218.169C186.032 218.169 167.541 236.66 167.541 259.471H168.541H169.541C169.541 237.765 187.137 220.169 208.842 220.169V219.169ZM168.541 259.471H167.541C167.541 262.506 167.868 265.467 168.491 268.318L169.468 268.105L170.445 267.892C169.853 265.18 169.541 262.362 169.541 259.471H168.541ZM169.468 268.105L168.873 267.301L121.332 302.489L121.927 303.293L122.522 304.096L170.063 268.909L169.468 268.105ZM121.927 303.293H120.927V690.94H121.927H122.927V303.293H121.927ZM121.927 690.94L121.559 691.87L270.298 750.638L270.666 749.708L271.033 748.778L122.294 690.01L121.927 690.94ZM270.666 749.708L269.671 749.805C271.078 764.32 279.997 776.633 292.488 782.812L292.932 781.916L293.375 781.019C281.485 775.138 273 763.418 271.661 749.612L270.666 749.708ZM292.932 781.916L292.488 782.812C298.003 785.54 304.213 787.072 310.778 787.072V786.072V785.072C304.527 785.072 298.62 783.614 293.375 781.019L292.932 781.916ZM310.778 786.072V787.072C317.343 787.072 323.553 785.54 329.067 782.812L328.624 781.916L328.18 781.02C322.936 783.614 317.029 785.072 310.778 785.072V786.072ZM328.624 781.916L329.067 782.812C332.318 781.204 335.327 779.181 338.023 776.812L337.363 776.061L336.703 775.309C334.136 777.564 331.273 779.49 328.18 781.02L328.624 781.916ZM448.369 0L447.83 -0.841887L292.392 98.7942L292.932 99.6361L293.471 100.478L448.909 0.841887L448.369 0ZM292.932 99.6361H291.932V227.38H292.932H293.932V99.6361H292.932ZM292.932 227.38L292.488 226.483C278.855 233.228 269.476 247.28 269.476 263.525H270.476H271.476C271.476 248.07 280.397 234.696 293.375 228.276L292.932 227.38ZM270.476 263.525H269.476C269.476 279.77 278.855 293.822 292.488 300.566L292.932 299.67L293.375 298.774C280.397 292.354 271.476 278.98 271.476 263.525H270.476ZM292.932 299.67L292.488 300.566C298.003 303.294 304.213 304.827 310.778 304.827V303.827V302.827C304.527 302.827 298.62 301.368 293.375 298.774L292.932 299.67ZM310.778 303.827V304.827C317.343 304.827 323.553 303.294 329.067 300.566L328.624 299.67L328.18 298.774C322.936 301.368 317.029 302.827 310.778 302.827V303.827ZM328.624 299.67L329.067 300.566C342.701 293.822 352.08 279.77 352.08 263.525H351.08H350.08C350.08 278.98 341.159 292.354 328.18 298.774L328.624 299.67ZM351.08 263.525H352.08C352.08 247.28 342.701 233.227 329.067 226.483L328.624 227.38L328.18 228.276C341.159 234.696 350.08 248.07 350.08 263.525H351.08ZM328.624 227.38H329.624V119.153H328.624H327.624V227.38H328.624ZM328.624 119.153L329.163 119.995L448.909 43.2372L448.369 42.3953L447.83 41.5535L328.084 118.311L328.624 119.153ZM448.369 42.3953L447.83 43.2372L568.591 120.646L569.131 119.804L569.671 118.962L448.909 41.5535L448.369 42.3953ZM569.131 119.804H568.131V239.291H569.131H570.131V119.804H569.131ZM569.131 239.291L568.672 238.403C555.398 245.27 546.323 259.128 546.323 275.108H547.323H548.323C548.323 259.905 556.955 246.716 569.591 240.179L569.131 239.291ZM547.323 275.108H546.323C546.323 291.088 555.398 304.947 568.672 311.814L569.131 310.926L569.591 310.038C556.955 303.501 548.323 290.312 548.323 275.108H547.323ZM569.131 310.926L568.672 311.814C574.349 314.751 580.794 316.41 587.624 316.41V315.41V314.41C581.122 314.41 574.991 312.832 569.591 310.038L569.131 310.926ZM587.624 315.41V316.41C593.928 316.41 599.903 314.997 605.25 312.471L604.823 311.566L604.396 310.662C599.31 313.066 593.626 314.41 587.624 314.41V315.41ZM604.823 311.566L605.25 312.471C619.242 305.858 628.926 291.615 628.926 275.108H627.926H626.926C626.926 290.813 617.715 304.368 604.396 310.662L604.823 311.566ZM627.926 275.108H628.926C628.926 258.601 619.242 244.358 605.25 237.746L604.823 238.65L604.396 239.554C617.715 245.848 626.926 259.404 626.926 275.108H627.926ZM604.823 238.65H605.823V100.287H604.823H603.823V238.65H604.823ZM604.823 100.287L605.363 99.4455L448.909 -0.841888L448.369 0L447.83 0.841888L604.284 101.129L604.823 100.287ZM604.823 745.526H605.823V521.229H604.823H603.823V745.526H604.823ZM604.823 521.229L605.25 522.133C619.242 515.521 628.926 501.277 628.926 484.771H627.926H626.926C626.926 500.475 617.715 514.03 604.396 520.325L604.823 521.229ZM627.926 484.771H628.926C628.926 468.264 619.242 454.02 605.25 447.408L604.823 448.312L604.396 449.217C617.715 455.511 626.926 469.066 626.926 484.771H627.926ZM604.823 448.312L605.25 447.408C599.903 444.881 593.928 443.469 587.624 443.469V444.469V445.469C593.626 445.469 599.31 446.813 604.396 449.217L604.823 448.312ZM587.624 444.469V443.469C580.794 443.469 574.349 445.128 568.672 448.065L569.131 448.953L569.591 449.841C574.991 447.047 581.122 445.469 587.624 445.469V444.469ZM569.131 448.953L568.672 448.065C555.398 454.932 546.323 468.791 546.323 484.771H547.323H548.323C548.323 469.567 556.955 456.378 569.591 449.841L569.131 448.953ZM547.323 484.771H546.323C546.323 500.751 555.398 514.609 568.672 521.476L569.131 520.588L569.591 519.7C556.955 513.163 548.323 499.974 548.323 484.771H547.323ZM569.131 520.588H568.131V721.81H569.131H570.131V520.588H569.131ZM569.131 721.81L568.744 720.888L474.14 760.646L474.527 761.568L474.914 762.49L569.518 722.732L569.131 721.81ZM474.527 761.568H475.527V197.41H474.527H473.527V761.568H474.527ZM474.527 197.41L474.959 198.312C488.854 191.664 498.456 177.471 498.456 161.035H497.456H496.456C496.456 176.673 487.323 190.179 474.095 196.508L474.527 197.41ZM497.456 161.035H498.456C498.456 144.598 488.854 130.406 474.959 123.758L474.527 124.66L474.095 125.562C487.323 131.891 496.456 145.397 496.456 161.035H497.456ZM474.527 124.66L474.959 123.758C469.566 121.177 463.527 119.733 457.154 119.733V120.733V121.733C463.222 121.733 468.967 123.108 474.095 125.562L474.527 124.66ZM457.154 120.733V119.733C450.395 119.733 444.014 121.357 438.38 124.237L438.835 125.128L439.29 126.018C444.649 123.279 450.719 121.733 457.154 121.733V120.733ZM438.835 125.128L438.38 124.237C425.009 131.072 415.852 144.983 415.852 161.035H416.852H417.852C417.852 145.763 426.562 132.525 439.29 126.018L438.835 125.128ZM416.852 161.035H415.852C415.852 177.086 425.009 190.998 438.38 197.833L438.835 196.942L439.29 196.052C426.562 189.545 417.852 176.306 417.852 161.035H416.852ZM438.835 196.942H437.835V645.141H438.835H439.835V196.942H438.835ZM438.835 645.141L439.202 644.211L328.991 600.666L328.624 601.596L328.256 602.526L438.467 646.071L438.835 645.141ZM328.624 601.596H329.624V468.211H328.624H327.624V601.596H328.624ZM328.624 468.211L329.067 469.107C342.701 462.363 352.08 448.31 352.08 432.065H351.08H350.08C350.08 447.521 341.159 460.894 328.18 467.314L328.624 468.211ZM351.08 432.065H352.08C352.08 415.821 342.701 401.768 329.067 395.024L328.624 395.92L328.18 396.817C341.159 403.236 350.08 416.61 350.08 432.065H351.08ZM328.624 395.92L329.067 395.024C323.553 392.296 317.343 390.764 310.778 390.764V391.764V392.764C317.029 392.764 322.936 394.222 328.18 396.817L328.624 395.92ZM310.778 391.764V390.764C304.213 390.764 298.003 392.296 292.488 395.024L292.932 395.92L293.375 396.817C298.62 394.222 304.527 392.764 310.778 392.764V391.764ZM292.932 395.92L292.488 395.024C278.855 401.768 269.476 415.821 269.476 432.065H270.476H271.476C271.476 416.61 280.397 403.237 293.375 396.817L292.932 395.92ZM270.476 432.065H269.476C269.476 448.31 278.855 462.363 292.488 469.107L292.932 468.211L293.375 467.314C280.397 460.894 271.476 447.521 271.476 432.065H270.476ZM292.932 468.211H291.932V625.871H292.932H293.932V468.211H292.932ZM292.932 625.871L292.564 626.801L438.467 684.448L438.835 683.518L439.202 682.588L293.299 624.941L292.932 625.871ZM438.835 683.518H437.835V776.568H438.835H439.835V683.518H438.835ZM438.835 776.568H437.835V777.776H438.835H439.835V776.568H438.835ZM438.835 777.776H437.835V815.283H438.835H439.835V777.776H438.835ZM438.835 815.283H437.835V816.153H438.835H439.835V815.283H438.835ZM438.835 816.153H437.835V870.441H438.835H439.835V816.153H438.835ZM438.835 870.441L438.43 871.355L474.123 887.136L474.527 886.221L474.931 885.306L439.239 869.526L438.835 870.441ZM474.527 886.221H475.527V800.284H474.527H473.527V886.221H474.527ZM474.527 800.284L474.914 801.206L605.211 746.448L604.823 745.526L604.436 744.604L474.14 799.362L474.527 800.284ZM1140.21 319.235L1139.76 318.342C1135.35 320.557 1131.39 323.538 1128.06 327.11L1128.79 327.792L1129.53 328.474C1132.7 325.073 1136.46 322.236 1140.66 320.129L1140.21 319.235ZM825.435 121.267L825.84 120.352L823.706 119.409L823.302 120.324L822.898 121.238L825.031 122.182L825.435 121.267ZM823.302 120.324H822.302V122.212H823.302H824.302V120.324H823.302ZM1140.21 220.944L1139.69 221.795L1142.53 223.544L1143.05 222.693L1143.58 221.841L1140.73 220.092L1140.21 220.944ZM1140.21 221.436H1141.21V220.944H1140.21H1139.21V221.436H1140.21ZM960.465 480.4L959.806 479.648C951.19 487.216 945.749 498.318 945.749 510.69H946.749H947.749C947.749 498.918 952.924 488.355 961.125 481.151L960.465 480.4ZM946.749 510.69H945.749C945.749 511.62 945.78 512.543 945.841 513.459L946.839 513.393L947.836 513.327C947.779 512.455 947.749 511.576 947.749 510.69H946.749ZM946.839 513.393L945.841 513.459C946.838 528.522 955.909 541.373 968.762 547.731L969.205 546.835L969.649 545.939C957.414 539.886 948.785 527.655 947.836 513.327L946.839 513.393ZM969.205 546.835L968.762 547.731C974.276 550.459 980.486 551.991 987.051 551.991V550.991V549.991C980.8 549.991 974.893 548.533 969.649 545.938L969.205 546.835ZM987.051 550.991V551.991C993.616 551.991 999.826 550.459 1005.34 547.731L1004.9 546.835L1004.45 545.938C999.209 548.533 993.302 549.991 987.051 549.991V550.991ZM1004.9 546.835L1005.34 547.731C1008.97 545.933 1012.31 543.617 1015.24 540.878L1014.55 540.148L1013.87 539.417C1011.08 542.023 1007.91 544.228 1004.45 545.938L1004.9 546.835ZM1014.55 540.148L1014.19 541.078L1139.84 590.725L1140.21 589.795L1140.58 588.865L1014.92 539.218L1014.55 540.148ZM1140.21 589.795H1139.21V935.18H1140.21H1141.21V589.795H1140.21ZM1140.21 935.18L1139.62 934.377L1105.45 959.663L1106.05 960.466L1106.64 961.27L1140.81 935.984L1140.21 935.18ZM1106.05 960.466L1106.47 959.561C1101.16 957.076 1095.23 955.688 1088.99 955.688V956.688V957.688C1094.93 957.688 1100.57 959.009 1105.62 961.372L1106.05 960.466ZM1088.99 956.688V955.688C1066.18 955.688 1047.68 974.179 1047.68 996.99H1048.68H1049.68C1049.68 975.284 1067.28 957.688 1088.99 957.688V956.688ZM1048.68 996.99H1047.68C1047.68 998.952 1047.82 1000.88 1048.09 1002.77L1049.08 1002.63L1050.07 1002.49C1049.82 1000.7 1049.68 998.858 1049.68 996.99H1048.68ZM1049.08 1002.63L1048.09 1002.77C1049.91 1015.76 1057.77 1026.81 1068.74 1032.99L1069.23 1032.12L1069.72 1031.25C1059.28 1025.37 1051.8 1014.85 1050.07 1002.49L1049.08 1002.63ZM1069.23 1032.12L1068.74 1032.99C1074.72 1036.37 1081.63 1038.29 1088.99 1038.29V1037.29V1036.29C1081.98 1036.29 1075.41 1034.46 1069.72 1031.25L1069.23 1032.12ZM1088.99 1037.29V1038.29C1111.8 1038.29 1130.29 1019.8 1130.29 996.99H1129.29H1128.29C1128.29 1018.7 1110.69 1036.29 1088.99 1036.29V1037.29ZM1129.29 996.99H1130.29C1130.29 993.954 1129.96 990.993 1129.34 988.142L1128.36 988.356L1127.38 988.569C1127.98 991.281 1128.29 994.098 1128.29 996.99H1129.29ZM1128.36 988.356L1128.96 989.159L1176.5 953.971L1175.9 953.168L1175.31 952.364L1127.77 987.552L1128.36 988.356ZM1175.9 953.168H1176.9V565.52H1175.9H1174.9V953.168H1175.9ZM1175.9 565.52L1176.27 564.59L1027.53 505.822L1027.16 506.752L1026.8 507.682L1175.53 566.45L1175.9 565.52ZM1027.16 506.752L1028.16 506.656C1026.75 492.14 1017.83 479.827 1005.34 473.648L1004.9 474.545L1004.45 475.441C1016.34 481.323 1024.83 493.042 1026.17 506.849L1027.16 506.752ZM1004.9 474.545L1005.34 473.648C999.826 470.92 993.616 469.388 987.051 469.388V470.388V471.388C993.302 471.388 999.209 472.846 1004.45 475.441L1004.9 474.545ZM987.051 470.388V469.388C980.486 469.388 974.276 470.92 968.762 473.648L969.205 474.544L969.649 475.441C974.893 472.846 980.8 471.388 987.051 471.388V470.388ZM969.205 474.544L968.762 473.648C965.511 475.256 962.502 477.279 959.806 479.648L960.465 480.4L961.125 481.151C963.692 478.896 966.556 476.971 969.649 475.441L969.205 474.544ZM1128.79 327.792L1128.06 327.11C1121.18 334.487 1116.97 344.389 1116.97 355.271H1117.97H1118.97C1118.97 344.914 1122.98 335.495 1129.53 328.474L1128.79 327.792ZM1117.97 355.271H1116.97C1116.97 360.559 1117.97 365.618 1119.78 370.268L1120.71 369.904L1121.64 369.541C1119.92 365.119 1118.97 360.307 1118.97 355.271H1117.97ZM1120.71 369.904L1119.78 370.268C1123.5 379.815 1130.67 387.635 1139.76 392.2L1140.21 391.307L1140.66 390.413C1132.01 386.069 1125.19 378.625 1121.64 369.541L1120.71 369.904ZM1140.21 391.307L1139.76 392.2C1145.33 394.998 1151.62 396.573 1158.28 396.573V395.573V394.573C1151.94 394.573 1145.96 393.074 1140.66 390.413L1140.21 391.307ZM1158.28 395.573V396.573C1164.75 396.573 1170.88 395.082 1176.34 392.423L1175.9 391.524L1175.46 390.625C1170.27 393.154 1164.44 394.573 1158.28 394.573V395.573ZM1175.9 391.524L1176.34 392.423C1190.1 385.722 1199.58 371.605 1199.58 355.271H1198.58H1197.58C1197.58 370.811 1188.56 384.247 1175.46 390.625L1175.9 391.524ZM1198.58 355.271H1199.58C1199.58 349.211 1198.27 343.454 1195.93 338.267L1195.01 338.679L1194.1 339.091C1196.33 344.024 1197.58 349.501 1197.58 355.271H1198.58ZM1195.01 338.679L1195.93 338.267C1191.95 329.48 1184.99 322.333 1176.34 318.119L1175.9 319.018L1175.46 319.917C1183.7 323.928 1190.32 330.73 1194.1 339.091L1195.01 338.679ZM1175.9 319.018H1176.9V237.22H1175.9H1174.9V319.018H1175.9ZM1175.9 237.22L1176.31 236.305L1143.46 221.778L1143.05 222.693L1142.65 223.607L1175.5 238.134L1175.9 237.22ZM1140.21 221.436L1140.61 220.522L1005.3 160.686L1004.9 161.6L1004.49 162.515L1139.81 222.351L1140.21 221.436ZM1004.9 161.6H1005.9V95.7183H1004.9H1003.9V161.6H1004.9ZM1004.9 95.7183L1005.42 94.8668L849.956 -0.851494L849.432 4.82076e-05L848.908 0.851591L1004.37 96.5699L1004.9 95.7183ZM849.432 4.82076e-05L848.908 -0.851494L728.174 73.4833L728.698 74.3348L729.222 75.1863L849.956 0.851591L849.432 4.82076e-05ZM724.771 76.7525L724.247 75.901L692.481 95.4584L693.006 96.3099L693.53 97.1615L725.295 77.604L724.771 76.7525ZM693.006 96.3099H692.006V473.391H693.006H694.006V96.3099H693.006ZM693.006 473.391L693.411 474.305L729.103 458.501L728.698 457.586L728.293 456.672L692.601 472.477L693.006 473.391ZM728.698 457.586H729.698V116.249H728.698H727.698V457.586H728.698ZM728.698 116.249L729.222 117.101L849.956 42.7664L849.432 41.9148L848.908 41.0633L728.174 115.398L728.698 116.249ZM849.432 41.9148L848.908 42.7664L968.681 116.509L969.205 115.658L969.729 114.806L849.956 41.0633L849.432 41.9148ZM969.205 115.658H968.205V249.769H969.205H970.205V115.658H969.205ZM969.205 249.769L968.762 248.873C955.128 255.617 945.749 269.669 945.749 285.914H946.749H947.749C947.749 270.459 956.67 257.085 969.649 250.665L969.205 249.769ZM946.749 285.914H945.749C945.749 302.159 955.128 316.212 968.762 322.956L969.205 322.059L969.649 321.163C956.67 314.743 947.749 301.37 947.749 285.914H946.749ZM969.205 322.059L968.762 322.956C974.276 325.683 980.486 327.216 987.051 327.216V326.216V325.216C980.8 325.216 974.893 323.757 969.649 321.163L969.205 322.059ZM987.051 326.216V327.216C993.616 327.216 999.826 325.683 1005.34 322.956L1004.9 322.059L1004.45 321.163C999.209 323.757 993.302 325.216 987.051 325.216V326.216ZM1004.9 322.059L1005.34 322.956C1018.97 316.211 1028.35 302.159 1028.35 285.914H1027.35H1026.35C1026.35 301.369 1017.43 314.743 1004.45 321.163L1004.9 322.059ZM1027.35 285.914H1028.35C1028.35 269.67 1018.97 255.617 1005.34 248.873L1004.9 249.769L1004.45 250.665C1017.43 257.085 1026.35 270.459 1026.35 285.914H1027.35ZM1004.9 249.769H1005.9V200.626H1004.9H1003.9V249.769H1004.9ZM1004.9 200.626L1004.49 201.541L1139.81 261.377L1140.21 260.463L1140.61 259.548L1005.3 199.712L1004.9 200.626ZM1140.21 260.463H1139.21V319.235H1140.21H1141.21V260.463H1140.21ZM849.46 1256.46L849.999 1257.3L1005.44 1157.67L1004.9 1156.82L1004.36 1155.98L848.92 1255.62L849.46 1256.46ZM1004.9 1156.82H1005.9V1029.08H1004.9H1003.9V1156.82H1004.9ZM1004.9 1029.08L1005.34 1029.98C1018.97 1023.23 1028.35 1009.18 1028.35 992.935H1027.35H1026.35C1026.35 1008.39 1017.43 1021.76 1004.45 1028.18L1004.9 1029.08ZM1027.35 992.935H1028.35C1028.35 976.691 1018.97 962.638 1005.34 955.894L1004.9 956.79L1004.45 957.687C1017.43 964.107 1026.35 977.48 1026.35 992.935H1027.35ZM1004.9 956.79L1005.34 955.894C999.826 953.166 993.616 951.634 987.051 951.634V952.634V953.634C993.302 953.634 999.209 955.092 1004.45 957.687L1004.9 956.79ZM987.051 952.634V951.634C980.486 951.634 974.276 953.166 968.762 955.894L969.205 956.79L969.649 957.687C974.893 955.092 980.8 953.634 987.051 953.634V952.634ZM969.205 956.79L968.762 955.894C955.128 962.638 945.749 976.691 945.749 992.935H946.749H947.749C947.749 977.48 956.67 964.106 969.649 957.687L969.205 956.79ZM946.749 992.935H945.749C945.749 1009.18 955.128 1023.23 968.762 1029.98L969.205 1029.08L969.649 1028.18C956.67 1021.76 947.749 1008.39 947.749 992.935H946.749ZM969.205 1029.08H968.205V1137.31H969.205H970.205V1029.08H969.205ZM969.205 1137.31L968.665 1136.47L848.92 1213.22L849.46 1214.06L849.999 1214.91L969.745 1138.15L969.205 1137.31ZM849.46 1214.06L849.999 1213.22L729.237 1135.81L728.698 1136.66L728.158 1137.5L848.92 1214.91L849.46 1214.06ZM728.698 1136.66H729.698V1017.17H728.698H727.698V1136.66H728.698ZM728.698 1017.17L729.157 1018.06C742.431 1011.19 751.506 997.332 751.506 981.352H750.506H749.506C749.506 996.555 740.874 1009.74 728.238 1016.28L728.698 1017.17ZM750.506 981.352H751.506C751.506 965.372 742.431 951.513 729.157 944.646L728.698 945.534L728.238 946.422C740.874 952.96 749.506 966.149 749.506 981.352H750.506ZM728.698 945.534L729.157 944.646C723.48 941.709 717.034 940.05 710.204 940.05V941.05V942.05C716.707 942.05 722.838 943.629 728.238 946.422L728.698 945.534ZM710.204 941.05V940.05C703.901 940.05 697.926 941.463 692.578 943.99L693.006 944.894L693.433 945.798C698.518 943.395 704.203 942.05 710.204 942.05V941.05ZM693.006 944.894L692.578 943.99C678.586 950.602 668.903 964.845 668.903 981.352H669.903H670.903C670.903 965.647 680.114 952.092 693.433 945.798L693.006 944.894ZM669.903 981.352H668.903C668.903 997.859 678.586 1012.1 692.578 1018.71L693.006 1017.81L693.433 1016.91C680.114 1010.61 670.903 997.057 670.903 981.352H669.903ZM693.006 1017.81H692.006V1156.17H693.006H694.006V1017.81H693.006ZM693.006 1156.17L692.466 1157.01L848.92 1257.3L849.46 1256.46L849.999 1255.62L693.545 1155.33L693.006 1156.17ZM693.006 510.934H692.006V735.232H693.006H694.006V510.934H693.006ZM693.006 735.232L692.578 734.327C678.586 740.94 668.903 755.183 668.903 771.69H669.903H670.903C670.903 755.985 680.114 742.43 693.433 736.136L693.006 735.232ZM669.903 771.69H668.903C668.903 788.197 678.586 802.44 692.578 809.052L693.006 808.148L693.433 807.244C680.114 800.95 670.903 787.394 670.903 771.69H669.903ZM693.006 808.148L692.578 809.052C697.925 811.579 703.901 812.991 710.204 812.991V811.991V810.991C704.203 810.991 698.518 809.647 693.433 807.244L693.006 808.148ZM710.204 811.991V812.991C717.034 812.991 723.48 811.333 729.157 808.395L728.698 807.507L728.238 806.619C722.838 809.413 716.707 810.991 710.204 810.991V811.991ZM728.698 807.507L729.157 808.395C742.431 801.528 751.506 787.67 751.506 771.69H750.506H749.506C749.506 786.893 740.874 800.082 728.238 806.619L728.698 807.507ZM750.506 771.69H751.506C751.506 755.71 742.431 741.851 729.157 734.984L728.698 735.872L728.238 736.76C740.874 743.298 749.506 756.486 749.506 771.69H750.506ZM728.698 735.872H729.698V534.65H728.698H727.698V735.872H728.698ZM728.698 534.65L729.085 535.572L823.689 495.814L823.302 494.892L822.915 493.97L728.31 533.728L728.698 534.65ZM823.302 494.892H822.302V1059.05H823.302H824.302V494.892H823.302ZM823.302 1059.05L822.87 1058.15C808.975 1064.8 799.373 1078.99 799.373 1095.43H800.373H801.373C801.373 1079.79 810.506 1066.28 823.734 1059.95L823.302 1059.05ZM800.373 1095.43H799.373C799.373 1111.86 808.975 1126.05 822.87 1132.7L823.302 1131.8L823.734 1130.9C810.506 1124.57 801.373 1111.06 801.373 1095.43H800.373ZM823.302 1131.8L822.87 1132.7C828.263 1135.28 834.302 1136.73 840.675 1136.73V1135.73V1134.73C834.607 1134.73 828.862 1133.35 823.734 1130.9L823.302 1131.8ZM840.675 1135.73V1136.73C847.433 1136.73 853.815 1135.1 859.449 1132.22L858.994 1131.33L858.539 1130.44C853.18 1133.18 847.11 1134.73 840.675 1134.73V1135.73ZM858.994 1131.33L859.449 1132.22C872.82 1125.39 881.977 1111.48 881.977 1095.43H880.977H879.977C879.977 1110.7 871.267 1123.94 858.539 1130.44L858.994 1131.33ZM880.977 1095.43H881.977C881.977 1079.37 872.82 1065.46 859.449 1058.63L858.994 1059.52L858.539 1060.41C871.267 1066.91 879.977 1080.15 879.977 1095.43H880.977ZM858.994 1059.52H859.994V611.319H858.994H857.994V1059.52H858.994ZM858.994 611.319L858.627 612.249L968.838 655.794L969.205 654.864L969.573 653.934L859.362 610.389L858.994 611.319ZM969.205 654.864H968.205V788.249H969.205H970.205V654.864H969.205ZM969.205 788.249L968.762 787.353C955.128 794.097 945.749 808.15 945.749 824.395H946.749H947.749C947.749 808.939 956.67 795.566 969.649 789.146L969.205 788.249ZM946.749 824.395H945.749C945.749 840.64 955.128 854.692 968.762 861.436L969.205 860.54L969.649 859.644C956.67 853.224 947.749 839.85 947.749 824.395H946.749ZM969.205 860.54L968.762 861.436C974.276 864.164 980.486 865.697 987.051 865.697V864.697V863.697C980.8 863.697 974.893 862.238 969.649 859.644L969.205 860.54ZM987.051 864.697V865.697C993.616 865.697 999.826 864.164 1005.34 861.436L1004.9 860.54L1004.45 859.644C999.209 862.238 993.302 863.697 987.051 863.697V864.697ZM1004.9 860.54L1005.34 861.436C1018.97 854.692 1028.35 840.64 1028.35 824.395H1027.35H1026.35C1026.35 839.85 1017.43 853.224 1004.45 859.644L1004.9 860.54ZM1027.35 824.395H1028.35C1028.35 808.15 1018.97 794.098 1005.34 787.353L1004.9 788.25L1004.45 789.146C1017.43 795.566 1026.35 808.94 1026.35 824.395H1027.35ZM1004.9 788.25H1005.9V630.589H1004.9H1003.9V788.25H1004.9ZM1004.9 630.589L1005.26 629.659L859.362 572.012L858.994 572.942L858.627 573.872L1004.53 631.519L1004.9 630.589ZM858.994 572.942H859.994V479.892H858.994H857.994V572.942H858.994ZM858.994 479.892H859.994V478.685H858.994H857.994V479.892H858.994ZM858.994 478.685H859.994V441.177H858.994H857.994V478.685H858.994ZM858.994 441.177H859.994V440.307H858.994H857.994V441.177H858.994ZM858.994 440.307H859.994V386.019H858.994H857.994V440.307H858.994ZM858.994 386.019L859.398 385.105L823.706 369.325L823.302 370.239L822.898 371.154L858.59 386.934L858.994 386.019ZM823.302 370.239H822.302V456.176H823.302H824.302V370.239H823.302ZM823.302 456.176L822.915 455.255L692.618 510.012L693.006 510.934L693.393 511.856L823.689 457.098L823.302 456.176ZM169.035 928.668L169.766 929.35C176.645 921.973 180.855 912.072 180.855 901.189H179.855H178.855C178.855 911.546 174.85 920.965 168.303 927.986L169.035 928.668ZM179.855 901.189H180.855C180.855 895.901 179.861 890.843 178.048 886.193L177.116 886.556L176.184 886.919C177.908 891.341 178.855 896.154 178.855 901.189H179.855ZM177.116 886.556L178.048 886.193C174.326 876.645 167.156 868.825 158.068 864.26L157.619 865.154L157.17 866.047C165.819 870.392 172.643 877.835 176.184 886.919L177.116 886.556ZM157.619 865.154L158.068 864.26C152.498 861.462 146.208 859.887 139.553 859.887V860.887V861.887C145.889 861.887 151.872 863.386 157.17 866.047L157.619 865.154ZM139.553 860.887V859.887C133.077 859.887 126.947 861.379 121.489 864.037L121.927 864.936L122.365 865.835C127.556 863.307 133.387 861.887 139.553 861.887V860.887ZM121.927 864.936L121.489 864.037C107.733 870.738 98.2514 884.855 98.2514 901.189H99.2514H100.251C100.251 885.649 109.271 872.214 122.365 865.835L121.927 864.936ZM99.2514 901.189H98.2514C98.2514 907.249 99.557 913.007 101.903 918.194L102.814 917.781L103.726 917.369C101.494 912.436 100.251 906.959 100.251 901.189H99.2514ZM102.814 917.781L101.903 918.194C105.878 926.98 112.837 934.127 121.489 938.341L121.927 937.442L122.365 936.543C114.132 932.533 107.508 925.73 103.726 917.369L102.814 917.781ZM121.927 937.442H120.927V1019.24H121.927H122.927V937.442H121.927ZM121.927 1019.24L121.522 1020.16L154.373 1034.68L154.778 1033.77L155.182 1032.85L122.331 1018.33L121.927 1019.24ZM157.619 1035.02L157.214 1035.94L292.527 1095.77L292.932 1094.86L293.336 1093.95L158.023 1034.11L157.619 1035.02ZM292.932 1094.86H291.932V1160.74H292.932H293.932V1094.86H292.932ZM292.932 1160.74L292.407 1161.59L447.873 1257.31L448.397 1256.46L448.921 1255.61L293.456 1159.89L292.932 1160.74ZM448.397 1256.46L448.921 1257.31L569.655 1182.98L569.131 1182.13L568.607 1181.27L447.873 1255.61L448.397 1256.46ZM569.131 1182.13L569.655 1182.98L573.582 1180.56L573.058 1179.71L572.534 1178.86L568.607 1181.27L569.131 1182.13ZM573.058 1179.71L573.582 1180.56L605.347 1161L604.823 1160.15L604.299 1159.3L572.534 1178.86L573.058 1179.71ZM604.823 1160.15H605.823V783.069H604.823H603.823V1160.15H604.823ZM604.823 783.069L604.418 782.155L568.726 797.96L569.131 798.874L569.536 799.788L605.228 783.984L604.823 783.069ZM569.131 798.874H568.131V1140.21H569.131H570.131V798.874H569.131ZM569.131 1140.21L568.607 1139.36L447.873 1213.69L448.397 1214.55L448.921 1215.4L569.655 1141.06L569.131 1140.21ZM448.397 1214.55L448.921 1213.69L329.148 1139.95L328.624 1140.8L328.1 1141.65L447.873 1215.4L448.397 1214.55ZM328.624 1140.8H329.624V1006.69H328.624H327.624V1140.8H328.624ZM328.624 1006.69L329.067 1007.59C342.701 1000.84 352.08 986.791 352.08 970.546H351.08H350.08C350.08 986.001 341.159 999.375 328.18 1005.79L328.624 1006.69ZM351.08 970.546H352.08C352.08 954.301 342.701 940.249 329.067 933.504L328.624 934.401L328.18 935.297C341.159 941.717 350.08 955.091 350.08 970.546H351.08ZM328.624 934.401L329.067 933.504C323.553 930.777 317.343 929.244 310.778 929.244V930.244V931.244C317.029 931.244 322.936 932.703 328.18 935.297L328.624 934.401ZM310.778 930.244V929.244C304.213 929.244 298.003 930.777 292.488 933.505L292.932 934.401L293.375 935.297C298.62 932.703 304.527 931.244 310.778 931.244V930.244ZM292.932 934.401L292.488 933.505C278.855 940.249 269.476 954.301 269.476 970.546H270.476H271.476C271.476 955.091 280.397 941.717 293.375 935.297L292.932 934.401ZM270.476 970.546H269.476C269.476 986.791 278.855 1000.84 292.488 1007.59L292.932 1006.69L293.375 1005.79C280.397 999.375 271.476 986.001 271.476 970.546H270.476ZM292.932 1006.69H291.932V1055.83H292.932H293.932V1006.69H292.932ZM292.932 1055.83L293.336 1054.92L158.023 995.083L157.619 995.998L157.214 996.912L292.527 1056.75L292.932 1055.83ZM157.619 995.998H158.619V937.225H157.619H156.619V995.998H157.619ZM1222.19 874.503L1223.07 874.985C1226.94 867.945 1232.9 862.219 1240.12 858.647L1239.68 857.751L1239.24 856.854C1231.65 860.608 1225.38 866.624 1221.31 874.021L1222.19 874.503ZM1239.68 857.751H1240.68V516.047H1239.68H1238.68V857.751H1239.68ZM1239.68 516.047L1240.09 515.132L969.61 395.526L969.205 396.441L968.801 397.355L1239.28 516.962L1239.68 516.047ZM969.205 396.441L969.61 395.526L967.777 394.716L967.372 395.63L966.968 396.545L968.801 397.355L969.205 396.441ZM967.372 395.63L967.777 394.716L823.706 331.007L823.302 331.921L822.898 332.836L966.968 396.545L967.372 395.63ZM823.302 331.921H824.302V194.963H823.302H822.302V331.921H823.302ZM823.302 194.963L823.734 194.061C810.506 187.732 801.373 174.225 801.373 158.588H800.373H799.373C799.373 175.024 808.975 189.217 822.87 195.865L823.302 194.963ZM800.373 158.588H801.373C801.373 142.95 810.506 129.443 823.734 123.115L823.302 122.212L822.87 121.31C808.975 127.959 799.373 142.151 799.373 158.588H800.373ZM825.435 121.267L825.814 122.193C830.397 120.319 835.414 119.286 840.675 119.286V118.286V117.286C835.15 117.286 829.877 118.371 825.057 120.341L825.435 121.267ZM840.675 118.286V119.286C847.11 119.286 853.18 120.831 858.539 123.571L858.994 122.68L859.449 121.79C853.815 118.91 847.433 117.286 840.675 117.286V118.286ZM858.994 122.68L858.539 123.571C867.315 128.057 874.182 135.746 877.599 145.093L878.538 144.749L879.477 144.406C875.886 134.581 868.67 126.504 859.449 121.79L858.994 122.68ZM878.538 144.749L877.599 145.093C879.137 149.3 879.977 153.845 879.977 158.588H880.977H881.977C881.977 153.607 881.095 148.83 879.477 144.406L878.538 144.749ZM880.977 158.588H879.977C879.977 173.859 871.267 187.098 858.539 193.605L858.994 194.495L859.449 195.385C872.82 188.55 881.977 174.639 881.977 158.588H880.977ZM858.994 194.495H857.994V308.678H858.994H859.994V194.495H858.994ZM858.994 308.678L858.59 309.593L1004.49 374.112L1004.9 373.198L1005.3 372.283L859.399 307.764L858.994 308.678ZM1004.9 373.198L1004.49 374.112L1012.22 377.528L1012.62 376.614L1013.03 375.699L1005.3 372.283L1004.9 373.198ZM1012.62 376.614L1012.22 377.528L1274.97 493.719L1275.37 492.804L1275.78 491.889L1013.03 375.699L1012.62 376.614ZM1275.37 492.804H1274.37V857.751H1275.37H1276.37V492.804H1275.37ZM1275.37 857.751L1274.93 858.647C1280.28 861.295 1284.95 865.126 1288.58 869.8L1289.37 869.186L1290.16 868.572C1286.34 863.663 1281.44 859.637 1275.82 856.854L1275.37 857.751ZM1289.37 869.186L1288.58 869.8C1293.75 876.454 1296.83 884.814 1296.83 893.896H1297.83H1298.83C1298.83 884.354 1295.59 875.566 1290.16 868.572L1289.37 869.186ZM1297.83 893.896H1296.83C1296.83 909.351 1287.91 922.725 1274.93 929.145L1275.37 930.041L1275.82 930.937C1289.45 924.193 1298.83 910.141 1298.83 893.896H1297.83ZM1275.37 930.041L1274.93 929.145C1269.69 931.739 1263.78 933.198 1257.53 933.198V934.198V935.198C1264.09 935.198 1270.3 933.665 1275.82 930.937L1275.37 930.041ZM1257.53 934.198V933.198C1251.28 933.198 1245.37 931.739 1240.12 929.145L1239.68 930.041L1239.24 930.937C1244.75 933.665 1250.96 935.198 1257.53 935.198V934.198ZM1239.68 930.041L1240.12 929.145C1234.23 926.23 1229.17 921.88 1225.41 916.552L1224.59 917.13L1223.78 917.707C1227.73 923.304 1233.04 927.874 1239.24 930.937L1239.68 930.041ZM1224.59 917.13L1225.41 916.552C1220.88 910.149 1218.23 902.335 1218.23 893.896H1217.23H1216.23C1216.23 902.761 1219.02 910.977 1223.78 917.707L1224.59 917.13ZM1217.23 893.896H1218.23C1218.23 887.039 1219.98 880.594 1223.07 874.985L1222.19 874.503L1221.31 874.021C1218.07 879.918 1216.23 886.693 1216.23 893.896H1217.23ZM58.1478 740.413H59.1478V398.709H58.1478H57.1478V740.413H58.1478ZM58.1478 398.709L58.5912 399.606C66.1791 395.852 72.4472 389.837 76.5154 382.439L75.6391 381.958L74.7629 381.476C70.8913 388.515 64.9249 394.241 57.7044 397.813L58.1478 398.709ZM75.6391 381.958L76.5154 382.439C79.7588 376.542 81.6035 369.767 81.6035 362.564H80.6035H79.6035C79.6035 369.422 77.8481 375.866 74.7629 381.476L75.6391 381.958ZM80.6035 362.564H81.6035C81.6035 353.699 78.8091 345.483 74.0531 338.754L73.2365 339.331L72.4198 339.908C76.945 346.311 79.6035 354.126 79.6035 362.564H80.6035ZM73.2365 339.331L74.0531 338.754C70.0973 333.156 64.784 328.586 58.5912 325.523L58.1478 326.419L57.7044 327.315C63.5968 330.23 68.6544 334.58 72.4198 339.908L73.2365 339.331ZM58.1478 326.419L58.5912 325.523C53.077 322.795 46.8669 321.262 40.3017 321.262V322.262V323.262C46.5525 323.262 52.4598 324.721 57.7044 327.315L58.1478 326.419ZM40.3017 322.262V321.262C33.7365 321.262 27.5265 322.795 22.0123 325.523L22.4557 326.419L22.8991 327.315C28.1437 324.721 34.0509 323.262 40.3017 323.262V322.262ZM22.4557 326.419L22.0123 325.523C8.37871 332.267 -1 346.319 -1 362.564H0H1C1 347.109 9.92098 333.735 22.8991 327.315L22.4557 326.419ZM0 362.564H-1C-1 372.106 2.2369 380.895 7.67191 387.888L8.46149 387.274L9.25107 386.661C4.07916 380.006 1 371.646 1 362.564H0ZM8.46149 387.274L7.67191 387.888C11.4875 392.797 16.387 396.823 22.0123 399.606L22.4557 398.709L22.8991 397.813C17.5468 395.165 12.8832 391.334 9.25107 386.661L8.46149 387.274ZM22.4557 398.709H21.4557V763.656H22.4557H23.4557V398.709H22.4557ZM22.4557 763.656L22.0512 764.571L284.802 880.761L285.207 879.846L285.611 878.932L22.8601 762.742L22.4557 763.656ZM285.207 879.846L284.802 880.761L292.527 884.177L292.932 883.263L293.336 882.348L285.611 878.932L285.207 879.846ZM292.932 883.263L292.527 884.177L438.43 948.696L438.835 947.782L439.239 946.867L293.336 882.348L292.932 883.263ZM438.835 947.782H437.835V1061.97H438.835H439.835V947.782H438.835ZM438.835 1061.97L438.38 1061.07C425.009 1067.91 415.852 1081.82 415.852 1097.87H416.852H417.852C417.852 1082.6 426.562 1069.36 439.29 1062.86L438.835 1061.97ZM416.852 1097.87H415.852C415.852 1102.85 416.734 1107.63 418.351 1112.05L419.291 1111.71L420.23 1111.37C418.692 1107.16 417.852 1102.62 417.852 1097.87H416.852ZM419.291 1111.71L418.351 1112.05C421.943 1121.88 429.159 1129.96 438.38 1134.67L438.835 1133.78L439.29 1132.89C430.514 1128.4 423.647 1120.71 420.23 1111.37L419.291 1111.71ZM438.835 1133.78L438.38 1134.67C444.014 1137.55 450.395 1139.17 457.154 1139.17V1138.17V1137.17C450.719 1137.17 444.649 1135.63 439.29 1132.89L438.835 1133.78ZM457.154 1138.17V1139.17C462.679 1139.17 467.952 1138.09 472.772 1136.12L472.393 1135.19L472.015 1134.27C467.432 1136.14 462.415 1137.17 457.154 1137.17V1138.17ZM472.393 1135.19L472.772 1136.12C473.512 1135.82 474.241 1135.49 474.958 1135.15L474.527 1134.25L474.095 1133.35C473.413 1133.67 472.719 1133.98 472.015 1134.27L472.393 1135.19ZM474.527 1134.25L474.959 1135.15C488.854 1128.5 498.456 1114.31 498.456 1097.87H497.456H496.456C496.456 1113.51 487.323 1127.02 474.095 1133.35L474.527 1134.25ZM497.456 1097.87H498.456C498.456 1081.44 488.854 1067.24 474.959 1060.6L474.527 1061.5L474.095 1062.4C487.323 1068.73 496.456 1082.23 496.456 1097.87H497.456ZM474.527 1061.5H475.527V924.539H474.527H473.527V1061.5H474.527ZM474.527 924.539L474.931 923.624L330.861 859.915L330.456 860.83L330.052 861.745L474.123 925.453L474.527 924.539ZM330.456 860.83L330.861 859.915L329.028 859.105L328.624 860.02L328.219 860.934L330.052 861.745L330.456 860.83ZM328.624 860.02L329.028 859.105L58.5522 739.499L58.1478 740.413L57.7434 741.328L328.219 860.934L328.624 860.02Z" fill="url(#paint0_linear_0_4)" mask="url(#path-1-inside-1_0_4)"/>
</g>
<defs>
<linearGradient id="paint0_linear_0_4" x1="648.914" y1="0" x2="648.914" y2="1256.46" gradientUnits="userSpaceOnUse">
<stop offset="0.248248" stop-color="#3C3F2E" stop-opacity="0"/>
<stop offset="0.5" stop-color="#3C3F2E"/>
<stop offset="1" stop-color="#3C3F2E" stop-opacity="0"/>
</linearGradient>
</defs>
</svg>
