<svg preserveAspectRatio="none" width="100%" height="100%" overflow="visible" style="display: block;" viewBox="0 0 804 404" fill="none" xmlns="http://www.w3.org/2000/svg">
<g id="Frame 2095586335" clip-path="url(#clip0_0_4)">
<g id="Vector" opacity="0.05">
<path fill-rule="evenodd" clip-rule="evenodd" d="M97.5258 206.562C100.192 205.222 102.586 203.419 104.601 201.259L97.5258 204.232V206.562Z" fill="url(#paint0_linear_0_4)"/>
<path fill-rule="evenodd" clip-rule="evenodd" d="M97.5258 267.477L95.765 266.393L97.5258 267.171V267.477Z" fill="url(#paint1_linear_0_4)"/>
<path d="M208.92 106.682C214.131 102.105 217.421 95.3916 217.421 87.9103C217.421 87.3474 217.402 86.7888 217.365 86.2351C216.762 77.1278 211.278 69.3551 203.504 65.5097C200.17 63.8606 196.415 62.9338 192.444 62.9338C188.473 62.9338 184.718 63.8606 181.384 65.5099C179.187 66.5969 177.172 67.9979 175.399 69.654L97.5258 38.8856V-175.162L118.698 -190.833C121.909 -189.331 125.492 -188.491 129.271 -188.491C143.065 -188.491 154.247 -199.674 154.247 -213.468C154.247 -214.655 154.165 -215.822 154.005 -216.965C152.904 -224.82 148.15 -231.503 141.516 -235.242C137.898 -237.281 133.72 -238.444 129.271 -238.444C115.477 -238.444 104.295 -227.262 104.295 -213.468C104.295 -211.631 104.493 -209.841 104.869 -208.117L75.4061 -186.31V53.9297L167.585 90.3505C168.436 99.1267 173.829 106.573 181.384 110.311C184.718 111.96 188.473 112.887 192.444 112.887C196.415 112.887 200.17 111.96 203.504 110.311C205.47 109.338 207.289 108.115 208.92 106.682Z" fill="url(#paint2_linear_0_4)"/>
<path d="M277.715 -374.271L181.384 -312.523V-233.356C173.138 -229.277 167.468 -220.778 167.468 -210.955C167.468 -201.133 173.138 -192.634 181.384 -188.555C184.718 -186.906 188.473 -185.979 192.444 -185.979C196.415 -185.979 200.17 -186.906 203.504 -188.555C211.75 -192.634 217.421 -201.132 217.421 -210.955C217.421 -220.778 211.75 -229.277 203.504 -233.356V-300.428L277.715 -347.998L352.555 -300.025V-225.974C344.527 -221.82 339.04 -213.439 339.04 -203.777C339.04 -194.114 344.527 -185.733 352.555 -181.579C355.988 -179.803 359.885 -178.8 364.016 -178.8C367.829 -178.8 371.442 -179.654 374.675 -181.182C383.138 -185.181 388.993 -193.795 388.993 -203.777C388.993 -213.758 383.138 -222.372 374.675 -226.371V-312.12L277.715 -374.271Z" fill="url(#paint3_linear_0_4)"/>
<path fill-rule="evenodd" clip-rule="evenodd" d="M374.675 87.7589V-51.2467C383.138 -55.246 388.993 -63.8598 388.993 -73.8412C388.993 -83.8225 383.138 -92.4364 374.675 -96.4356C371.442 -97.9633 367.829 -98.8177 364.016 -98.8177C359.885 -98.8177 355.988 -97.8145 352.555 -96.0386C344.527 -91.885 339.04 -83.5039 339.04 -73.8412C339.04 -64.1784 344.527 -55.7973 352.555 -51.6437V73.0611L293.926 97.7004V-251.929C302.33 -255.95 308.135 -264.533 308.135 -274.472C308.135 -284.411 302.33 -292.994 293.926 -297.015C290.665 -298.575 287.014 -299.449 283.159 -299.449C279.071 -299.449 275.212 -298.466 271.806 -296.725C263.719 -292.591 258.182 -284.178 258.182 -274.472C258.182 -264.766 263.719 -256.353 271.806 -252.219V25.5465L203.504 -1.44009V-84.1039C211.75 -88.183 217.421 -96.6816 217.421 -106.504C217.421 -116.327 211.75 -124.826 203.504 -128.905C200.17 -130.554 196.415 -131.481 192.444 -131.481C188.473 -131.481 184.718 -130.554 181.384 -128.905C173.138 -124.826 167.468 -116.327 167.468 -106.504C167.468 -96.6816 173.138 -88.1832 181.384 -84.104V13.604L271.806 49.3302V106.996V107.745V130.99V131.529V165.173L293.926 174.953V121.694L374.675 87.7589Z" fill="url(#paint4_linear_0_4)"/>
<path fill-rule="evenodd" clip-rule="evenodd" d="M706.474 -176.43C703.808 -175.09 701.414 -173.287 699.399 -171.127L706.474 -174.1V-176.43Z" fill="url(#paint5_linear_0_4)"/>
<path fill-rule="evenodd" clip-rule="evenodd" d="M449.011 -326.705L451.445 -328.203V-325.629L449.011 -326.705Z" fill="url(#paint6_linear_0_4)"/>
<path fill-rule="evenodd" clip-rule="evenodd" d="M511.397 -299.118L510.074 -299.702V-298.532C510.508 -298.739 510.949 -298.935 511.397 -299.118Z" fill="url(#paint7_linear_0_4)"/>
<path fill-rule="evenodd" clip-rule="evenodd" d="M706.474 -237.345L708.235 -236.26L706.474 -237.039V-237.345Z" fill="url(#paint8_linear_0_4)"/>
<path fill-rule="evenodd" clip-rule="evenodd" d="M449.011 -326.705L451.445 -325.629V-328.203L449.011 -326.705Z" fill="url(#paint9_linear_0_4)"/>
<path fill-rule="evenodd" clip-rule="evenodd" d="M451.445 -325.629L449.011 -326.705L451.445 -328.203V-325.629Z" fill="url(#paint10_linear_0_4)"/>
<path d="M595.08 -76.55C589.869 -71.9725 586.579 -65.2595 586.579 -57.7782C586.579 -57.2153 586.598 -56.6567 586.635 -56.103C587.238 -46.9957 592.722 -39.223 600.496 -35.3776C603.83 -33.7285 607.585 -32.8017 611.556 -32.8017C615.527 -32.8017 619.282 -33.7285 622.616 -35.3778C624.813 -36.4648 626.828 -37.8658 628.601 -39.5219L706.474 -8.75353V205.294L685.302 220.965C682.091 219.463 678.508 218.624 674.729 218.624C660.935 218.624 649.753 229.806 649.753 243.6C649.753 244.787 649.835 245.955 649.995 247.097C651.096 254.952 655.85 261.635 662.484 265.374C666.102 267.413 670.28 268.577 674.729 268.577C688.523 268.577 699.705 257.394 699.705 243.6C699.705 241.763 699.507 239.973 699.131 238.249L728.594 216.442V-23.7976L636.415 -60.2184C635.564 -68.9946 630.171 -76.4413 622.616 -80.1786C619.282 -81.8278 615.527 -82.7547 611.556 -82.7547C607.585 -82.7547 603.83 -81.8278 600.496 -80.1787C598.53 -79.2063 596.711 -77.9828 595.08 -76.55Z" fill="url(#paint11_linear_0_4)"/>
<path fill-rule="evenodd" clip-rule="evenodd" d="M706.474 -174.1L699.399 -171.127C695.239 -166.665 692.694 -160.678 692.694 -154.097C692.694 -150.898 693.295 -147.839 694.391 -145.028C696.642 -139.255 700.978 -134.525 706.474 -131.764C709.842 -130.073 713.645 -129.12 717.67 -129.12C721.587 -129.12 725.294 -130.022 728.594 -131.63C736.914 -135.682 742.647 -144.22 742.647 -154.097C742.647 -157.762 741.857 -161.244 740.438 -164.38C738.035 -169.693 733.826 -174.015 728.594 -176.564V-227.258L708.235 -236.26L706.474 -237.039L622.616 -274.122V-314.951L526.268 -374.271L451.445 -328.203V-325.629L449.011 -326.705L429.325 -314.585V-80.8935L451.445 -90.6883V-302.227L526.268 -348.295L600.496 -302.594V-219.48C592.25 -215.401 586.579 -206.903 586.579 -197.08C586.579 -187.257 592.25 -178.758 600.496 -174.679C603.83 -173.03 607.585 -172.103 611.556 -172.103C615.527 -172.103 619.282 -173.03 622.616 -174.679C630.862 -178.759 636.532 -187.257 636.532 -197.08C636.532 -206.903 630.862 -215.401 622.616 -219.48V-249.936L706.474 -212.853V-176.43V-174.1Z" fill="url(#paint12_linear_0_4)"/>
<path d="M526.285 404.404L622.616 342.655V263.488C630.862 259.409 636.532 250.91 636.532 241.087C636.532 231.265 630.862 222.766 622.616 218.687C619.282 217.038 615.527 216.111 611.556 216.111C607.585 216.111 603.83 217.038 600.496 218.687C592.25 222.766 586.579 231.265 586.579 241.087C586.579 250.91 592.25 259.409 600.496 263.488V330.56L526.285 378.13L451.445 330.157V256.106C459.473 251.953 464.96 243.572 464.96 233.909C464.96 224.246 459.473 215.865 451.445 211.711C448.012 209.935 444.115 208.932 439.984 208.932C436.171 208.932 432.558 209.787 429.325 211.314C420.862 215.313 415.007 223.927 415.007 233.909C415.007 243.89 420.862 252.504 429.325 256.503V342.252L526.285 404.404Z" fill="url(#paint13_linear_0_4)"/>
<path fill-rule="evenodd" clip-rule="evenodd" d="M429.325 -57.6268V81.3788C420.862 85.3781 415.007 93.9919 415.007 103.973C415.007 113.955 420.862 122.568 429.325 126.568C432.558 128.095 436.171 128.95 439.984 128.95C444.115 128.95 448.012 127.947 451.445 126.171C459.473 122.017 464.96 113.636 464.96 103.973C464.96 94.3105 459.473 85.9294 451.445 81.7758V-42.929L510.074 -67.5683V282.061C501.67 286.082 495.865 294.665 495.865 304.604C495.865 314.543 501.67 323.126 510.074 327.147C513.335 328.707 516.986 329.581 520.841 329.581C524.929 329.581 528.788 328.599 532.194 326.857C540.281 322.723 545.818 314.31 545.818 304.604C545.818 294.898 540.281 286.485 532.194 282.351V4.58558L600.496 31.5722V114.236C592.25 118.315 586.579 126.814 586.579 136.637C586.579 146.459 592.25 154.958 600.496 159.037C603.83 160.686 607.585 161.613 611.556 161.613C615.527 161.613 619.282 160.686 622.616 159.037C630.862 154.958 636.532 146.459 636.532 136.637C636.532 126.814 630.862 118.315 622.616 114.236V16.5281L532.194 -19.1981V-76.8643V-77.6129V-100.858V-101.397V-135.041L510.074 -144.82V-91.562L429.325 -57.6268Z" fill="url(#paint14_linear_0_4)"/>
<path fill-rule="evenodd" clip-rule="evenodd" d="M97.5258 204.232L104.601 201.259C108.761 196.797 111.306 190.81 111.306 184.229C111.306 181.03 110.705 177.971 109.609 175.16C107.358 169.387 103.022 164.657 97.5258 161.896C94.1582 160.205 90.3553 159.252 86.3299 159.252C82.4125 159.252 78.7059 160.154 75.4061 161.762C67.0864 165.814 61.3534 174.352 61.3534 184.229C61.3534 187.895 62.1431 191.376 63.5616 194.512C65.9651 199.825 70.1741 204.148 75.4061 206.696V257.39L95.765 266.393L97.5258 267.171L181.384 304.254V345.083L277.732 404.404L352.555 358.336L354.989 356.837L374.675 344.717V111.026L352.555 120.82V332.36L277.732 378.427L203.504 332.726V249.612C211.75 245.533 217.421 237.035 217.421 227.212C217.421 217.389 211.75 208.891 203.504 204.811C200.17 203.162 196.415 202.235 192.444 202.235C188.473 202.235 184.718 203.162 181.384 204.811C173.138 208.891 167.468 217.389 167.468 227.212C167.468 237.035 173.138 245.533 181.384 249.612V280.068L97.5258 242.985V206.562V204.232Z" fill="url(#paint15_linear_0_4)"/>
<path fill-rule="evenodd" clip-rule="evenodd" d="M757.28 167.69C759.74 163.217 763.531 159.578 768.12 157.309V-54.458L600.496 -128.582L599.36 -129.085L510.074 -168.567V-253.446C501.67 -257.467 495.865 -266.05 495.865 -275.989C495.865 -285.928 501.67 -294.511 510.074 -298.532C510.508 -298.739 510.949 -298.935 511.397 -299.118C514.31 -300.309 517.499 -300.965 520.841 -300.965C524.929 -300.965 528.788 -299.983 532.194 -298.242C537.771 -295.391 542.135 -290.506 544.306 -284.565C545.284 -281.89 545.818 -279.002 545.818 -275.989C545.818 -266.283 540.281 -257.87 532.194 -253.736V-182.972L622.616 -142.987L627.403 -140.87L790.24 -68.8625V157.309C793.641 158.991 796.605 161.426 798.912 164.395C802.199 168.624 804.156 173.938 804.156 179.709C804.156 189.532 798.486 198.03 790.24 202.11C786.906 203.759 783.151 204.686 779.18 204.686C775.209 204.686 771.454 203.759 768.12 202.11C764.375 200.257 761.162 197.493 758.769 194.108C755.893 190.038 754.203 185.071 754.203 179.709C754.203 175.352 755.319 171.256 757.28 167.69Z" fill="url(#paint16_linear_0_4)"/>
<path fill-rule="evenodd" clip-rule="evenodd" d="M35.88 84.5901V-127.176C40.4686 -129.446 44.2597 -133.085 46.72 -137.558C48.681 -141.124 49.7966 -145.22 49.7966 -149.577C49.7966 -154.939 48.1069 -159.906 45.231 -163.976C42.8384 -167.361 39.6248 -170.125 35.88 -171.977C32.5462 -173.627 28.7914 -174.553 24.8201 -174.553C20.8488 -174.553 17.094 -173.627 13.7602 -171.977C5.51413 -167.898 -0.156372 -159.4 -0.156372 -149.577C-0.156372 -143.806 1.80078 -138.492 5.08753 -134.263C7.39533 -131.294 10.3586 -128.859 13.7602 -127.176V98.9946L176.597 171.002L181.384 173.119L271.806 213.104V283.868C263.719 288.002 258.182 296.415 258.182 306.121C258.182 309.134 258.716 312.022 259.694 314.697C261.866 320.638 266.229 325.523 271.806 328.374C275.212 330.115 279.071 331.097 283.159 331.097C286.501 331.097 289.69 330.441 292.603 329.25C293.051 329.067 293.492 328.872 293.926 328.664C302.33 324.643 308.135 316.06 308.135 306.121C308.135 296.182 302.33 287.599 293.926 283.578V198.7L204.64 159.217L203.504 158.715L35.88 84.5901Z" fill="url(#paint17_linear_0_4)"/>
</g>
</g>
<defs>
<linearGradient id="paint0_linear_0_4" x1="402" y1="-374.271" x2="402" y2="404.404" gradientUnits="userSpaceOnUse">
<stop offset="0.416995" stop-color="#3C3F2E"/>
<stop offset="1" stop-color="#3C3F2E" stop-opacity="0"/>
</linearGradient>
<linearGradient id="paint1_linear_0_4" x1="402" y1="-374.271" x2="402" y2="404.404" gradientUnits="userSpaceOnUse">
<stop offset="0.416995" stop-color="#3C3F2E"/>
<stop offset="1" stop-color="#3C3F2E" stop-opacity="0"/>
</linearGradient>
<linearGradient id="paint2_linear_0_4" x1="402" y1="-374.271" x2="402" y2="404.404" gradientUnits="userSpaceOnUse">
<stop offset="0.416995" stop-color="#3C3F2E"/>
<stop offset="1" stop-color="#3C3F2E" stop-opacity="0"/>
</linearGradient>
<linearGradient id="paint3_linear_0_4" x1="402" y1="-374.271" x2="402" y2="404.404" gradientUnits="userSpaceOnUse">
<stop offset="0.416995" stop-color="#3C3F2E"/>
<stop offset="1" stop-color="#3C3F2E" stop-opacity="0"/>
</linearGradient>
<linearGradient id="paint4_linear_0_4" x1="402" y1="-374.271" x2="402" y2="404.404" gradientUnits="userSpaceOnUse">
<stop offset="0.416995" stop-color="#3C3F2E"/>
<stop offset="1" stop-color="#3C3F2E" stop-opacity="0"/>
</linearGradient>
<linearGradient id="paint5_linear_0_4" x1="402" y1="-374.271" x2="402" y2="404.404" gradientUnits="userSpaceOnUse">
<stop offset="0.416995" stop-color="#3C3F2E"/>
<stop offset="1" stop-color="#3C3F2E" stop-opacity="0"/>
</linearGradient>
<linearGradient id="paint6_linear_0_4" x1="402" y1="-374.271" x2="402" y2="404.404" gradientUnits="userSpaceOnUse">
<stop offset="0.416995" stop-color="#3C3F2E"/>
<stop offset="1" stop-color="#3C3F2E" stop-opacity="0"/>
</linearGradient>
<linearGradient id="paint7_linear_0_4" x1="402" y1="-374.271" x2="402" y2="404.404" gradientUnits="userSpaceOnUse">
<stop offset="0.416995" stop-color="#3C3F2E"/>
<stop offset="1" stop-color="#3C3F2E" stop-opacity="0"/>
</linearGradient>
<linearGradient id="paint8_linear_0_4" x1="402" y1="-374.271" x2="402" y2="404.404" gradientUnits="userSpaceOnUse">
<stop offset="0.416995" stop-color="#3C3F2E"/>
<stop offset="1" stop-color="#3C3F2E" stop-opacity="0"/>
</linearGradient>
<linearGradient id="paint9_linear_0_4" x1="402" y1="-374.271" x2="402" y2="404.404" gradientUnits="userSpaceOnUse">
<stop offset="0.416995" stop-color="#3C3F2E"/>
<stop offset="1" stop-color="#3C3F2E" stop-opacity="0"/>
</linearGradient>
<linearGradient id="paint10_linear_0_4" x1="402" y1="-374.271" x2="402" y2="404.404" gradientUnits="userSpaceOnUse">
<stop offset="0.416995" stop-color="#3C3F2E"/>
<stop offset="1" stop-color="#3C3F2E" stop-opacity="0"/>
</linearGradient>
<linearGradient id="paint11_linear_0_4" x1="402" y1="-374.271" x2="402" y2="404.404" gradientUnits="userSpaceOnUse">
<stop offset="0.416995" stop-color="#3C3F2E"/>
<stop offset="1" stop-color="#3C3F2E" stop-opacity="0"/>
</linearGradient>
<linearGradient id="paint12_linear_0_4" x1="402" y1="-374.271" x2="402" y2="404.404" gradientUnits="userSpaceOnUse">
<stop offset="0.416995" stop-color="#3C3F2E"/>
<stop offset="1" stop-color="#3C3F2E" stop-opacity="0"/>
</linearGradient>
<linearGradient id="paint13_linear_0_4" x1="402" y1="-374.271" x2="402" y2="404.404" gradientUnits="userSpaceOnUse">
<stop offset="0.416995" stop-color="#3C3F2E"/>
<stop offset="1" stop-color="#3C3F2E" stop-opacity="0"/>
</linearGradient>
<linearGradient id="paint14_linear_0_4" x1="402" y1="-374.271" x2="402" y2="404.404" gradientUnits="userSpaceOnUse">
<stop offset="0.416995" stop-color="#3C3F2E"/>
<stop offset="1" stop-color="#3C3F2E" stop-opacity="0"/>
</linearGradient>
<linearGradient id="paint15_linear_0_4" x1="402" y1="-374.271" x2="402" y2="404.404" gradientUnits="userSpaceOnUse">
<stop offset="0.416995" stop-color="#3C3F2E"/>
<stop offset="1" stop-color="#3C3F2E" stop-opacity="0"/>
</linearGradient>
<linearGradient id="paint16_linear_0_4" x1="402" y1="-374.271" x2="402" y2="404.404" gradientUnits="userSpaceOnUse">
<stop offset="0.416995" stop-color="#3C3F2E"/>
<stop offset="1" stop-color="#3C3F2E" stop-opacity="0"/>
</linearGradient>
<linearGradient id="paint17_linear_0_4" x1="402" y1="-374.271" x2="402" y2="404.404" gradientUnits="userSpaceOnUse">
<stop offset="0.416995" stop-color="#3C3F2E"/>
<stop offset="1" stop-color="#3C3F2E" stop-opacity="0"/>
</linearGradient>
<clipPath id="clip0_0_4">
<rect width="804" height="404" fill="white"/>
</clipPath>
</defs>
</svg>
