<svg preserveAspectRatio="none" width="100%" height="100%" overflow="visible" style="display: block;" viewBox="0 0 1345 1303" fill="none" xmlns="http://www.w3.org/2000/svg">
<g id="Vector" opacity="0.02">
<path fill-rule="evenodd" clip-rule="evenodd" d="M163.348 971.293C167.807 969.053 171.81 966.038 175.179 962.425L163.348 967.397V971.293Z" fill="url(#paint0_linear_0_4)"/>
<path fill-rule="evenodd" clip-rule="evenodd" d="M163.348 1073.16L160.404 1071.34L163.348 1072.65V1073.16Z" fill="url(#paint1_linear_0_4)"/>
<path d="M349.627 804.27C358.341 796.616 363.841 785.39 363.841 772.879C363.841 771.938 363.81 771.004 363.749 770.078C362.74 754.848 353.569 741.851 340.569 735.42C334.994 732.663 328.716 731.113 322.075 731.113C315.434 731.113 309.155 732.663 303.58 735.42C299.905 737.238 296.536 739.581 293.571 742.351L163.348 690.898V332.959L198.753 306.753C204.123 309.266 210.114 310.669 216.434 310.669C239.501 310.669 258.2 291.969 258.2 268.902C258.2 266.917 258.062 264.965 257.794 263.054C255.954 249.919 248.005 238.744 236.911 232.491C230.86 229.081 223.874 227.136 216.434 227.136C193.367 227.136 174.667 245.835 174.667 268.902C174.667 271.974 174.999 274.968 175.628 277.85L126.359 314.317V716.056L280.505 776.96C281.928 791.636 290.946 804.089 303.58 810.338C309.155 813.096 315.434 814.646 322.075 814.646C328.716 814.646 334.994 813.096 340.569 810.339C343.857 808.712 346.899 806.666 349.627 804.27Z" fill="url(#paint2_linear_0_4)"/>
<path d="M464.668 0L303.58 103.258V235.645C289.79 242.466 280.308 256.678 280.308 273.104C280.308 289.53 289.79 303.741 303.58 310.563C309.155 313.321 315.434 314.871 322.075 314.871C328.716 314.871 334.994 313.321 340.569 310.563C354.359 303.742 363.841 289.53 363.841 273.104C363.841 256.678 354.359 242.466 340.569 235.645V123.484L464.668 43.9364L589.819 124.159V247.989C576.394 254.935 567.218 268.95 567.218 285.109C567.218 301.267 576.394 315.282 589.819 322.228C595.559 325.198 602.076 326.875 608.985 326.875C615.36 326.875 621.403 325.447 626.808 322.892C640.96 316.204 650.751 301.8 650.751 285.109C650.751 268.417 640.96 254.013 626.808 247.325V103.933L464.668 0Z" fill="url(#paint3_linear_0_4)"/>
<path fill-rule="evenodd" clip-rule="evenodd" d="M626.808 772.626V540.175C640.96 533.488 650.751 519.083 650.751 502.392C650.751 485.701 640.96 471.296 626.808 464.609C621.403 462.054 615.36 460.625 608.985 460.625C602.076 460.625 595.559 462.303 589.819 465.272C576.394 472.218 567.218 486.233 567.218 502.392C567.218 518.55 576.394 532.566 589.819 539.511V748.048L491.776 789.251V204.586C505.83 197.861 515.538 183.509 515.538 166.889C515.538 150.268 505.83 135.916 491.776 129.191C486.324 126.582 480.218 125.122 473.771 125.122C466.935 125.122 460.482 126.764 454.786 129.676C441.263 136.589 432.005 150.658 432.005 166.889C432.005 183.119 441.263 197.188 454.786 204.101V668.592L340.569 623.464V485.23C354.359 478.409 363.841 464.197 363.841 447.771C363.841 431.345 354.359 417.133 340.569 410.312C334.994 407.554 328.716 406.004 322.075 406.004C315.434 406.004 309.155 407.554 303.58 410.312C289.79 417.134 280.308 431.345 280.308 447.771C280.308 464.197 289.79 478.409 303.58 485.23V648.621L454.786 708.364V804.796V806.048V844.919V845.82V902.081L491.776 918.435V829.374L626.808 772.626Z" fill="url(#paint4_linear_0_4)"/>
<path fill-rule="evenodd" clip-rule="evenodd" d="M1181.66 330.839C1177.2 333.079 1173.2 336.094 1169.83 339.707L1181.66 334.736V330.839Z" fill="url(#paint5_linear_0_4)"/>
<path fill-rule="evenodd" clip-rule="evenodd" d="M751.116 79.5424L755.186 77.0369V81.3422L751.116 79.5424Z" fill="url(#paint6_linear_0_4)"/>
<path fill-rule="evenodd" clip-rule="evenodd" d="M855.44 125.675L853.229 124.697V126.655C853.955 126.308 854.692 125.981 855.44 125.675Z" fill="url(#paint7_linear_0_4)"/>
<path fill-rule="evenodd" clip-rule="evenodd" d="M1181.66 228.975L1184.6 230.788L1181.66 229.486V228.975Z" fill="url(#paint8_linear_0_4)"/>
<path fill-rule="evenodd" clip-rule="evenodd" d="M751.116 79.5424L755.186 81.3422V77.0369L751.116 79.5424Z" fill="url(#paint9_linear_0_4)"/>
<path fill-rule="evenodd" clip-rule="evenodd" d="M755.186 81.3422L751.116 79.5424L755.186 77.0369V81.3422Z" fill="url(#paint10_linear_0_4)"/>
<path d="M995.378 497.862C986.664 505.517 981.164 516.743 981.164 529.253C981.164 530.194 981.195 531.129 981.256 532.054C982.265 547.284 991.436 560.282 1004.44 566.712C1010.01 569.47 1016.29 571.02 1022.93 571.02C1029.57 571.02 1035.85 569.47 1041.43 566.712C1045.1 564.894 1048.47 562.551 1051.43 559.782L1181.66 611.234V969.174L1146.25 995.379C1140.88 992.867 1134.89 991.464 1128.57 991.464C1105.5 991.464 1086.8 1010.16 1086.8 1033.23C1086.8 1035.22 1086.94 1037.17 1087.21 1039.08C1089.05 1052.21 1097 1063.39 1108.09 1069.64C1114.14 1073.05 1121.13 1075 1128.57 1075C1151.64 1075 1170.34 1056.3 1170.34 1033.23C1170.34 1030.16 1170.01 1027.16 1169.38 1024.28L1218.65 987.815V586.077L1064.5 525.173C1063.08 510.497 1054.06 498.044 1041.43 491.794C1035.85 489.036 1029.57 487.486 1022.93 487.486C1016.29 487.486 1010.01 489.036 1004.44 491.794C1001.15 493.42 998.106 495.466 995.378 497.862Z" fill="url(#paint11_linear_0_4)"/>
<path fill-rule="evenodd" clip-rule="evenodd" d="M1181.66 334.736L1169.83 339.707C1162.87 347.168 1158.61 357.18 1158.61 368.185C1158.61 373.535 1159.62 378.649 1161.45 383.35C1165.21 393.005 1172.47 400.914 1181.66 405.531C1187.29 408.359 1193.65 409.952 1200.38 409.952C1206.93 409.952 1213.13 408.444 1218.65 405.756C1232.56 398.979 1242.15 384.701 1242.15 368.185C1242.15 362.055 1240.83 356.234 1238.45 350.99C1234.43 342.104 1227.4 334.876 1218.65 330.614V245.843L1184.6 230.788L1181.66 229.486L1041.43 167.474V99.1977L880.309 4.99599e-05L755.186 77.0369V81.3422L751.116 79.5424L718.196 99.8108V490.599L755.186 474.219V120.475L880.309 43.4384L1004.44 119.862V258.848C990.646 265.669 981.164 279.881 981.164 296.307C981.164 312.733 990.646 326.945 1004.44 333.766C1010.01 336.524 1016.29 338.074 1022.93 338.074C1029.57 338.074 1035.85 336.524 1041.43 333.766C1055.21 326.945 1064.7 312.733 1064.7 296.307C1064.7 279.881 1055.21 265.67 1041.43 258.848V207.919L1181.66 269.93V330.839V334.736Z" fill="url(#paint12_linear_0_4)"/>
<path d="M880.337 1302.13L1041.43 1198.87V1066.49C1055.21 1059.67 1064.7 1045.45 1064.7 1029.03C1064.7 1012.6 1055.21 998.391 1041.43 991.57C1035.85 988.812 1029.57 987.262 1022.93 987.262C1016.29 987.262 1010.01 988.812 1004.44 991.569C990.646 998.391 981.164 1012.6 981.164 1029.03C981.164 1045.45 990.646 1059.67 1004.44 1066.49V1178.65L880.337 1258.2L755.186 1177.97V1054.14C768.611 1047.2 777.787 1033.18 777.787 1017.02C777.787 1000.87 768.611 986.85 755.186 979.904C749.446 976.935 742.929 975.257 736.02 975.257C729.644 975.257 723.602 976.686 718.196 979.241C704.045 985.928 694.254 1000.33 694.254 1017.02C694.254 1033.72 704.045 1048.12 718.196 1054.81V1198.2L880.337 1302.13Z" fill="url(#paint13_linear_0_4)"/>
<path fill-rule="evenodd" clip-rule="evenodd" d="M718.196 529.506V761.957C704.045 768.645 694.254 783.049 694.254 799.741C694.254 816.432 704.045 830.836 718.196 837.524C723.602 840.079 729.644 841.507 736.02 841.507C742.929 841.507 749.446 839.83 755.186 836.86C768.611 829.914 777.787 815.899 777.787 799.741C777.787 783.582 768.611 769.567 755.186 762.621V554.085L853.229 512.882V1097.55C839.174 1104.27 829.467 1118.62 829.467 1135.24C829.467 1151.86 839.174 1166.22 853.229 1172.94C858.681 1175.55 864.786 1177.01 871.234 1177.01C878.07 1177.01 884.522 1175.37 890.219 1172.46C903.742 1165.54 913 1151.47 913 1135.24C913 1119.01 903.742 1104.94 890.219 1098.03V633.54L1004.44 678.668V816.902C990.646 823.724 981.164 837.935 981.164 854.362C981.164 870.788 990.646 884.999 1004.44 891.821C1010.01 894.578 1016.29 896.128 1022.93 896.128C1029.57 896.128 1035.85 894.578 1041.43 891.82C1055.21 884.999 1064.7 870.788 1064.7 854.362C1064.7 837.935 1055.21 823.724 1041.43 816.903V653.511L890.219 593.768V497.337V496.085V457.214V456.313V400.051L853.229 383.697V472.758L718.196 529.506Z" fill="url(#paint14_linear_0_4)"/>
<path fill-rule="evenodd" clip-rule="evenodd" d="M163.348 967.397L175.179 962.425C182.136 954.964 186.393 944.953 186.393 933.947C186.393 928.598 185.387 923.483 183.554 918.782C179.79 909.128 172.539 901.219 163.348 896.602C157.717 893.773 151.357 892.181 144.626 892.181C138.075 892.181 131.877 893.689 126.359 896.377C112.446 903.154 102.859 917.431 102.859 933.947C102.859 940.077 104.18 945.899 106.552 951.143C110.571 960.028 117.61 967.256 126.359 971.518V1056.29L160.404 1071.34L163.348 1072.65L303.58 1134.66V1202.93L464.696 1302.13L589.819 1225.1L593.889 1222.59L626.808 1202.32V811.534L589.819 827.913V1181.66L464.696 1258.69L340.569 1182.27V1043.28C354.359 1036.46 363.841 1022.25 363.841 1005.83C363.841 989.399 354.359 975.187 340.569 968.366C334.994 965.608 328.716 964.059 322.075 964.059C315.434 964.059 309.155 965.608 303.58 968.366C289.79 975.188 280.308 989.399 280.308 1005.83C280.308 1022.25 289.79 1036.46 303.58 1043.28V1094.21L163.348 1032.2V971.293V967.397Z" fill="url(#paint15_linear_0_4)"/>
<path fill-rule="evenodd" clip-rule="evenodd" d="M1266.62 906.291C1270.73 898.81 1277.07 892.726 1284.74 888.93V534.805L1004.44 410.851L1002.54 410.011L853.229 343.987V202.05C839.174 195.325 829.467 180.972 829.467 164.352C829.467 147.732 839.174 133.379 853.229 126.655C853.955 126.308 854.692 125.981 855.44 125.675C860.312 123.683 865.645 122.586 871.234 122.586C878.07 122.586 884.522 124.228 890.219 127.14C899.544 131.907 906.841 140.076 910.473 150.011C912.108 154.484 913 159.314 913 164.352C913 180.583 903.742 194.652 890.219 201.565V319.899L1041.43 386.763L1049.43 390.304L1321.73 510.717V888.93C1327.42 891.744 1332.38 895.815 1336.24 900.781C1341.73 907.853 1345 916.739 1345 926.389C1345 942.815 1335.52 957.027 1321.73 963.848C1316.16 966.606 1309.88 968.156 1303.24 968.156C1296.6 968.156 1290.32 966.606 1284.74 963.848C1278.48 960.75 1273.11 956.128 1269.11 950.467C1264.3 943.662 1261.47 935.356 1261.47 926.389C1261.47 919.103 1263.34 912.254 1266.62 906.291Z" fill="url(#paint16_linear_0_4)"/>
<path fill-rule="evenodd" clip-rule="evenodd" d="M60.2615 767.327V413.202C67.9348 409.407 74.2744 403.322 78.3886 395.842C81.6679 389.879 83.5334 383.029 83.5334 375.743C83.5334 366.777 80.7079 358.47 75.8986 351.665C71.8976 346.004 66.5237 341.382 60.2615 338.284C54.6865 335.527 48.4076 333.977 41.7667 333.977C35.1258 333.977 28.8469 335.527 23.2719 338.284C9.48244 345.106 0 359.317 0 375.743C0 385.394 3.27282 394.28 8.76907 401.352C12.6283 406.317 17.5836 410.389 23.2719 413.202V791.415L295.574 911.829L303.58 915.369L454.786 982.234V1100.57C441.263 1107.48 432.005 1121.55 432.005 1137.78C432.005 1142.82 432.897 1147.65 434.532 1152.12C438.164 1162.06 445.461 1170.23 454.786 1174.99C460.482 1177.9 466.935 1179.55 473.771 1179.55C479.36 1179.55 484.693 1178.45 489.565 1176.46C490.313 1176.15 491.05 1175.82 491.776 1175.48C505.83 1168.75 515.538 1154.4 515.538 1137.78C515.538 1121.16 505.83 1106.81 491.776 1100.08V958.146L342.469 892.121L340.569 891.281L60.2615 767.327Z" fill="url(#paint17_linear_0_4)"/>
</g>
<defs>
<linearGradient id="paint0_linear_0_4" x1="672.502" y1="0" x2="672.502" y2="1302.13" gradientUnits="userSpaceOnUse">
<stop offset="0.5" stop-color="white"/>
<stop offset="1" stop-color="white" stop-opacity="0"/>
</linearGradient>
<linearGradient id="paint1_linear_0_4" x1="672.502" y1="0" x2="672.502" y2="1302.13" gradientUnits="userSpaceOnUse">
<stop offset="0.5" stop-color="white"/>
<stop offset="1" stop-color="white" stop-opacity="0"/>
</linearGradient>
<linearGradient id="paint2_linear_0_4" x1="672.502" y1="0" x2="672.502" y2="1302.13" gradientUnits="userSpaceOnUse">
<stop offset="0.5" stop-color="white"/>
<stop offset="1" stop-color="white" stop-opacity="0"/>
</linearGradient>
<linearGradient id="paint3_linear_0_4" x1="672.502" y1="0" x2="672.502" y2="1302.13" gradientUnits="userSpaceOnUse">
<stop offset="0.5" stop-color="white"/>
<stop offset="1" stop-color="white" stop-opacity="0"/>
</linearGradient>
<linearGradient id="paint4_linear_0_4" x1="672.502" y1="0" x2="672.502" y2="1302.13" gradientUnits="userSpaceOnUse">
<stop offset="0.5" stop-color="white"/>
<stop offset="1" stop-color="white" stop-opacity="0"/>
</linearGradient>
<linearGradient id="paint5_linear_0_4" x1="672.502" y1="0" x2="672.502" y2="1302.13" gradientUnits="userSpaceOnUse">
<stop offset="0.5" stop-color="white"/>
<stop offset="1" stop-color="white" stop-opacity="0"/>
</linearGradient>
<linearGradient id="paint6_linear_0_4" x1="672.502" y1="0" x2="672.502" y2="1302.13" gradientUnits="userSpaceOnUse">
<stop offset="0.5" stop-color="white"/>
<stop offset="1" stop-color="white" stop-opacity="0"/>
</linearGradient>
<linearGradient id="paint7_linear_0_4" x1="672.502" y1="0" x2="672.502" y2="1302.13" gradientUnits="userSpaceOnUse">
<stop offset="0.5" stop-color="white"/>
<stop offset="1" stop-color="white" stop-opacity="0"/>
</linearGradient>
<linearGradient id="paint8_linear_0_4" x1="672.502" y1="0" x2="672.502" y2="1302.13" gradientUnits="userSpaceOnUse">
<stop offset="0.5" stop-color="white"/>
<stop offset="1" stop-color="white" stop-opacity="0"/>
</linearGradient>
<linearGradient id="paint9_linear_0_4" x1="672.502" y1="0" x2="672.502" y2="1302.13" gradientUnits="userSpaceOnUse">
<stop offset="0.5" stop-color="white"/>
<stop offset="1" stop-color="white" stop-opacity="0"/>
</linearGradient>
<linearGradient id="paint10_linear_0_4" x1="672.502" y1="0" x2="672.502" y2="1302.13" gradientUnits="userSpaceOnUse">
<stop offset="0.5" stop-color="white"/>
<stop offset="1" stop-color="white" stop-opacity="0"/>
</linearGradient>
<linearGradient id="paint11_linear_0_4" x1="672.502" y1="0" x2="672.502" y2="1302.13" gradientUnits="userSpaceOnUse">
<stop offset="0.5" stop-color="white"/>
<stop offset="1" stop-color="white" stop-opacity="0"/>
</linearGradient>
<linearGradient id="paint12_linear_0_4" x1="672.502" y1="0" x2="672.502" y2="1302.13" gradientUnits="userSpaceOnUse">
<stop offset="0.5" stop-color="white"/>
<stop offset="1" stop-color="white" stop-opacity="0"/>
</linearGradient>
<linearGradient id="paint13_linear_0_4" x1="672.502" y1="0" x2="672.502" y2="1302.13" gradientUnits="userSpaceOnUse">
<stop offset="0.5" stop-color="white"/>
<stop offset="1" stop-color="white" stop-opacity="0"/>
</linearGradient>
<linearGradient id="paint14_linear_0_4" x1="672.502" y1="0" x2="672.502" y2="1302.13" gradientUnits="userSpaceOnUse">
<stop offset="0.5" stop-color="white"/>
<stop offset="1" stop-color="white" stop-opacity="0"/>
</linearGradient>
<linearGradient id="paint15_linear_0_4" x1="672.502" y1="0" x2="672.502" y2="1302.13" gradientUnits="userSpaceOnUse">
<stop offset="0.5" stop-color="white"/>
<stop offset="1" stop-color="white" stop-opacity="0"/>
</linearGradient>
<linearGradient id="paint16_linear_0_4" x1="672.502" y1="0" x2="672.502" y2="1302.13" gradientUnits="userSpaceOnUse">
<stop offset="0.5" stop-color="white"/>
<stop offset="1" stop-color="white" stop-opacity="0"/>
</linearGradient>
<linearGradient id="paint17_linear_0_4" x1="672.502" y1="0" x2="672.502" y2="1302.13" gradientUnits="userSpaceOnUse">
<stop offset="0.5" stop-color="white"/>
<stop offset="1" stop-color="white" stop-opacity="0"/>
</linearGradient>
</defs>
</svg>
