<svg preserveAspectRatio="none" width="100%" height="100%" overflow="visible" style="display: block;" viewBox="0 0 194 1312" fill="none" xmlns="http://www.w3.org/2000/svg">
<g id="Vector">
<path d="M98.9727 0C97.306 0 95.6393 0 93.9727 0C93.9727 35.2926 93.9727 70.5852 93.9727 105.878C93.9727 116.159 93.9727 126.441 93.9727 136.722C94.3119 145.965 92.7153 155.355 97.079 165.261C99.7802 170.587 104.208 175.015 109.534 177.716C119.44 182.08 128.83 180.483 138.073 180.822C141.903 180.822 145.733 180.822 149.563 180.822C158.674 181.038 168.593 179.995 175.831 183.384C180.223 185.611 183.874 189.262 186.101 193.654C189.49 200.892 188.447 210.811 188.663 219.922C188.663 257.652 188.663 295.382 188.663 333.112C188.447 342.223 189.49 352.142 186.101 359.381C183.874 363.772 180.223 367.423 175.831 369.65C168.593 373.039 158.674 371.996 149.563 372.212C114.575 372.212 79.5875 372.212 44.6 372.212C35.357 372.551 25.9671 370.954 16.0613 375.318C10.7352 378.019 6.30757 382.447 3.60633 387.773C-0.757333 397.679 0.839263 407.069 0.500012 416.312C0.500009 462.245 0.500006 508.178 0.500003 554.112C0.839252 563.355 -0.757346 572.745 3.60632 582.65C6.30756 587.977 10.7352 592.404 16.0613 595.105C25.9671 599.469 35.357 597.872 44.6 598.212C79.5875 598.212 114.575 598.212 149.563 598.212C158.674 598.427 168.593 597.385 175.831 600.773C180.223 603 183.874 606.651 186.101 611.043C189.49 618.281 188.447 628.2 188.663 637.312C188.663 683.578 188.663 729.845 188.663 776.112C188.447 785.223 189.49 795.142 186.101 802.381C183.874 806.772 180.223 810.423 175.831 812.65C168.593 816.039 158.674 814.996 149.563 815.212C114.575 815.212 79.5875 815.212 44.6 815.212C35.357 815.551 25.9671 813.954 16.0613 818.318C10.7352 821.019 6.30757 825.447 3.60633 830.773C-0.757333 840.679 0.839262 850.069 0.500012 859.312C0.500009 898.578 0.500006 937.845 0.500003 977.112C0.839253 986.355 -0.757346 995.745 3.60632 1005.65C6.30756 1010.98 10.7352 1015.4 16.0613 1018.11C25.9671 1022.47 35.357 1020.87 44.6 1021.21C79.5875 1021.21 114.575 1021.21 149.563 1021.21C158.674 1021.43 168.593 1020.38 175.831 1023.77C180.223 1026 183.874 1029.65 186.101 1034.04C189.49 1041.28 188.447 1051.2 188.663 1060.31C188.663 1102.18 188.663 1144.04 188.663 1185.91C188.447 1195.02 189.49 1204.94 186.101 1212.18C183.874 1216.57 180.223 1220.22 175.831 1222.45C168.593 1225.84 158.674 1224.79 149.563 1225.01C145.733 1225.01 141.903 1225.01 138.073 1225.01C135.323 1225.01 132.597 1225.01 129.832 1225.04C123.314 1225.25 116.414 1224.81 109.534 1228.12C104.208 1230.82 99.7802 1235.25 97.079 1240.57C92.7153 1250.48 94.3119 1259.87 93.9727 1269.11C93.9727 1283.18 93.9727 1297.25 93.9727 1311.31C95.6393 1311.31 97.306 1311.31 98.9727 1311.31C98.9727 1297.25 98.9727 1283.18 98.9727 1269.11C99.1884 1260 98.1456 1250.08 101.534 1242.84C103.761 1238.45 107.412 1234.8 111.804 1232.57C116.798 1230.06 123.478 1230.18 129.885 1230.04C132.607 1230.01 135.323 1230.01 138.073 1230.01C141.903 1230.01 145.733 1230.01 149.563 1230.01C158.806 1229.67 168.195 1231.27 178.101 1226.9C183.427 1224.2 187.855 1219.77 190.556 1214.45C194.92 1204.54 193.323 1195.15 193.663 1185.91C193.663 1144.04 193.663 1102.18 193.663 1060.31C193.323 1051.07 194.92 1041.68 190.556 1031.77C187.855 1026.45 183.427 1022.02 178.101 1019.32C168.195 1014.95 158.806 1016.55 149.563 1016.21C114.575 1016.21 79.5875 1016.21 44.6 1016.21C35.4883 1016 25.5693 1017.04 18.3312 1013.65C13.9396 1011.42 10.2886 1007.77 8.06135 1003.38C4.67291 996.142 5.71573 986.223 5.5 977.112C5.50001 937.845 5.50001 898.578 5.50001 859.312C5.71574 850.2 4.67293 840.281 8.06136 833.043C10.2886 828.651 13.9396 825 18.3312 822.773C25.5693 819.385 35.4883 820.427 44.6 820.212C79.5875 820.212 114.575 820.212 149.563 820.212C158.806 819.872 168.195 821.469 178.101 817.105C183.427 814.404 187.855 809.977 190.556 804.65C194.92 794.745 193.323 785.355 193.663 776.112C193.663 729.845 193.663 683.578 193.663 637.312C193.323 628.069 194.92 618.679 190.556 608.773C187.855 603.447 183.427 599.019 178.101 596.318C168.195 591.954 158.806 593.551 149.563 593.212C114.575 593.212 79.5875 593.212 44.6 593.212C35.4883 592.996 25.5693 594.039 18.3312 590.65C13.9396 588.423 10.2886 584.772 8.06135 580.381C4.67291 573.142 5.71573 563.223 5.5 554.112C5.50001 508.178 5.50001 462.245 5.50001 416.312C5.71574 407.2 4.67293 397.281 8.06136 390.043C10.2886 385.651 13.9396 382 18.3312 379.773C25.5693 376.385 35.4883 377.427 44.6 377.212C79.5875 377.212 114.575 377.212 149.563 377.212C158.806 376.872 168.195 378.469 178.101 374.105C183.427 371.404 187.855 366.977 190.556 361.65C194.92 351.745 193.323 342.355 193.663 333.112C193.663 295.382 193.663 257.652 193.663 219.922C193.323 210.679 194.92 201.29 190.556 191.384C187.855 186.058 183.427 181.63 178.101 178.929C168.195 174.565 158.806 176.162 149.563 175.822C145.733 175.822 141.903 175.822 138.073 175.822C128.961 175.607 119.042 176.65 111.804 173.261C107.412 171.034 103.761 167.383 101.534 162.991C98.1456 155.753 99.1884 145.834 98.9727 136.722C98.9727 126.441 98.9727 116.159 98.9727 105.878C98.9727 70.5852 98.9727 35.2926 98.9727 0Z" fill="url(#paint0_linear_0_13)"/>
<path d="M98.9727 0C97.306 0 95.6393 0 93.9727 0C93.9727 35.2926 93.9727 70.5852 93.9727 105.878C93.9727 116.159 93.9727 126.441 93.9727 136.722C94.3119 145.965 92.7153 155.355 97.079 165.261C99.7802 170.587 104.208 175.015 109.534 177.716C119.44 182.08 128.83 180.483 138.073 180.822C141.903 180.822 145.733 180.822 149.563 180.822C158.674 181.038 168.593 179.995 175.831 183.384C180.223 185.611 183.874 189.262 186.101 193.654C189.49 200.892 188.447 210.811 188.663 219.922C188.663 257.652 188.663 295.382 188.663 333.112C188.447 342.223 189.49 352.142 186.101 359.381C183.874 363.772 180.223 367.423 175.831 369.65C168.593 373.039 158.674 371.996 149.563 372.212C114.575 372.212 79.5875 372.212 44.6 372.212C35.357 372.551 25.9671 370.954 16.0613 375.318C10.7352 378.019 6.30757 382.447 3.60633 387.773C-0.757333 397.679 0.839263 407.069 0.500012 416.312C0.500009 462.245 0.500006 508.178 0.500003 554.112C0.839252 563.355 -0.757346 572.745 3.60632 582.65C6.30756 587.977 10.7352 592.404 16.0613 595.105C25.9671 599.469 35.357 597.872 44.6 598.212C79.5875 598.212 114.575 598.212 149.563 598.212C158.674 598.427 168.593 597.385 175.831 600.773C180.223 603 183.874 606.651 186.101 611.043C189.49 618.281 188.447 628.2 188.663 637.312C188.663 683.578 188.663 729.845 188.663 776.112C188.447 785.223 189.49 795.142 186.101 802.381C183.874 806.772 180.223 810.423 175.831 812.65C168.593 816.039 158.674 814.996 149.563 815.212C114.575 815.212 79.5875 815.212 44.6 815.212C35.357 815.551 25.9671 813.954 16.0613 818.318C10.7352 821.019 6.30757 825.447 3.60633 830.773C-0.757333 840.679 0.839262 850.069 0.500012 859.312C0.500009 898.578 0.500006 937.845 0.500003 977.112C0.839253 986.355 -0.757346 995.745 3.60632 1005.65C6.30756 1010.98 10.7352 1015.4 16.0613 1018.11C25.9671 1022.47 35.357 1020.87 44.6 1021.21C79.5875 1021.21 114.575 1021.21 149.563 1021.21C158.674 1021.43 168.593 1020.38 175.831 1023.77C180.223 1026 183.874 1029.65 186.101 1034.04C189.49 1041.28 188.447 1051.2 188.663 1060.31C188.663 1102.18 188.663 1144.04 188.663 1185.91C188.447 1195.02 189.49 1204.94 186.101 1212.18C183.874 1216.57 180.223 1220.22 175.831 1222.45C168.593 1225.84 158.674 1224.79 149.563 1225.01C145.733 1225.01 141.903 1225.01 138.073 1225.01C135.323 1225.01 132.597 1225.01 129.832 1225.04C123.314 1225.25 116.414 1224.81 109.534 1228.12C104.208 1230.82 99.7802 1235.25 97.079 1240.57C92.7153 1250.48 94.3119 1259.87 93.9727 1269.11C93.9727 1283.18 93.9727 1297.25 93.9727 1311.31C95.6393 1311.31 97.306 1311.31 98.9727 1311.31C98.9727 1297.25 98.9727 1283.18 98.9727 1269.11C99.1884 1260 98.1456 1250.08 101.534 1242.84C103.761 1238.45 107.412 1234.8 111.804 1232.57C116.798 1230.06 123.478 1230.18 129.885 1230.04C132.607 1230.01 135.323 1230.01 138.073 1230.01C141.903 1230.01 145.733 1230.01 149.563 1230.01C158.806 1229.67 168.195 1231.27 178.101 1226.9C183.427 1224.2 187.855 1219.77 190.556 1214.45C194.92 1204.54 193.323 1195.15 193.663 1185.91C193.663 1144.04 193.663 1102.18 193.663 1060.31C193.323 1051.07 194.92 1041.68 190.556 1031.77C187.855 1026.45 183.427 1022.02 178.101 1019.32C168.195 1014.95 158.806 1016.55 149.563 1016.21C114.575 1016.21 79.5875 1016.21 44.6 1016.21C35.4883 1016 25.5693 1017.04 18.3312 1013.65C13.9396 1011.42 10.2886 1007.77 8.06135 1003.38C4.67291 996.142 5.71573 986.223 5.5 977.112C5.50001 937.845 5.50001 898.578 5.50001 859.312C5.71574 850.2 4.67293 840.281 8.06136 833.043C10.2886 828.651 13.9396 825 18.3312 822.773C25.5693 819.385 35.4883 820.427 44.6 820.212C79.5875 820.212 114.575 820.212 149.563 820.212C158.806 819.872 168.195 821.469 178.101 817.105C183.427 814.404 187.855 809.977 190.556 804.65C194.92 794.745 193.323 785.355 193.663 776.112C193.663 729.845 193.663 683.578 193.663 637.312C193.323 628.069 194.92 618.679 190.556 608.773C187.855 603.447 183.427 599.019 178.101 596.318C168.195 591.954 158.806 593.551 149.563 593.212C114.575 593.212 79.5875 593.212 44.6 593.212C35.4883 592.996 25.5693 594.039 18.3312 590.65C13.9396 588.423 10.2886 584.772 8.06135 580.381C4.67291 573.142 5.71573 563.223 5.5 554.112C5.50001 508.178 5.50001 462.245 5.50001 416.312C5.71574 407.2 4.67293 397.281 8.06136 390.043C10.2886 385.651 13.9396 382 18.3312 379.773C25.5693 376.385 35.4883 377.427 44.6 377.212C79.5875 377.212 114.575 377.212 149.563 377.212C158.806 376.872 168.195 378.469 178.101 374.105C183.427 371.404 187.855 366.977 190.556 361.65C194.92 351.745 193.323 342.355 193.663 333.112C193.663 295.382 193.663 257.652 193.663 219.922C193.323 210.679 194.92 201.29 190.556 191.384C187.855 186.058 183.427 181.63 178.101 178.929C168.195 174.565 158.806 176.162 149.563 175.822C145.733 175.822 141.903 175.822 138.073 175.822C128.961 175.607 119.042 176.65 111.804 173.261C107.412 171.034 103.761 167.383 101.534 162.991C98.1456 155.753 99.1884 145.834 98.9727 136.722C98.9727 126.441 98.9727 116.159 98.9727 105.878C98.9727 70.5852 98.9727 35.2926 98.9727 0Z" fill="url(#paint1_radial_0_13)" fill-opacity="0.2"/>
</g>
<defs>
<linearGradient id="paint0_linear_0_13" x1="97.0813" y1="25.6671" x2="97.0813" y2="1333.2" gradientUnits="userSpaceOnUse">
<stop offset="0.0300102" stop-color="#3C3F2E" stop-opacity="0"/>
<stop offset="0.266873" stop-color="#3C3F2E" stop-opacity="0.929074"/>
<stop offset="0.5" stop-color="#3C3F2E"/>
<stop offset="0.751149" stop-color="#3C3F2E" stop-opacity="0.906207"/>
<stop offset="1" stop-color="#3C3F2E" stop-opacity="0.91"/>
</linearGradient>
<radialGradient id="paint1_radial_0_13" cx="0" cy="0" r="1" gradientUnits="userSpaceOnUse" gradientTransform="translate(3 -82.9853) rotate(81.888) scale(1374.35 152.043)">
<stop stop-color="white"/>
<stop offset="1" stop-color="white" stop-opacity="0"/>
</radialGradient>
</defs>
</svg>
